<?xml version="1.0" standalone="no"?>
<!DOCTYPE svg PUBLIC "-//W3C//DTD SVG 1.1//EN" "http://www.w3.org/Graphics/SVG/1.1/DTD/svg11.dtd" >
<svg xmlns="http://www.w3.org/2000/svg" xmlns:xlink="http://www.w3.org/1999/xlink" version="1.1">
<metadata>
Created by FontForge 20170910 at Fri Dec 12 17:18:17 2014
 By jimmywarting
Modern and elegant sans serif font.
</metadata>
<defs>
<font id="Panton-ExtraBoldItalic" horiz-adv-x="555" >
  <font-face 
    font-family="Panton ExtraBold"
    font-weight="800"
    font-style="italic"
    font-stretch="normal"
    units-per-em="1000"
    panose-1="0 0 9 0 0 0 0 0 0 0"
    ascent="762"
    descent="-238"
    x-height="520"
    cap-height="710"
    bbox="-192.155 -260 1182.84 979.129"
    underline-thickness="50"
    underline-position="-100"
    stemh="135"
    unicode-range="U+0020-FB02"
  />
<missing-glyph horiz-adv-x="686" 
d="M626 669v-628c0 -31 -10 -41 -41 -41h-479c-31 0 -41 10 -41 41v628c0 31 10 41 41 41h479c31 0 41 -10 41 -41zM464 562h-237v-413h237v413z" />
    <glyph glyph-name="fi" unicode="fi" horiz-adv-x="607" 
d="M412 740h190c27 0 34 -9 29 -38l-10 -58c-5 -29 -16 -38 -44 -38h-186c-60 0 -95 -27 -104 -81l-1 -5h277c27 0 34 -9 29 -37l-78 -446c-5 -28 -16 -37 -43 -37h-78c-27 0 -35 9 -30 37l62 349h-163l-61 -349c-5 -28 -16 -37 -45 -37h-76c-28 0 -35 9 -30 37l61 349h-43
c-28 0 -36 9 -31 37l11 60c5 28 16 37 43 37h44v4c25 144 118 216 277 216z" />
    <glyph glyph-name="fl" unicode="fl" horiz-adv-x="599" 
d="M412 740h179c28 0 35 -9 30 -37l-117 -666c-5 -28 -16 -37 -44 -37h-77c-28 0 -35 9 -30 37l100 569h-62c-61 0 -95 -27 -104 -81l-1 -5h56c27 0 34 -9 29 -37l-10 -60c-5 -28 -15 -37 -43 -37h-56l-61 -349c-5 -28 -16 -37 -45 -37h-76c-28 0 -35 9 -30 37l61 349h-43
c-28 0 -36 9 -31 37l11 60c5 28 16 37 43 37h44v5c25 140 121 215 277 215z" />
    <glyph glyph-name=".notdef" horiz-adv-x="686" 
d="M626 669v-628c0 -31 -10 -41 -41 -41h-479c-31 0 -41 10 -41 41v628c0 31 10 41 41 41h479c31 0 41 -10 41 -41zM464 562h-237v-413h237v413z" />
    <glyph glyph-name="NULL" horiz-adv-x="600" 
 />
    <glyph glyph-name="nonmarkingreturn" horiz-adv-x="333" 
 />
    <glyph glyph-name="space" unicode=" " horiz-adv-x="206" 
 />
    <glyph glyph-name="exclam" unicode="!" horiz-adv-x="264" 
d="M176 740h82c28 0 35 -9 30 -37l-95 -444c-7 -28 -15 -36 -42 -36h-51c-27 0 -34 9 -30 36l63 444c4 28 15 37 43 37zM104 160h20c57 0 72 -18 63 -75l-4 -18c-11 -57 -31 -75 -88 -75h-21c-57 0 -71 18 -62 75l3 18c9 56 32 75 89 75z" />
    <glyph glyph-name="quotedbl" unicode="&#x22;" horiz-adv-x="382" 
d="M250 677l-52 -200c-7 -28 -13 -31 -41 -31h-45c-29 0 -34 4 -29 31l36 200c4 28 11 33 39 33h64c28 0 35 -6 28 -33zM410 677l-52 -200c-8 -28 -14 -31 -42 -31h-45c-28 0 -33 4 -28 31l35 200c5 28 12 33 39 33h64c29 0 34 -5 29 -33z" />
    <glyph glyph-name="numbersign" unicode="#" horiz-adv-x="739" 
d="M658 519h67c28 0 33 -8 21 -35l-30 -64c-11 -23 -29 -34 -55 -34h-66l-48 -101h68c28 0 34 -9 21 -36l-31 -64c-11 -23 -29 -34 -55 -34h-67l-54 -114c-13 -28 -26 -37 -53 -37h-68c-28 0 -33 10 -20 37l54 114h-101l-53 -114c-13 -25 -31 -37 -54 -37h-68
c-28 0 -33 10 -20 37l54 114h-67c-27 0 -32 11 -20 36l30 64c13 27 26 34 55 34h65l49 101h-68c-28 0 -33 9 -20 36l30 64c12 25 25 33 54 33h67l55 117c13 28 26 37 54 37h68c27 0 32 -10 19 -37l-55 -117h101l55 117c13 28 26 37 54 37h68c27 0 32 -10 19 -37zM454 386
h-101l-48 -101h100z" />
    <glyph glyph-name="dollar" unicode="$" horiz-adv-x="599" 
d="M353 767h76c28 0 35 -9 31 -36l-8 -41c73 -13 121 -57 144 -132c8 -28 0 -44 -33 -57l-69 -28c-29 -12 -42 -8 -51 20c-13 39 -38 58 -91 58c-72 0 -104 -15 -111 -58c-7 -37 32 -51 108 -59c51 -5 85 -12 130 -32c22 -10 40 -22 53 -37c26 -30 42 -83 30 -151
c-20 -111 -94 -167 -227 -191l-8 -43c-5 -28 -15 -37 -43 -37h-76c-27 0 -35 9 -30 37l7 41c-96 15 -152 64 -168 146c-5 26 8 44 37 54l72 24c32 11 44 5 52 -24c8 -41 41 -61 99 -61c76 0 118 21 126 64c7 40 -32 53 -108 61c-51 7 -86 13 -130 34c-23 11 -41 24 -54 39
c-28 30 -43 82 -31 147c18 103 92 165 223 185l7 41c5 27 16 36 43 36z" />
    <glyph glyph-name="percent" unicode="%" horiz-adv-x="846" 
d="M66 502l13 72c16 95 89 152 198 152c111 0 162 -57 146 -152l-13 -72c-17 -93 -88 -149 -199 -149c-109 0 -161 56 -145 149zM728 710h64c27 0 32 -18 13 -39l-579 -635c-14 -16 -26 -26 -35 -30c-10 -4 -27 -6 -51 -6h-59c-28 0 -33 18 -13 41l580 635
c13 15 25 25 34 29c9 3 24 5 46 5zM292 511l10 57c4 28 -10 43 -45 43c-34 0 -54 -14 -59 -43l-10 -57c-6 -30 9 -45 44 -45c34 0 54 15 60 45zM447 134l13 72c16 95 89 151 198 151c111 0 162 -56 146 -151l-13 -72c-17 -95 -89 -150 -198 -150c-111 0 -162 55 -146 150z
M673 142l10 57c5 29 -9 44 -44 44s-55 -15 -60 -44l-10 -57c-5 -29 9 -44 44 -44s55 15 60 44z" />
    <glyph glyph-name="ampersand" unicode="&#x26;" horiz-adv-x="684" 
d="M160 540c9 53 35 97 77 132c41 35 94 53 159 53c54 0 97 -18 128 -53s43 -79 34 -130c-13 -75 -62 -134 -149 -176l-10 -5l72 -95l66 54c18 17 34 17 48 0l45 -54c11 -14 7 -28 -10 -43l-72 -60l97 -127c17 -24 9 -36 -24 -36h-97c-23 0 -39 7 -50 21l-37 49
c-83 -65 -140 -85 -215 -85c-68 0 -119 20 -154 61s-46 94 -34 160c15 83 67 147 156 192c-29 42 -39 89 -30 142zM421 545c5 31 -15 54 -47 54c-40 0 -69 -27 -74 -62c-5 -27 -1 -44 24 -77l37 18c35 17 55 40 60 67zM359 173l-94 125c-47 -23 -74 -54 -81 -95
c-9 -48 20 -81 69 -81c28 0 59 14 75 26c7 5 18 14 31 25z" />
    <glyph glyph-name="quotesingle" unicode="'" horiz-adv-x="223" 
d="M250 677l-52 -200c-7 -28 -13 -31 -41 -31h-45c-29 0 -34 4 -29 31l36 200c4 28 11 33 39 33h64c28 0 35 -6 28 -33z" />
    <glyph glyph-name="parenleft" unicode="(" horiz-adv-x="307" 
d="M31 105l89 501c23 133 86 211 190 255c28 11 39 4 46 -24l21 -71c7 -27 1 -35 -30 -50c-44 -21 -67 -52 -79 -112l-90 -513c-11 -60 3 -90 40 -111c24 -16 28 -25 11 -50l-43 -57c-21 -28 -29 -32 -54 -24c-89 44 -124 123 -101 256z" />
    <glyph glyph-name="parenright" unicode=")" horiz-adv-x="306" 
d="M118 781l42 56c21 28 29 32 54 24c89 -44 125 -122 101 -255l-88 -501c-24 -135 -87 -212 -191 -256c-27 -11 -38 -4 -46 24l-19 72c-7 25 1 35 29 50c45 23 69 52 80 112l90 513c11 60 -3 90 -40 111c-24 16 -28 25 -12 50z" />
    <glyph glyph-name="asterisk" unicode="*" horiz-adv-x="352" 
d="M233 675h39c17 0 23 -8 16 -24l-26 -76l76 36c19 8 24 4 27 -13l7 -37c1 -16 -6 -25 -23 -28l-78 -11l44 -54c11 -11 8 -22 -7 -33l-36 -22c-16 -10 -26 -7 -30 8l-22 66l-46 -66c-10 -16 -21 -19 -34 -9l-27 23c-13 11 -12 22 3 33l65 54l-74 11c-17 3 -21 12 -13 29
l19 36c9 16 20 20 33 13l62 -36l1 76c-1 16 7 24 24 24z" />
    <glyph glyph-name="plus" unicode="+" horiz-adv-x="538" 
d="M358 397h131c29 0 38 -10 33 -41l-10 -57c-7 -31 -18 -41 -47 -41h-131l-24 -131c-5 -31 -17 -40 -48 -40h-57c-29 0 -38 9 -33 40l23 131h-130c-31 0 -38 12 -33 41l10 57c5 31 17 41 48 41h130l22 130c5 31 19 40 48 40h57c31 0 38 -11 33 -40z" />
    <glyph glyph-name="comma" unicode="," horiz-adv-x="240" 
d="M167 107l-73 -194c-11 -28 -21 -37 -49 -37h-35c-24 0 -28 5 -25 28l31 203c7 35 18 45 51 45h64c35 0 47 -15 36 -45z" />
    <glyph glyph-name="hyphen" unicode="-" horiz-adv-x="406" 
d="M102 336h222c31 0 39 -10 34 -41l-11 -61c-5 -31 -17 -41 -48 -41h-222c-29 0 -38 10 -33 41l10 61c5 31 17 41 48 41z" />
    <glyph glyph-name="period" unicode="." horiz-adv-x="249" 
d="M99 162h17c57 0 72 -19 63 -76l-4 -19c-9 -57 -32 -75 -89 -75h-17c-57 0 -71 18 -62 75l4 19c9 57 31 76 88 76z" />
    <glyph glyph-name="slash" unicode="/" horiz-adv-x="470" 
d="M513 677l-387 -703c-13 -27 -26 -34 -54 -34h-80c-27 0 -31 10 -19 34l387 703c13 27 27 34 55 34h80c27 0 30 -10 18 -34z" />
    <glyph glyph-name="zero" unicode="0" horiz-adv-x="640" 
d="M59 245l43 240c27 153 140 240 313 240c85 0 148 -24 189 -71c41 -48 54 -111 40 -189l-42 -240c-27 -155 -139 -240 -312 -240c-86 0 -149 24 -190 72c-41 47 -55 110 -41 188zM441 233l44 245c11 64 -23 98 -94 98s-119 -35 -128 -98l-44 -245c-11 -64 23 -99 94 -99
s117 35 128 99z" />
    <glyph glyph-name="one" unicode="1" horiz-adv-x="438" 
d="M351 710h57c31 0 39 -10 34 -41l-111 -628c-5 -31 -17 -41 -48 -41h-81c-31 0 -38 10 -33 41l83 469l-107 -55c-31 -16 -50 -11 -59 16l-24 63c-9 25 0 39 29 55l200 105c20 11 40 16 60 16z" />
    <glyph glyph-name="two" unicode="2" horiz-adv-x="605" 
d="M96 557c64 112 162 168 295 168c78 0 136 -23 174 -68s51 -102 40 -170c-11 -71 -39 -125 -83 -161c-44 -37 -121 -75 -232 -116c-9 -4 -39 -13 -51 -17c-7 -3 -14 -6 -22 -10c-17 -8 -27 -17 -28 -29l-2 -7h304c31 0 38 -12 33 -41l-11 -65c-5 -31 -17 -41 -48 -41h-433
c-29 0 -38 10 -33 41l13 79c19 85 55 129 116 166c46 29 63 34 116 55c67 25 110 44 129 57c37 24 59 54 65 91c9 55 -19 87 -75 87c-51 0 -92 -24 -123 -73c-19 -31 -29 -35 -56 -26l-72 28c-27 11 -32 24 -16 52z" />
    <glyph glyph-name="three" unicode="3" horiz-adv-x="619" 
d="M600 513c-11 -63 -45 -110 -100 -141c59 -35 82 -94 67 -176c-24 -135 -123 -211 -298 -211c-149 0 -234 56 -255 168c-5 28 4 43 35 52l79 27c29 11 41 3 46 -26c12 -52 40 -74 113 -74c66 0 104 26 113 78s-15 78 -70 78h-79c-31 0 -39 9 -34 40l10 62
c5 31 17 41 48 41h59c53 0 94 25 102 73c8 49 -18 74 -75 74c-69 0 -100 -20 -129 -72c-16 -29 -29 -35 -56 -26l-70 27c-27 11 -31 23 -16 52c61 111 153 166 304 166c152 0 229 -85 206 -212z" />
    <glyph glyph-name="four" unicode="4" horiz-adv-x="644" 
d="M528 287h56c31 0 39 -10 34 -41l-10 -56c-5 -31 -17 -41 -48 -41h-56l-20 -108c-5 -31 -17 -41 -48 -41h-70c-31 0 -39 10 -34 41l20 108h-314c-31 0 -39 10 -34 41l9 50c4 28 7 36 26 53l385 388c23 23 34 29 63 29h74c31 0 39 -10 34 -41zM376 287l37 211l-210 -211
h173z" />
    <glyph glyph-name="five" unicode="5" horiz-adv-x="604" 
d="M225 710h351c31 0 38 -10 33 -41l-11 -66c-5 -31 -17 -41 -48 -41h-267l-29 -105h92c83 0 142 -23 179 -68c36 -45 48 -102 36 -170c-12 -69 -44 -126 -96 -169s-120 -65 -205 -65c-147 0 -231 55 -252 165c-5 29 4 41 35 52l82 28c28 11 41 4 46 -25
c10 -47 47 -71 111 -71c56 0 97 33 109 94c9 53 -23 85 -80 85h-208c-35 0 -42 14 -34 47l82 292c12 44 29 58 74 58z" />
    <glyph glyph-name="six" unicode="6" horiz-adv-x="642" 
d="M258 460l-5 -21c37 8 81 12 130 12c178 0 253 -80 225 -241c-25 -149 -140 -225 -317 -225c-179 0 -259 108 -231 277l37 209c29 165 142 254 323 254c139 0 219 -53 240 -160c5 -28 -3 -41 -34 -52l-76 -26c-31 -11 -39 -4 -48 25c-12 43 -47 64 -105 64
c-80 0 -126 -39 -139 -116zM227 288l-8 -45c-13 -74 19 -111 97 -111c77 0 122 29 133 86c9 59 -18 86 -102 86c-50 0 -90 -5 -120 -16z" />
    <glyph glyph-name="seven" unicode="7" horiz-adv-x="553" 
d="M155 710h436c31 0 39 -10 34 -41l-9 -49c-3 -18 -11 -37 -22 -57l-334 -527c-19 -31 -31 -36 -82 -36h-79c-25 0 -29 14 -13 41l333 521h-290c-29 0 -38 9 -33 40l12 67c7 31 18 41 47 41z" />
    <glyph glyph-name="eight" unicode="8" horiz-adv-x="636" 
d="M118 524c23 131 130 201 291 201c167 0 245 -77 222 -205c-10 -57 -45 -106 -106 -146c62 -35 86 -95 72 -180c-24 -139 -130 -209 -318 -209c-193 0 -268 74 -245 201c12 71 57 127 134 168c-47 37 -64 94 -50 170zM472 514c9 48 -22 73 -86 73c-63 0 -99 -24 -108 -73
c-8 -44 18 -63 78 -80l40 -11c44 20 69 50 76 91zM429 200c5 29 -2 48 -27 61s-42 18 -87 29c-13 3 -22 5 -29 7c-50 -21 -79 -54 -86 -97c-8 -51 21 -77 104 -77c75 0 116 26 125 77z" />
    <glyph glyph-name="nine" unicode="9" horiz-adv-x="643" 
d="M429 250l4 21c-36 -8 -79 -12 -130 -12c-177 0 -252 80 -225 241c27 149 141 225 318 225c179 0 259 -108 230 -277l-36 -209c-31 -165 -143 -254 -324 -254c-139 0 -219 53 -240 160c-5 28 3 41 34 52l76 27c32 9 40 3 48 -26c12 -43 47 -64 106 -64
c79 0 125 39 139 116zM460 422l7 45c13 74 -19 111 -97 111c-77 0 -121 -29 -132 -86c-11 -59 17 -86 101 -86c51 0 91 5 121 16z" />
    <glyph glyph-name="colon" unicode=":" horiz-adv-x="277" 
d="M169 506h17c57 0 71 -18 62 -75l-3 -19c-11 -57 -32 -76 -89 -76h-17c-57 0 -73 19 -62 76l3 19c9 57 32 75 89 75zM115 162h17c57 0 71 -17 62 -76l-4 -19c-11 -57 -31 -75 -88 -75h-17c-57 0 -72 18 -63 75l4 19c9 57 32 76 89 76z" />
    <glyph glyph-name="semicolon" unicode=";" horiz-adv-x="274" 
d="M176 437l-15 -44c43 -5 53 -22 38 -67l-16 -9c-13 -45 -31 -59 -76 -55l7 45c-44 7 -53 26 -38 71l23 8c15 45 33 58 77 51zM174 182l-68 -151c0 -21 -10 -35 -29 -44l-23 -11c-22 -12 -26 -9 -34 8l35 158c-3 27 5 38 33 49l45 11c29 10 42 3 41 -20z" />
    <glyph glyph-name="less" unicode="&#x3c;" horiz-adv-x="484" 
d="M80 402l364 180c35 16 45 6 38 -31l-12 -63c-8 -43 -16 -51 -49 -66l-200 -91l-2 -5l169 -90c29 -15 33 -21 26 -66l-12 -69c-7 -36 -23 -46 -48 -31l-300 181c-23 15 -29 25 -24 50l9 50c5 27 14 36 41 51z" />
    <glyph glyph-name="equal" unicode="=" horiz-adv-x="589" 
d="M134 501h399c31 0 39 -10 34 -41l-11 -62c-5 -31 -18 -41 -49 -41h-399c-31 0 -38 10 -33 41l11 62c5 31 17 41 48 41zM98 296h399c31 0 38 -10 33 -41l-10 -62c-7 -31 -19 -41 -48 -41h-399c-31 0 -41 10 -34 41l11 62c5 31 17 41 48 41z" />
    <glyph glyph-name="greater" unicode="&#x3e;" horiz-adv-x="485" 
d="M88 492l12 60c7 37 19 47 48 31l300 -181c23 -15 29 -25 24 -50l-9 -50c-5 -27 -14 -36 -41 -51l-365 -180c-33 -16 -43 -6 -36 30l12 74c7 41 15 50 48 66l201 90v6l-168 89c-29 15 -33 19 -26 66z" />
    <glyph glyph-name="question" unicode="?" horiz-adv-x="580" 
d="M81 578c61 107 145 161 286 161c79 0 139 -20 180 -61s56 -91 45 -151c-15 -77 -44 -121 -89 -153c-32 -24 -48 -32 -83 -49c-18 -9 -31 -15 -38 -19c-35 -19 -55 -41 -59 -64c-5 -29 -17 -39 -45 -39h-60c-28 0 -36 10 -31 39c15 84 54 126 117 161c11 5 45 24 57 31
c5 3 13 9 23 16c25 19 41 39 48 76c8 47 -19 77 -82 77c-65 0 -103 -23 -138 -79c-19 -31 -31 -37 -56 -25l-59 27c-27 13 -31 24 -16 52zM231 160h21c57 0 71 -18 62 -75l-3 -18c-9 -57 -32 -75 -89 -75h-20c-57 0 -73 18 -62 75l3 18c9 57 31 75 88 75z" />
    <glyph glyph-name="at" unicode="@" horiz-adv-x="903" 
d="M63 254l14 77c21 121 73 217 156 288s191 106 323 106s227 -35 286 -106s78 -167 57 -288l-14 -77c-11 -67 -37 -119 -76 -157c-40 -39 -85 -58 -135 -58c-53 3 -60 10 -85 36c-53 -16 -113 -24 -180 -24c-121 0 -171 57 -151 172l25 138c20 115 91 172 212 172
c75 0 136 -10 185 -30c25 -11 29 -20 24 -48l-48 -274c-4 -25 8 -38 37 -38c35 0 67 32 80 109l14 81c34 195 -49 292 -249 292c-193 0 -317 -108 -349 -292l-14 -81c-32 -184 52 -284 248 -284c51 0 125 8 222 23c19 4 24 1 21 -15l-9 -52c-4 -20 -10 -27 -30 -32
c-66 -16 -139 -24 -220 -24c-267 0 -387 145 -344 386zM571 416c-20 5 -46 8 -79 8c-56 0 -81 -19 -90 -66l-23 -132c-8 -47 11 -65 66 -65c39 0 69 3 88 8l43 239c1 4 0 7 -5 8z" />
    <glyph glyph-name="A" unicode="A" horiz-adv-x="670" 
d="M513 678l126 -638c5 -27 -7 -40 -34 -40h-70c-51 0 -64 8 -68 37l-14 94h-248l-48 -94c-15 -29 -30 -37 -79 -37h-74c-28 0 -35 13 -20 40l352 636c13 27 26 34 55 34h77c29 0 40 -7 45 -32zM434 263l-25 155c-5 43 -5 97 -2 124l2 19h-8c-9 -47 -25 -95 -49 -142
l-80 -156h162z" />
    <glyph glyph-name="B" unicode="B" horiz-adv-x="654" 
d="M179 710h281c131 0 200 -80 179 -196c-13 -68 -40 -106 -95 -141l-1 -4c57 -27 81 -91 66 -179c-23 -124 -128 -190 -269 -190h-286c-31 0 -39 10 -34 41l111 628c7 31 17 41 48 41zM251 430h135c48 0 76 23 84 68s-12 68 -60 68h-135zM442 216c8 49 -13 73 -62 73h-153
l-26 -145h153c50 0 79 24 88 72z" />
    <glyph glyph-name="C" unicode="C" horiz-adv-x="640" 
d="M57 262l36 204c29 167 150 259 339 259c139 0 220 -57 241 -171c5 -29 -1 -43 -32 -52l-73 -24c-31 -9 -41 -4 -48 25c-10 49 -47 73 -112 73c-89 0 -140 -40 -154 -119l-36 -204c-14 -79 23 -119 112 -119c65 0 111 24 139 73c16 29 29 36 56 25l75 -29
c27 -11 32 -24 17 -52c-61 -111 -164 -166 -311 -166c-187 0 -277 108 -249 277z" />
    <glyph glyph-name="D" unicode="D" horiz-adv-x="673" 
d="M179 710h234c93 0 161 -26 204 -77s57 -119 42 -204l-30 -172c-31 -167 -147 -257 -335 -257h-240c-31 0 -39 10 -34 41l111 628c7 31 17 41 48 41zM469 269l30 172c14 81 -24 121 -113 121h-112l-73 -413h112c89 0 141 40 156 120z" />
    <glyph glyph-name="E" unicode="E" horiz-adv-x="584" 
d="M179 710h402c31 0 39 -10 34 -41l-12 -67c-5 -29 -17 -40 -48 -40h-281l-22 -129h231c29 0 38 -9 33 -40l-12 -67c-5 -31 -17 -41 -48 -41h-231l-24 -136h291c31 0 38 -12 33 -41l-12 -67c-5 -31 -16 -41 -47 -41h-412c-31 0 -39 10 -34 41l111 628c7 31 17 41 48 41z
" />
    <glyph glyph-name="F" unicode="F" horiz-adv-x="573" 
d="M179 710h402c31 0 39 -10 34 -41l-12 -67c-5 -29 -17 -40 -48 -40h-281l-25 -143h231c31 0 38 -10 33 -41l-11 -67c-5 -29 -17 -40 -48 -40h-231l-41 -230c-5 -31 -16 -41 -47 -41h-81c-31 0 -39 10 -34 41l111 628c7 31 17 41 48 41z" />
    <glyph glyph-name="G" unicode="G" horiz-adv-x="666" 
d="M388 401h242c31 0 39 -10 34 -41l-26 -148c-24 -140 -147 -227 -334 -227c-93 0 -160 26 -203 77s-58 119 -44 204l36 202c29 168 149 257 340 257c138 0 218 -57 241 -170c7 -29 0 -43 -31 -52l-75 -24c-31 -9 -41 -4 -48 25c-10 48 -48 72 -113 72
c-89 0 -140 -40 -153 -119l-37 -204c-14 -79 23 -119 112 -119c83 0 141 36 150 87l6 36h-122c-31 0 -39 10 -34 41l11 62c5 31 17 41 48 41z" />
    <glyph glyph-name="H" unicode="H" horiz-adv-x="691" 
d="M583 710h81c31 0 38 -10 33 -41l-111 -628c-5 -31 -16 -41 -47 -41h-81c-31 0 -39 10 -34 41l43 244h-241l-43 -244c-5 -31 -17 -41 -48 -41h-81c-31 0 -39 10 -34 41l111 628c5 31 17 41 48 41h81c31 0 38 -10 33 -41l-41 -235h242l41 235c7 31 17 41 48 41z" />
    <glyph glyph-name="I" unicode="I" horiz-adv-x="287" 
d="M20 40l111 630c7 31 18 40 47 40h82c31 0 38 -11 33 -40l-111 -630c-5 -29 -16 -40 -47 -40h-82c-29 0 -38 9 -33 40z" />
    <glyph glyph-name="J" unicode="J" horiz-adv-x="579" 
d="M474 710h83c29 0 37 -11 32 -40l-78 -446c-28 -159 -127 -239 -297 -239c-131 0 -206 54 -227 162c-5 29 2 43 33 52l74 25c31 9 40 4 47 -25c12 -44 42 -66 91 -66c67 0 107 36 120 107l75 430c7 31 18 40 47 40z" />
    <glyph glyph-name="K" unicode="K" horiz-adv-x="641" 
d="M499 287l85 -244c11 -24 0 -43 -29 -43h-80c-52 0 -66 6 -75 37l-60 190c-16 47 -32 60 -88 60h-26l-44 -246c-5 -31 -16 -41 -47 -41h-81c-31 0 -39 10 -34 41l111 628c7 31 17 41 48 41h81c31 0 38 -10 33 -41l-42 -236h16h11l219 243c13 15 25 24 35 28c9 4 26 6 50 6
h88c28 0 33 -19 14 -40l-261 -282c34 -19 59 -53 76 -101z" />
    <glyph glyph-name="L" unicode="L" horiz-adv-x="533" 
d="M179 710h81c31 0 38 -10 33 -41l-91 -520h258c31 0 38 -12 33 -41l-11 -67c-5 -31 -17 -41 -48 -41h-380c-31 0 -39 10 -34 41l111 628c7 31 17 41 48 41z" />
    <glyph glyph-name="M" unicode="M" horiz-adv-x="820" 
d="M721 710h72c31 0 39 -11 34 -40l-111 -630c-5 -29 -17 -40 -48 -40h-75c-31 0 -38 11 -33 40l40 227c10 61 34 136 72 225h-8c-31 -65 -69 -127 -113 -186l-92 -127c-16 -21 -27 -29 -51 -29h-41c-24 0 -32 6 -40 29l-50 127c-19 48 -33 110 -42 186h-8
c5 -88 2 -163 -9 -226l-40 -226c-5 -29 -17 -40 -48 -40h-76c-31 0 -39 9 -34 40l111 630c5 29 17 40 48 40h63c33 0 43 -6 52 -30l124 -339l244 338c19 27 27 31 59 31z" />
    <glyph glyph-name="N" unicode="N" horiz-adv-x="701" 
d="M596 710h77c31 0 39 -10 34 -41l-111 -628c-5 -31 -17 -41 -48 -41h-80c-17 0 -29 6 -35 19l-143 298c-25 53 -42 115 -50 187h-8c5 -75 2 -150 -11 -224l-42 -239c-5 -31 -17 -41 -48 -41h-77c-31 0 -39 10 -34 41l111 628c7 31 17 41 48 41h77c19 0 32 -6 39 -19
l146 -303c20 -42 35 -98 42 -128c4 -21 9 -50 9 -51h7c-9 70 -7 144 7 221l43 239c5 31 16 41 47 41z" />
    <glyph glyph-name="O" unicode="O" horiz-adv-x="675" 
d="M57 262l36 203c29 167 149 260 337 260c93 0 162 -25 206 -76c43 -51 58 -119 44 -204l-36 -203c-29 -167 -148 -257 -337 -257c-93 0 -162 25 -205 76c-44 50 -59 117 -45 201zM484 251l37 208c13 77 -28 117 -113 117c-89 0 -140 -39 -153 -117l-37 -208
c-13 -77 27 -117 112 -117c89 0 140 39 154 117z" />
    <glyph glyph-name="P" unicode="P" horiz-adv-x="640" 
d="M179 710h267c75 0 130 -23 167 -70c36 -47 47 -108 34 -183c-27 -148 -131 -226 -284 -226h-147l-34 -190c-5 -31 -16 -41 -47 -41h-81c-31 0 -39 10 -34 41l111 628c7 31 17 41 48 41zM242 380h130c59 0 100 33 109 90c11 57 -20 92 -77 92h-130z" />
    <glyph glyph-name="Q" unicode="Q" horiz-adv-x="691" 
d="M57 262l36 203c29 167 149 260 337 260c93 0 162 -25 206 -76c43 -51 58 -119 44 -204l-36 -203c-11 -63 -34 -114 -70 -155l41 -62c15 -23 12 -37 -15 -58l-61 -42c-23 -19 -42 -17 -56 5l-48 72c-35 -11 -77 -17 -128 -17c-93 0 -162 25 -205 76
c-44 50 -59 117 -45 201zM408 576c-89 0 -140 -39 -153 -117l-37 -208c-13 -77 27 -117 112 -117c89 0 140 39 154 117l37 208c13 77 -28 117 -113 117z" />
    <glyph glyph-name="R" unicode="R" horiz-adv-x="656" 
d="M179 710h277c145 0 221 -94 194 -239c-16 -95 -66 -160 -151 -196c6 -11 11 -22 15 -35l69 -197c9 -29 -1 -43 -30 -43h-80c-51 0 -68 8 -77 39l-46 154c-15 48 -26 59 -82 59h-48l-38 -211c-5 -31 -16 -41 -47 -41h-81c-31 0 -39 10 -34 41l111 628c7 31 17 41 48 41z
M450 420c17 14 27 34 32 60s1 46 -10 61c-12 14 -31 21 -58 21h-140l-28 -164h139c27 0 48 7 65 22z" />
    <glyph glyph-name="S" unicode="S" horiz-adv-x="634" 
d="M78 519c24 132 132 206 316 206c137 0 206 -56 238 -153c8 -27 2 -38 -29 -50l-77 -31c-28 -12 -37 -7 -48 20c-15 44 -50 66 -106 66c-80 0 -124 -23 -131 -69c-4 -25 7 -43 36 -54s54 -15 102 -20c115 -14 248 -66 217 -240c-25 -139 -134 -209 -326 -209
c-153 0 -240 54 -261 162c-5 28 4 41 35 52l78 26c29 11 40 5 48 -24c13 -46 52 -69 117 -69c88 0 137 26 146 79c8 45 -37 63 -122 72c-55 7 -93 13 -141 36c-25 11 -44 25 -58 41c-29 32 -46 88 -34 159z" />
    <glyph glyph-name="T" unicode="T" horiz-adv-x="581" 
d="M128 710h476c31 0 38 -10 33 -41l-11 -67c-7 -29 -19 -40 -48 -40h-157l-92 -521c-5 -31 -17 -41 -48 -41h-81c-29 0 -38 10 -33 41l92 521h-157c-31 0 -38 11 -33 40l11 67c5 31 17 41 48 41z" />
    <glyph glyph-name="U" unicode="U" horiz-adv-x="691" 
d="M305 669l-74 -423c-13 -72 24 -113 107 -113c85 0 133 38 146 113l75 423c7 31 17 41 48 41h81c31 0 38 -10 33 -41l-77 -434c-28 -163 -141 -250 -329 -250c-93 0 -160 26 -202 78c-43 51 -57 119 -42 202l72 404c5 31 17 41 48 41h81c31 0 38 -10 33 -41z" />
    <glyph glyph-name="V" unicode="V" horiz-adv-x="655" 
d="M622 710h77c27 0 34 -13 19 -40l-340 -636c-15 -27 -28 -34 -56 -34h-81c-29 0 -40 7 -44 32l-117 638c-5 27 7 40 34 40h75c47 0 60 -8 64 -37l51 -373c4 -32 6 -78 5 -102v-18h7c13 43 28 82 46 119l184 374c15 29 28 37 76 37z" />
    <glyph glyph-name="W" unicode="W" horiz-adv-x="915" 
d="M858 710h86c29 0 32 -12 20 -40l-265 -636c-12 -28 -27 -34 -56 -34h-87c-29 0 -42 7 -43 32l-25 323c-1 51 2 96 9 137h-9c-8 -43 -22 -89 -41 -137l-139 -321c-12 -28 -25 -34 -56 -34h-82c-29 0 -43 7 -44 32l-44 638c-3 29 5 40 34 40h92c35 0 47 -7 48 -36l6 -308
c1 -19 -1 -46 -4 -83s-6 -60 -8 -71h7c3 15 9 39 19 73s19 61 28 81l134 308c12 28 28 36 60 36h73c33 0 47 -8 48 -36l23 -308c2 -22 2 -50 1 -84c-2 -34 -4 -57 -7 -70h7c11 51 26 102 44 154l111 308c11 29 24 36 60 36z" />
    <glyph glyph-name="X" unicode="X" horiz-adv-x="650" 
d="M585 710h97c27 0 32 -19 13 -39l-257 -308l155 -322c13 -21 1 -41 -27 -41h-93c-51 0 -60 3 -73 36l-87 198l-148 -198c-13 -16 -24 -26 -33 -30c-10 -4 -27 -6 -52 -6h-95c-28 0 -32 18 -13 41l267 321l-146 309c-12 20 -2 39 26 39h89c48 0 58 -5 75 -34l79 -185
l143 185c13 15 24 25 33 29c9 3 24 5 47 5z" />
    <glyph glyph-name="Y" unicode="Y" horiz-adv-x="655" 
d="M613 710h89c29 0 33 -18 14 -41l-304 -393l-42 -235c-5 -31 -17 -41 -48 -41h-81c-31 0 -38 10 -33 41l41 237l-166 391c-11 23 -1 41 28 41h90c51 0 61 -3 73 -36l85 -233l169 233c11 17 22 27 32 31c10 3 28 5 53 5z" />
    <glyph glyph-name="Z" unicode="Z" horiz-adv-x="599" 
d="M153 710h445c31 0 39 -10 34 -41l-11 -58c-3 -16 -9 -30 -20 -41l-387 -421h290c31 0 41 -10 34 -41l-12 -67c-5 -31 -17 -41 -48 -41h-455c-31 0 -39 10 -34 41l11 58c3 15 9 28 20 41l387 422h-280c-31 0 -38 11 -33 40l11 67c7 31 17 41 48 41z" />
    <glyph glyph-name="bracketleft" unicode="[" horiz-adv-x="326" 
d="M197 856h175c31 0 35 -5 30 -36l-10 -56c-5 -31 -11 -36 -42 -36h-68l-132 -746h68c31 0 35 -4 30 -35l-10 -58c-7 -31 -12 -35 -43 -35h-175c-31 0 -37 7 -30 36l164 929c5 31 12 37 43 37z" />
    <glyph glyph-name="backslash" unicode="\" horiz-adv-x="460" 
d="M234 -26l-138 702c-5 24 2 34 29 34h74c28 0 39 -7 44 -34l138 -702c4 -25 -3 -34 -30 -34h-74c-27 0 -38 7 -43 34z" />
    <glyph glyph-name="bracketright" unicode="]" horiz-adv-x="327" 
d="M160 856h175c31 0 36 -6 31 -37l-164 -929c-7 -31 -13 -36 -44 -36h-175c-31 0 -36 4 -29 35l10 58c5 29 11 35 42 35h68l132 746h-69c-29 0 -34 5 -29 36l10 56c5 31 11 36 42 36z" />
    <glyph glyph-name="asciicircum" unicode="^" horiz-adv-x="599" 
d="M372 810h46c31 -4 31 -6 47 -33l142 -214c17 -29 8 -43 -28 -43h-73c-43 0 -49 4 -68 33l-68 114h-5l-110 -114c-14 -15 -25 -24 -34 -27c-9 -4 -24 -6 -46 -6h-67c-35 0 -41 16 -13 43l216 214c25 25 37 33 61 33z" />
    <glyph glyph-name="underscore" unicode="_" horiz-adv-x="496" 
d="M10 0h378c31 0 39 -10 34 -41l-11 -61c-5 -31 -17 -41 -48 -41h-378c-31 0 -39 10 -34 41l11 61c5 31 17 41 48 41z" />
    <glyph glyph-name="grave" unicode="`" horiz-adv-x="257" 
d="M90 688l45 43c19 18 41 19 66 2l126 -84c16 -11 14 -18 -5 -38l-24 -24c-9 -10 -25 -11 -46 -3l-164 64c-20 9 -19 19 2 40z" />
    <glyph glyph-name="a" unicode="a" horiz-adv-x="542" 
d="M36 207l22 126c25 140 110 202 269 202c81 0 142 -11 185 -33c29 -15 33 -23 26 -56l-69 -394c-5 -28 -15 -37 -44 -44c-62 -15 -130 -23 -205 -23c-144 0 -209 87 -184 222zM372 393c-18 5 -38 7 -59 7c-64 0 -96 -23 -107 -82l-22 -125c-8 -49 16 -73 72 -73
c27 0 52 2 75 7l46 258c1 4 0 7 -5 8z" />
    <glyph glyph-name="b" unicode="b" horiz-adv-x="544" 
d="M168 740h78c27 0 34 -9 29 -37l-31 -178c32 7 64 10 95 10c143 0 202 -82 178 -217l-23 -126c-23 -138 -113 -207 -269 -207c-77 0 -138 11 -185 33c-29 16 -33 24 -26 56l110 629c5 28 16 37 44 37zM346 203l21 126c9 52 -15 73 -71 73c-23 0 -48 -3 -75 -10l-46 -259
c0 -3 1 -4 2 -5c16 -5 37 -8 62 -8c61 0 97 28 107 83z" />
    <glyph glyph-name="c" unicode="c" horiz-adv-x="513" 
d="M35 205l22 127c24 135 113 203 268 203c115 0 179 -53 194 -133c4 -29 -4 -43 -32 -52l-60 -20c-31 -11 -41 -4 -48 25c-9 33 -34 50 -77 50c-54 0 -85 -25 -94 -76l-25 -139c-9 -50 13 -75 67 -75c40 0 71 17 92 51c16 28 29 33 56 24l63 -20c26 -10 31 -28 15 -53
c-51 -88 -134 -132 -248 -132c-153 0 -217 84 -193 220z" />
    <glyph glyph-name="d" unicode="d" horiz-adv-x="543" 
d="M37 206l22 127c25 139 107 202 252 202c29 0 59 -2 91 -6l31 174c5 28 16 37 44 37h78c27 0 34 -9 29 -37l-111 -629c-7 -33 -14 -42 -49 -55c-59 -23 -126 -34 -203 -34c-148 0 -209 86 -184 221zM333 132l45 262c-24 4 -46 6 -65 6c-63 0 -95 -23 -106 -82l-22 -125
c-8 -47 18 -73 71 -73c29 0 54 2 73 7c1 1 3 2 4 5z" />
    <glyph glyph-name="e" unicode="e" horiz-adv-x="536" 
d="M37 219l21 111c24 132 122 205 277 205c70 0 124 -17 162 -51c37 -35 51 -80 42 -137c-17 -95 -97 -142 -242 -142c-28 0 -65 3 -110 9l-4 -26c-10 -53 15 -79 75 -79c46 0 81 13 106 40c23 24 33 28 60 13l45 -27c23 -14 24 -34 5 -59c-47 -61 -127 -91 -238 -91
c-81 0 -138 22 -170 66s-42 100 -29 168zM392 361c5 35 -21 54 -77 54s-95 -31 -106 -80l-3 -13c43 -5 75 -8 97 -8c53 0 83 16 89 47z" />
    <glyph glyph-name="f" unicode="f" horiz-adv-x="378" 
d="M396 740h20c29 0 36 -9 31 -38l-10 -54c-5 -28 -17 -38 -45 -38c-68 0 -95 -27 -106 -87v-3h92c28 0 35 -9 30 -37l-10 -60c-5 -28 -16 -37 -43 -37h-92l-62 -349c-5 -28 -16 -37 -45 -37h-75c-29 0 -36 9 -31 37l62 349h-44c-27 0 -35 9 -30 37l10 60c5 28 16 37 44 37
h43v3c26 143 113 215 261 217z" />
    <glyph glyph-name="g" unicode="g" horiz-adv-x="544" 
d="M40 237l18 98c25 140 109 200 269 200c81 0 143 -11 184 -33c29 -15 34 -23 27 -56l-81 -461c-25 -144 -113 -216 -262 -216c-102 0 -168 32 -198 97c-12 25 -3 44 26 58l57 27c31 15 42 11 55 -13c14 -25 39 -38 76 -38c53 0 84 27 94 81l8 43c-32 -7 -62 -10 -90 -10
c-144 0 -207 88 -183 223zM373 393c-19 5 -39 7 -61 7c-60 0 -95 -27 -106 -82l-17 -96c-8 -49 16 -73 71 -73c26 0 51 2 76 7l40 231c1 3 0 5 -3 6z" />
    <glyph glyph-name="h" unicode="h" horiz-adv-x="557" 
d="M169 740h78c27 0 34 -9 29 -37l-30 -175h6c13 3 50 7 88 7c143 0 202 -81 178 -214l-49 -284c-5 -28 -16 -37 -44 -37h-78c-27 0 -35 9 -30 37l50 286c10 50 -14 75 -71 75c-28 0 -60 -4 -70 -7l-5 -1l-62 -353c-5 -28 -16 -37 -43 -37h-78c-28 0 -35 9 -30 37l117 666
c5 28 16 37 44 37z" />
    <glyph glyph-name="i" unicode="i" horiz-adv-x="252" 
d="M194 719h20c55 0 69 -18 58 -71l-1 -10c-11 -55 -31 -71 -84 -71h-21c-55 0 -67 18 -58 71l1 10c9 53 30 71 85 71zM130 520h78c27 0 34 -9 29 -37l-78 -446c-5 -28 -16 -37 -43 -37h-78c-28 0 -35 9 -30 37l78 446c5 28 16 37 44 37z" />
    <glyph glyph-name="j" unicode="j" horiz-adv-x="253" 
d="M193 719h21c55 0 67 -18 58 -71l-1 -10c-11 -55 -31 -71 -84 -71h-21c-55 0 -67 18 -58 71l1 10c11 55 31 71 84 71zM131 520h75c29 0 36 -9 31 -37l-86 -491c-27 -148 -120 -222 -281 -222c-29 0 -37 9 -32 38l11 62c5 28 16 37 45 37c61 0 96 31 107 92l85 484
c5 28 16 37 45 37z" />
    <glyph glyph-name="k" unicode="k" horiz-adv-x="535" 
d="M416 221l57 -176c11 -32 2 -45 -34 -45h-67c-43 0 -52 5 -60 34l-32 128c-7 27 -26 40 -57 40h-35l-29 -164c-5 -29 -16 -38 -45 -38h-75c-29 0 -36 9 -31 38l117 664c5 29 16 38 45 38h75c29 0 36 -9 31 -38l-65 -371h21h6l141 159c23 27 33 30 76 30h67
c37 0 43 -15 17 -44l-166 -184c17 -13 32 -37 43 -71z" />
    <glyph glyph-name="l" unicode="l" horiz-adv-x="256" 
d="M278 703l-117 -666c-5 -28 -16 -37 -44 -37h-77c-28 0 -35 9 -30 37l117 666c5 28 16 37 44 37h77c28 0 35 -9 30 -37z" />
    <glyph glyph-name="m" unicode="m" horiz-adv-x="825" 
d="M445 505c57 20 115 30 173 30c139 0 192 -80 169 -215l-50 -283c-5 -28 -16 -37 -44 -37h-77c-28 0 -35 9 -30 37l50 287c9 49 -11 74 -62 74c-23 0 -46 -3 -71 -10c1 -17 -1 -38 -5 -61l-51 -290c-5 -28 -16 -37 -43 -37h-78c-28 0 -35 9 -30 37l50 287
c9 53 -10 74 -62 74c-18 0 -38 -3 -61 -8c-2 0 -4 -2 -5 -6l-61 -347c-5 -28 -16 -37 -43 -37h-78c-28 0 -35 9 -30 37l71 404c7 33 15 45 50 58c63 24 130 36 201 36c51 0 90 -10 117 -30z" />
    <glyph glyph-name="n" unicode="n" 
d="M127 499c63 24 134 36 211 36c143 0 202 -81 178 -216l-49 -282c-5 -28 -16 -37 -44 -37h-78c-27 0 -35 9 -30 37l50 286c9 50 -14 75 -71 75c-26 0 -50 -3 -72 -9c-1 0 -3 -1 -4 -4l-61 -348c-5 -28 -16 -37 -43 -37h-78c-28 0 -35 9 -30 37l71 404c7 33 15 45 50 58z
" />
    <glyph glyph-name="o" unicode="o" horiz-adv-x="547" 
d="M35 200l22 129c24 132 119 206 274 206s226 -83 202 -218l-22 -129c-24 -132 -117 -203 -274 -203c-153 0 -226 82 -202 215zM360 194l24 132c8 50 -17 75 -75 75s-92 -25 -101 -75l-23 -132c-9 -50 15 -75 74 -75c58 0 92 25 101 75z" />
    <glyph glyph-name="p" unicode="p" horiz-adv-x="544" 
d="M128 504c58 21 128 31 209 31c145 0 204 -81 179 -216l-22 -127c-25 -138 -114 -207 -267 -207c-23 0 -49 3 -76 9l-32 -177c-5 -28 -16 -37 -44 -37h-77c-28 0 -35 9 -30 37l111 629c7 33 16 45 49 58zM345 202l22 125c9 47 -18 73 -71 73c-23 0 -46 -2 -71 -7
c-3 -1 -5 -3 -6 -7l-45 -260c24 -4 46 -6 65 -6c60 0 95 27 106 82z" />
    <glyph glyph-name="q" unicode="q" horiz-adv-x="545" 
d="M328 535c81 0 142 -11 185 -33c29 -15 33 -23 26 -56l-110 -629c-5 -28 -17 -37 -44 -37h-78c-27 0 -35 9 -30 37l32 178c-32 -7 -64 -10 -95 -10c-144 0 -203 81 -178 216l22 127c25 138 115 207 270 207zM207 318l-22 -125c-8 -47 17 -73 72 -73c25 0 50 2 75 7l45 258
c1 5 0 7 -4 8c-18 5 -38 7 -59 7c-61 0 -96 -27 -107 -82z" />
    <glyph glyph-name="r" unicode="r" horiz-adv-x="359" 
d="M326 535h33c28 0 35 -9 30 -37l-10 -62c-5 -27 -16 -36 -43 -36h-37c-27 0 -52 -2 -73 -7c-3 -1 -5 -3 -6 -7l-62 -349c-5 -28 -16 -37 -43 -37h-78c-28 0 -35 9 -30 37l72 409c7 33 15 45 50 58c48 18 114 28 197 31z" />
    <glyph glyph-name="s" unicode="s" horiz-adv-x="508" 
d="M51 377c19 101 101 158 242 158c107 0 173 -36 200 -107c9 -27 2 -41 -27 -53l-59 -23c-31 -11 -35 -8 -48 16c-14 24 -42 36 -83 36c-49 0 -76 -12 -81 -36c-5 -29 17 -38 89 -45c136 -15 201 -61 181 -173c-19 -104 -109 -165 -253 -165c-122 0 -192 40 -210 119
c-5 25 6 41 33 50l64 20c29 8 35 4 46 -21s39 -38 84 -38c57 0 88 14 94 41c5 32 -17 40 -98 48c-56 5 -97 18 -133 43s-52 70 -41 130z" />
    <glyph glyph-name="t" unicode="t" horiz-adv-x="398" 
d="M198 640h78c27 0 35 -9 30 -37l-14 -83h92c27 0 34 -9 29 -37l-10 -60c-5 -28 -15 -37 -43 -37h-92l-30 -168c-12 -76 6 -93 75 -93c28 0 36 -9 31 -38l-11 -63c-5 -28 -16 -37 -44 -38c-87 -3 -147 13 -178 46c-32 33 -40 93 -25 180l31 174h-54c-27 0 -35 9 -30 37
l10 60c5 28 16 37 44 37h54l14 83c5 28 16 37 43 37z" />
    <glyph glyph-name="u" unicode="u" 
d="M449 520h77c28 0 35 -9 30 -37l-71 -404c-7 -33 -15 -45 -50 -58c-62 -24 -132 -36 -210 -36c-144 0 -202 82 -178 217l49 281c5 28 16 37 44 37h77c28 0 35 -9 30 -37l-50 -286c-9 -52 13 -75 72 -75c23 0 45 2 66 7c6 2 9 6 10 11l60 343c5 28 16 37 44 37z" />
    <glyph glyph-name="v" unicode="v" horiz-adv-x="527" 
d="M462 520h66c36 0 41 -10 22 -43l-251 -444c-15 -25 -27 -33 -55 -33h-60c-28 0 -40 8 -45 33l-92 444c-5 33 3 43 39 43h58c43 0 54 -8 57 -37l35 -195c5 -31 5 -76 4 -100l-1 -18h7c12 43 27 83 45 118l101 194c16 32 27 38 70 38z" />
    <glyph glyph-name="w" unicode="w" horiz-adv-x="746" 
d="M681 520h58c35 0 39 -10 23 -43l-198 -444c-9 -22 -28 -33 -56 -33h-63c-27 0 -42 11 -45 33l-17 199c-3 39 0 77 1 102l2 18h-5c-11 -43 -25 -83 -40 -120l-88 -199c-10 -22 -29 -33 -56 -33h-54c-29 0 -44 8 -45 33l-46 444c-5 33 3 43 38 43h57c45 0 58 -6 58 -37
l6 -172c1 -28 -3 -82 -7 -114l-2 -24h6c14 58 28 104 43 138l77 171c15 32 24 38 68 38h36c44 0 51 -6 54 -37l18 -172c3 -40 1 -83 -2 -115l-3 -23h6c10 51 23 97 38 138l66 171c13 32 27 38 72 38z" />
    <glyph glyph-name="x" unicode="x" horiz-adv-x="526" 
d="M436 520h78c36 0 42 -15 18 -44l-178 -208l111 -224c16 -29 6 -44 -35 -44h-62c-41 0 -48 3 -61 32l-59 131l-101 -131c-21 -28 -33 -32 -73 -32h-75c-44 0 -47 15 -19 44l188 222l-106 210c-13 29 -1 44 36 44h60c41 0 50 -5 62 -32l54 -115l92 115c23 28 31 32 70 32z
" />
    <glyph glyph-name="y" unicode="y" horiz-adv-x="557" 
d="M449 520h78c27 0 34 -9 29 -37l-86 -493c-26 -147 -115 -220 -267 -220c-100 0 -164 32 -193 96c-13 25 -4 44 25 58l57 27c32 15 43 11 56 -13c14 -25 39 -38 75 -38c53 0 84 27 94 81l7 41c-25 -5 -57 -7 -94 -7c-144 0 -201 83 -177 219l43 249c5 28 16 37 44 37h77
c28 0 35 -9 30 -37l-45 -256c-9 -50 16 -75 73 -75c23 0 47 2 73 7l57 324c5 28 16 37 44 37z" />
    <glyph glyph-name="z" unicode="z" horiz-adv-x="481" 
d="M192 134h199c28 0 35 -10 30 -37l-10 -60c-5 -28 -16 -37 -44 -37h-352c-27 0 -34 9 -29 37l9 59c3 15 10 27 20 37l257 253h-184c-27 0 -34 10 -29 37l10 60c5 28 16 37 43 37h342c28 0 35 -9 30 -37l-10 -59c-2 -13 -9 -27 -22 -40z" />
    <glyph glyph-name="braceleft" unicode="{" horiz-adv-x="377" 
d="M358 856h66c28 0 36 -9 31 -37l-11 -61c-5 -27 -16 -36 -44 -36h-48c-13 0 -21 -7 -24 -21l-39 -219c-10 -57 -42 -101 -96 -130c46 -21 63 -64 50 -131l-38 -213c-1 -12 6 -21 18 -21h48c28 0 35 -9 31 -36l-11 -61c-5 -28 -16 -37 -44 -37h-64c-109 0 -141 40 -124 137
l37 206c9 53 -7 80 -46 80h-6c-21 0 -29 12 -24 37l13 77c5 25 17 37 36 37h7c40 0 65 27 74 80l38 211c17 97 65 138 170 138z" />
    <glyph glyph-name="bar" unicode="|" horiz-adv-x="260" 
d="M196 856h71c28 0 36 -9 31 -37l-164 -929c-5 -28 -16 -37 -44 -37h-71c-28 0 -35 9 -30 37l164 929c5 28 15 37 43 37z" />
    <glyph glyph-name="braceright" unicode="}" horiz-adv-x="376" 
d="M158 856h67c107 0 138 -41 121 -138l-37 -211c-9 -53 6 -80 46 -80h7c19 0 27 -12 23 -37l-14 -77c-4 -25 -16 -37 -36 -37h-6c-40 0 -65 -27 -75 -80l-36 -206c-17 -97 -63 -137 -172 -137h-65c-27 0 -34 9 -29 37l11 61c4 27 15 36 42 36h49c11 0 23 10 24 21l37 213
c13 67 45 111 97 131c-43 30 -60 73 -50 130l39 219c1 11 -7 21 -18 21h-49c-27 0 -34 9 -29 36l11 61c5 28 15 37 42 37z" />
    <glyph glyph-name="asciitilde" unicode="~" horiz-adv-x="557" 
d="M96 360c41 33 86 49 135 49c29 0 58 -5 87 -16s51 -17 66 -17c20 0 39 7 57 20c27 19 36 18 53 -2l38 -43c17 -19 13 -38 -11 -57c-43 -33 -88 -49 -136 -49c-28 0 -57 6 -86 17s-51 16 -66 16c-19 0 -38 -6 -57 -19c-28 -20 -36 -18 -52 2l-38 42c-17 20 -14 39 10 57z
" />
    <glyph glyph-name="exclamdown" unicode="&#xa1;" horiz-adv-x="256" 
d="M153 360h-21c-57 0 -71 18 -62 75l3 18c9 57 32 75 89 75h20c57 0 74 -18 63 -75l-4 -18c-9 -57 -31 -75 -88 -75zM80 -220h-82c-27 0 -34 9 -29 37l94 444c7 28 15 36 43 36h50c28 0 34 -8 30 -36l-62 -444c-4 -28 -16 -37 -44 -37z" />
    <glyph glyph-name="cent" unicode="&#xa2;" horiz-adv-x="536" 
d="M407 190l63 -20c25 -9 30 -27 15 -53c-38 -65 -95 -107 -171 -124l-7 -40c-5 -28 -16 -37 -44 -37h-72c-28 0 -35 9 -30 37l6 38c-105 19 -145 99 -124 215l22 126c21 113 82 173 197 196l8 45c5 28 16 37 44 37h72c28 0 35 -9 30 -37l-8 -45c67 -16 107 -59 119 -129
c4 -29 -3 -40 -32 -51l-63 -19c-31 -11 -41 -4 -48 25c-9 34 -33 51 -73 51c-55 0 -87 -25 -95 -75l-25 -140c-8 -50 15 -75 68 -75c41 0 71 17 91 51c16 28 30 33 57 24z" />
    <glyph glyph-name="sterling" unicode="&#xa3;" horiz-adv-x="653" 
d="M137 400l20 117c11 61 41 111 91 150c49 39 112 58 188 58c127 0 203 -53 227 -158c5 -29 -1 -43 -32 -52l-74 -26c-31 -9 -36 -5 -47 26c-16 43 -41 61 -92 61c-49 0 -88 -34 -96 -79l-17 -97h192c31 0 38 -11 33 -40l-8 -52c-7 -31 -18 -40 -49 -40h-193l-6 -35
c-7 -41 -29 -74 -65 -97v-6c52 11 107 17 164 17h177c31 0 41 -10 34 -41l-12 -65c-5 -31 -16 -41 -47 -41h-495c-29 0 -37 10 -32 41l13 66c3 22 12 33 27 34h3c37 12 54 40 65 89l6 38h-32c-31 0 -40 9 -33 40l9 52c5 31 17 40 48 40h33z" />
    <glyph glyph-name="currency" unicode="&#xa4;" horiz-adv-x="626" 
d="M212 593l42 -49c33 16 69 24 107 24c35 0 68 -8 97 -24l56 49c23 19 36 19 52 0l45 -53c15 -17 12 -35 -9 -52l-56 -48c11 -32 14 -66 8 -103c-6 -35 -20 -70 -41 -103l40 -48c15 -17 12 -35 -8 -52l-62 -53c-23 -19 -36 -19 -52 0l-41 49c-33 -16 -68 -24 -104 -24
c-38 0 -71 8 -99 24l-58 -49c-23 -19 -36 -19 -52 0l-44 53c-17 19 -15 33 8 52l58 50c-11 31 -13 65 -7 101c6 38 19 72 40 101l-42 50c-15 17 -12 35 9 52l61 53c23 19 36 19 52 0zM380 268c73 55 45 173 -40 167c-55 0 -105 -43 -116 -98c-20 -85 88 -132 156 -69z" />
    <glyph glyph-name="yen" unicode="&#xa5;" horiz-adv-x="681" 
d="M619 710h83c29 0 33 -18 14 -41l-226 -285h57c27 0 34 -9 29 -36l-6 -39c-5 -25 -15 -35 -42 -35h-111l-7 -43h110c27 0 34 -8 30 -35l-8 -39c-4 -27 -15 -36 -42 -36h-108l-14 -80c-5 -31 -17 -41 -48 -41h-81c-31 0 -38 10 -33 41l14 80h-109c-27 0 -34 9 -29 36l7 39
c3 23 17 35 42 35h110l7 43h-109c-27 0 -35 10 -30 35l7 39c5 27 15 36 42 36h57l-125 285c-11 23 -2 41 27 41h81c52 0 62 -3 74 -36l85 -233l167 233c11 17 22 27 32 31c9 3 27 5 53 5z" />
    <glyph glyph-name="brokenbar" unicode="&#xa6;" horiz-adv-x="267" 
d="M199 856h72c27 0 35 -9 30 -37l-63 -357c-5 -27 -16 -36 -43 -36h-72c-27 0 -34 9 -30 36l63 357c5 28 16 37 43 37zM98 284h72c27 0 35 -9 30 -36l-63 -357c-5 -28 -16 -37 -43 -37h-72c-27 0 -35 9 -30 37l63 357c5 27 15 36 43 36z" />
    <glyph glyph-name="section" unicode="&#xa7;" horiz-adv-x="615" 
d="M104 525c23 124 124 200 292 200c119 0 177 -56 208 -145c9 -31 2 -43 -29 -55l-63 -25c-28 -13 -43 -8 -52 21c-13 39 -43 58 -90 58c-62 0 -97 -21 -105 -63c-5 -35 26 -47 94 -59c67 -11 112 -22 135 -33c64 -29 89 -83 76 -161c-10 -53 -37 -96 -80 -129
c37 -31 49 -83 36 -154c-23 -124 -124 -198 -295 -198c-135 0 -226 55 -245 151c-5 27 8 45 37 55l69 24c33 11 44 5 51 -27c9 -40 43 -60 103 -60c71 0 110 22 117 65c7 33 -26 46 -91 54c-70 9 -115 17 -136 24c-81 26 -114 81 -99 166c11 61 45 108 101 141
c-35 31 -47 81 -34 150zM302 314c-11 3 -34 7 -43 8c-30 -17 -47 -40 -52 -69c-8 -49 29 -60 109 -68c9 -1 23 -3 42 -4c26 17 42 39 47 68c7 40 -28 53 -103 65z" />
    <glyph glyph-name="dieresis" unicode="&#xa8;" horiz-adv-x="439" 
d="M199 723h7c49 0 62 -16 53 -64l-2 -11c-8 -47 -26 -63 -75 -63h-8c-48 0 -61 16 -52 63l2 11c8 48 26 64 75 64zM406 723h7c48 0 60 -16 52 -64l-2 -11c-9 -48 -27 -63 -75 -63h-7c-49 0 -62 16 -54 63l2 11c9 48 28 64 77 64z" />
    <glyph glyph-name="copyright" unicode="&#xa9;" horiz-adv-x="789" 
d="M70 351c17 100 67 185 148 255c81 69 172 104 273 104c100 0 179 -35 237 -104c57 -70 77 -155 60 -255c-17 -101 -65 -186 -146 -255s-172 -104 -272 -104c-101 0 -180 35 -238 105s-79 155 -62 254zM705 351c13 78 -2 143 -45 196s-104 79 -181 79
c-78 0 -148 -26 -210 -79c-63 -53 -101 -118 -115 -196c-14 -77 1 -143 45 -196c43 -53 104 -80 183 -80c77 0 147 27 210 80c62 53 100 119 113 196zM269 299l17 102c16 87 80 140 177 140c75 0 117 -30 128 -91c4 -23 -2 -32 -25 -39l-37 -13c-23 -7 -30 -3 -33 20
c-5 21 -19 29 -50 29c-36 0 -57 -15 -63 -46l-18 -103c-5 -31 10 -47 47 -47c27 0 47 10 58 30c15 23 22 27 42 20l33 -14c20 -8 23 -16 12 -39c-35 -59 -88 -89 -161 -89c-96 0 -143 55 -127 140z" />
    <glyph glyph-name="ordfeminine" unicode="&#xaa;" horiz-adv-x="353" 
d="M114 618c33 35 78 53 135 53c88 0 125 -42 110 -125l-22 -129c-5 -28 -13 -37 -41 -48c-25 -10 -60 -15 -105 -15c-99 0 -128 40 -116 100c13 64 49 91 152 91c9 0 17 0 22 -1l2 13c4 19 -2 25 -21 25c-11 0 -24 -6 -39 -17c-13 -10 -27 -12 -40 -6l-28 15
c-24 14 -27 24 -9 44zM230 438l6 32c-7 1 -17 1 -28 1c-16 0 -25 -6 -27 -18c-3 -15 2 -19 21 -19l26 2c1 0 2 1 2 2z" />
    <glyph glyph-name="guillemotleft" unicode="&#xab;" horiz-adv-x="608" 
d="M449 262l97 -117c12 -15 9 -30 -8 -46l-51 -44c-19 -15 -34 -15 -46 0l-153 184c-15 17 -12 29 9 46l218 188c19 15 34 15 46 0l37 -46c12 -15 9 -30 -8 -45zM203 262l96 -117c13 -15 10 -30 -8 -46l-51 -44c-17 -15 -33 -15 -46 0l-153 184c-11 16 -9 31 8 46l219 188
c18 16 33 16 46 0l37 -46c13 -15 10 -30 -8 -45z" />
    <glyph glyph-name="logicalnot" unicode="&#xac;" horiz-adv-x="590" 
d="M103 421h420c28 0 36 -9 31 -36l-38 -213c-5 -28 -15 -37 -42 -37h-77c-28 0 -36 9 -31 37l20 111h-307c-27 0 -35 9 -30 37l11 65c5 27 15 36 43 36z" />
    <glyph glyph-name="registered" unicode="&#xae;" horiz-adv-x="460" 
d="M120 378c-33 38 -44 84 -35 138s37 100 82 139c45 38 95 57 149 57c53 0 96 -19 128 -58c31 -39 42 -85 33 -138c-9 -54 -36 -100 -81 -138c-45 -39 -94 -58 -147 -58c-54 0 -97 19 -129 58zM138 516c-7 -40 1 -74 24 -102c23 -29 55 -43 96 -43c39 0 75 14 108 43
c33 28 53 62 60 102s-1 74 -24 102s-54 42 -93 42c-41 0 -78 -14 -111 -42s-53 -62 -60 -102zM238 611h74c43 0 70 -26 62 -66c-5 -29 -20 -48 -46 -59l21 -43c7 -15 2 -22 -16 -22h-21c-11 0 -18 4 -21 12l-19 47h-18l-8 -46c-2 -9 -7 -13 -16 -13h-26c-9 0 -13 4 -11 13
l28 163c3 11 5 14 17 14zM268 561l-6 -34h36c11 0 18 6 20 18c3 9 -5 16 -14 16h-36z" />
    <glyph glyph-name="overscore" unicode="&#xaf;" horiz-adv-x="352" 
d="M142 706h234c28 0 34 -7 29 -34l-6 -33c-4 -28 -13 -35 -41 -35h-234c-27 0 -32 7 -28 35l5 33c5 27 16 34 41 34z" />
    <glyph glyph-name="degree" unicode="&#xb0;" horiz-adv-x="405" 
d="M433 555c-7 -48 -31 -89 -70 -123c-39 -35 -83 -52 -131 -52c-49 0 -88 17 -117 51s-39 75 -32 124s29 91 68 124s83 50 132 50s88 -17 117 -50s40 -75 33 -124zM198 554c-7 -32 16 -60 49 -60s65 28 72 60c5 32 -18 62 -50 62c-33 0 -66 -30 -71 -62z" />
    <glyph glyph-name="plusminus" unicode="&#xb1;" horiz-adv-x="578" 
d="M389 468h133c31 0 38 -10 33 -41l-8 -47c-7 -31 -18 -41 -47 -41h-133l-12 -61c-5 -31 -16 -41 -47 -41h-54c-31 0 -39 10 -34 41l12 61h-132c-31 0 -38 10 -33 41l8 47c5 31 17 41 48 41h131l12 65c5 31 17 41 48 41h53c31 0 39 -10 34 -41zM78 213h399
c31 0 39 -10 34 -41l-9 -49c-7 -31 -17 -41 -48 -41h-399c-31 0 -38 10 -33 41l8 49c5 31 17 41 48 41z" />
    <glyph glyph-name="twosuperior" unicode="&#xb2;" horiz-adv-x="367" 
d="M112 722c36 63 93 94 171 94c91 0 137 -58 126 -131c-12 -72 -45 -113 -128 -137l-52 -13c-19 -5 -29 -9 -30 -12l-1 -2h140c25 0 33 -11 28 -35l-6 -39c-4 -24 -15 -34 -40 -34h-231c-25 0 -34 9 -30 34l6 29c13 76 39 110 112 135l57 20c33 13 44 21 49 46
c3 16 -6 27 -23 27c-19 0 -33 -8 -43 -23c-19 -29 -26 -34 -55 -25l-35 14c-25 11 -30 23 -15 52z" />
    <glyph glyph-name="threesuperior" unicode="&#xb3;" horiz-adv-x="372" 
d="M110 724c35 62 93 93 174 93c91 0 138 -46 127 -118c-5 -37 -19 -58 -54 -78c31 -21 43 -56 34 -103c-13 -75 -72 -112 -175 -112c-87 0 -135 31 -145 94c-5 25 4 42 27 49l38 12c29 11 40 5 47 -23c5 -18 21 -27 49 -27c25 0 39 8 42 24c4 17 -5 26 -26 26h-29
c-28 0 -32 5 -27 33l7 36c5 31 10 35 41 35h20c21 0 33 8 36 25s-7 25 -28 25c-29 0 -49 -9 -60 -26c-19 -31 -28 -35 -60 -23l-24 11c-23 9 -27 18 -14 47z" />
    <glyph glyph-name="acute" unicode="&#xb4;" horiz-adv-x="257" 
d="M86 649l154 84c32 16 54 15 66 -2l29 -43c15 -21 13 -31 -12 -40l-186 -64c-24 -8 -39 -7 -45 3l-15 24c-12 19 -11 29 9 38z" />
    <glyph glyph-name="mu" unicode="&#xb5;" horiz-adv-x="565" 
d="M442 520h78c27 0 34 -9 29 -37l-70 -404c-5 -29 -16 -42 -47 -57c-55 -25 -110 -37 -166 -37c-47 0 -82 10 -107 31l-36 -199c-5 -28 -16 -37 -43 -37h-78c-28 0 -35 9 -30 37l117 666c5 28 16 37 44 37h78c27 0 34 -9 29 -37l-50 -286c-9 -50 15 -75 72 -75
c21 0 44 3 67 8c5 1 8 4 9 9l60 344c5 28 16 37 44 37z" />
    <glyph glyph-name="paragraph" unicode="&#xb6;" horiz-adv-x="651" 
d="M356 710h287c28 0 35 -9 30 -37l-127 -725c-5 -28 -16 -37 -44 -37h-64c-28 0 -35 9 -30 37l108 614h-56l-108 -614c-5 -28 -16 -37 -44 -37h-64c-27 0 -34 9 -29 37l49 280c-69 2 -120 27 -155 74s-46 105 -33 176s45 128 96 170c51 41 112 62 184 62z" />
    <glyph glyph-name="middot" unicode="&#xb7;" horiz-adv-x="273" 
d="M148 380h17c57 0 71 -17 62 -76l-4 -19c-11 -57 -31 -75 -88 -75h-17c-57 0 -72 18 -63 75l4 19c9 57 32 76 89 76z" />
    <glyph glyph-name="cedilla" unicode="&#xb8;" horiz-adv-x="251" 
d="M134 0l-32 -57h6c61 0 86 -43 70 -98c-19 -67 -83 -94 -158 -94c-28 0 -51 5 -70 15c-13 6 -19 16 -16 31l6 37c3 17 11 22 24 15c18 -10 36 -15 53 -15c27 0 43 9 47 26c3 16 -9 24 -38 24h-20c-18 0 -22 9 -11 28l55 88h84z" />
    <glyph glyph-name="onesuperior" unicode="&#xb9;" horiz-adv-x="286" 
d="M278 810h21c32 0 43 -12 38 -43l-55 -312c-5 -29 -17 -40 -48 -40h-40c-31 0 -38 9 -33 40l36 205l-35 -17c-26 -13 -44 -9 -54 14l-14 30c-9 23 0 41 27 55l108 56c14 8 30 12 49 12z" />
    <glyph glyph-name="ordmasculine" unicode="&#xba;" horiz-adv-x="357" 
d="M81 485l12 67c13 77 69 119 160 119s133 -52 118 -131l-12 -67c-13 -79 -67 -118 -161 -118c-89 0 -132 51 -117 130zM247 476l13 74c3 13 -5 22 -24 22s-29 -7 -31 -22l-13 -74c-3 -13 6 -22 23 -22c18 0 29 7 32 22z" />
    <glyph glyph-name="guillemotright" unicode="&#xbb;" horiz-adv-x="611" 
d="M184 265l-99 121c-15 17 -13 27 8 44l52 46c18 15 33 15 46 0l156 -191c15 -17 12 -29 -9 -46l-216 -183c-18 -15 -33 -15 -45 0l-40 47c-13 15 -10 30 8 45zM430 265l-98 121c-15 17 -13 28 8 44l55 43c21 16 30 16 45 0l154 -188c12 -15 9 -30 -8 -46l-214 -181
c-17 -15 -32 -15 -46 0l-42 45c-14 15 -11 30 8 45z" />
    <glyph glyph-name="onequarter" unicode="&#xbc;" horiz-adv-x="881" 
d="M278 715h21c33 0 44 -11 39 -43l-56 -312c-5 -29 -16 -40 -47 -40h-40c-31 0 -39 9 -34 40l37 206l-35 -18c-27 -14 -45 -9 -55 14l-13 31c-9 22 0 40 27 54l108 57c13 7 29 11 48 11zM708 710h57c27 0 35 -18 20 -39l-467 -635c-12 -16 -22 -26 -31 -30s-25 -6 -49 -6
h-52c-29 0 -37 18 -21 41l469 635c21 29 30 34 74 34zM795 172h10c29 0 33 -6 29 -31l-7 -37c-5 -25 -11 -31 -39 -31h-11l-6 -39c-5 -27 -13 -34 -38 -34h-51c-25 0 -30 7 -25 34l7 39h-160c-28 0 -33 7 -28 35l4 29c3 16 10 29 19 38l196 199c19 17 27 21 54 21h50
c29 0 34 -5 29 -36zM682 172l14 79l-78 -79h64z" />
    <glyph glyph-name="onehalf" unicode="&#xbd;" horiz-adv-x="901" 
d="M278 715h21c33 0 44 -11 39 -43l-56 -312c-5 -29 -16 -40 -47 -40h-40c-31 0 -39 9 -34 40l37 206l-35 -18c-27 -14 -45 -9 -55 14l-13 31c-9 22 0 40 27 54l108 57c13 7 29 11 48 11zM696 710h58c27 0 34 -18 19 -39l-467 -635c-12 -16 -22 -26 -31 -30s-25 -6 -49 -6
h-52c-28 0 -36 18 -20 41l468 635c21 29 30 34 74 34zM576 309c36 63 93 94 171 94c91 0 137 -58 126 -131c-12 -72 -46 -113 -127 -137l-53 -13c-19 -5 -29 -9 -30 -13v-1h139c25 0 33 -11 28 -35l-6 -39c-4 -24 -15 -34 -40 -34h-231c-25 0 -34 9 -30 34l6 29
c13 75 39 108 112 135l57 20c33 12 44 21 49 46c3 16 -6 27 -23 27c-19 0 -33 -8 -43 -23c-19 -29 -26 -34 -55 -25l-35 14c-25 11 -30 23 -15 52z" />
    <glyph glyph-name="threequarters" unicode="&#xbe;" horiz-adv-x="908" 
d="M99 631c35 62 93 93 174 93c91 0 138 -46 127 -118c-5 -37 -19 -58 -54 -78c31 -21 43 -56 34 -103c-13 -75 -72 -112 -175 -112c-87 0 -135 31 -145 94c-5 25 4 41 27 48l38 13c29 9 40 5 47 -23c5 -19 21 -28 49 -28c25 0 39 8 42 24c4 18 -5 27 -26 27h-29
c-28 0 -32 5 -27 33l7 35c5 32 10 36 41 36h20c21 0 33 8 36 25s-7 25 -28 25c-29 0 -49 -9 -60 -26c-19 -31 -28 -35 -60 -23l-24 11c-23 9 -27 19 -14 47zM736 710h57c27 0 35 -18 20 -39l-467 -635c-12 -16 -22 -26 -31 -30s-25 -6 -49 -6h-52c-28 0 -36 18 -20 41
l468 635c21 29 30 34 74 34zM820 171h11c28 0 32 -6 28 -31l-6 -37c-5 -25 -11 -31 -40 -31h-10l-7 -39c-5 -27 -13 -34 -38 -34h-50c-25 0 -30 7 -25 34l6 39h-160c-27 0 -33 8 -28 35l4 29c4 16 11 29 20 38l196 199c17 17 26 21 53 21h50c31 0 35 -5 30 -36zM707 171
l14 79l-78 -79h64z" />
    <glyph glyph-name="questiondown" unicode="&#xbf;" horiz-adv-x="575" 
d="M350 359h-21c-57 0 -71 18 -62 75l3 17c11 57 32 76 89 76h20c57 0 73 -19 62 -76l-3 -17c-9 -57 -31 -75 -88 -75zM500 -60c-61 -105 -145 -160 -286 -160c-79 0 -138 20 -179 61c-42 41 -57 91 -46 151c8 85 71 143 112 169c12 8 30 18 53 29s38 19 45 23
c35 19 55 41 59 64c5 29 17 39 45 39h60c28 0 36 -10 31 -39c-15 -84 -54 -126 -117 -161c-6 -4 -48 -26 -56 -31c-5 -3 -13 -9 -23 -16c-29 -20 -40 -39 -49 -76c-8 -47 19 -77 82 -77c65 0 103 23 138 79c19 31 31 37 56 25l59 -28c27 -12 31 -23 16 -52z" />
    <glyph glyph-name="Agrave" unicode="&#xc0;" horiz-adv-x="670" 
d="M339 863l44 44c18 18 40 19 67 2l126 -83c16 -11 15 -18 -4 -38l-24 -25c-9 -9 -25 -10 -46 -2l-165 62c-20 9 -19 19 2 40zM513 678l126 -638c5 -27 -7 -40 -34 -40h-70c-51 0 -64 8 -68 37l-14 94h-248l-48 -94c-15 -29 -30 -37 -79 -37h-74c-28 0 -35 13 -20 40
l352 636c13 27 26 34 55 34h77c29 0 40 -7 45 -32zM434 263l-25 155c-5 43 -5 97 -2 124l2 19h-8c-9 -47 -25 -95 -49 -142l-80 -156h162z" />
    <glyph glyph-name="Aacute" unicode="&#xc1;" horiz-adv-x="670" 
d="M329 826l156 83c31 16 53 15 66 -3l28 -43c13 -21 13 -32 -12 -40l-186 -62c-25 -8 -40 -7 -46 2l-14 25c-13 19 -11 27 8 38zM513 678l126 -638c5 -27 -7 -40 -34 -40h-70c-51 0 -64 8 -68 37l-14 94h-248l-48 -94c-15 -29 -30 -37 -79 -37h-74c-28 0 -35 13 -20 40
l352 636c13 27 26 34 55 34h77c29 0 40 -7 45 -32zM434 263l-25 155c-5 43 -5 97 -2 124l2 19h-8c-9 -47 -25 -95 -49 -142l-80 -156h162z" />
    <glyph glyph-name="Acircumflex" unicode="&#xc2;" horiz-adv-x="670" 
d="M460 914h20c31 0 39 -2 60 -30l79 -97c13 -15 7 -30 -21 -30h-59c-33 0 -44 3 -56 20l-30 44l-49 -44c-20 -19 -28 -20 -61 -20h-61c-29 0 -31 15 -11 30l112 97c17 14 29 23 38 26c8 3 21 4 39 4zM513 678l126 -638c5 -27 -7 -40 -34 -40h-70c-51 0 -64 8 -68 37l-14 94
h-248l-48 -94c-15 -29 -30 -37 -79 -37h-74c-28 0 -35 13 -20 40l352 636c13 27 26 34 55 34h77c29 0 40 -7 45 -32zM434 263l-25 155c-5 43 -5 97 -2 124l2 19h-8c-9 -47 -25 -95 -49 -142l-80 -156h162z" />
    <glyph glyph-name="Atilde" unicode="&#xc3;" horiz-adv-x="670" 
d="M552 904h44c15 0 21 -8 18 -23c-15 -87 -47 -118 -110 -118c-57 0 -89 50 -117 50c-10 0 -17 -10 -21 -29c-3 -14 -11 -21 -24 -21h-45c-15 0 -22 7 -19 22c16 87 50 119 109 119c26 0 50 -8 73 -25c22 -17 38 -25 47 -25c11 0 18 9 21 28c3 15 11 22 24 22zM513 678
l126 -638c5 -27 -7 -40 -34 -40h-70c-51 0 -64 8 -68 37l-14 94h-248l-48 -94c-15 -29 -30 -37 -79 -37h-74c-28 0 -35 13 -20 40l352 636c13 27 26 34 55 34h77c29 0 40 -7 45 -32zM434 263l-25 155c-5 43 -5 97 -2 124l2 19h-8c-9 -47 -25 -95 -49 -142l-80 -156h162z" />
    <glyph glyph-name="Adieresis" unicode="&#xc4;" horiz-adv-x="670" 
d="M356 902h8c48 0 62 -15 54 -63l-2 -11c-9 -48 -29 -64 -77 -64h-7c-48 0 -60 16 -52 64l2 11c9 48 26 63 74 63zM563 902h7c49 0 62 -15 53 -63l-2 -11c-8 -48 -27 -64 -75 -64h-7c-49 0 -62 17 -53 64l2 11c8 48 26 63 75 63zM513 678l126 -638c5 -27 -7 -40 -34 -40
h-70c-51 0 -64 8 -68 37l-14 94h-248l-48 -94c-15 -29 -30 -37 -79 -37h-74c-28 0 -35 13 -20 40l352 636c13 27 26 34 55 34h77c29 0 40 -7 45 -32zM434 263l-25 155c-5 43 -5 97 -2 124l2 19h-8c-9 -47 -25 -95 -49 -142l-80 -156h162z" />
    <glyph glyph-name="Aring" unicode="&#xc5;" horiz-adv-x="671" 
d="M295 757c13 80 83 135 167 135c81 0 129 -55 116 -135c-7 -42 -27 -76 -62 -101l123 -616c5 -27 -7 -40 -34 -40h-70c-51 0 -64 8 -68 37l-14 94h-248l-48 -94c-15 -29 -30 -37 -79 -37h-74c-28 0 -35 13 -20 40l340 615c-26 26 -36 60 -29 102zM468 721
c35 28 25 91 -21 87c-31 0 -56 -20 -61 -51c-5 -29 12 -50 43 -50c15 0 28 5 39 14zM434 263l-25 155c-5 43 -5 97 -2 124l2 19h-8c-9 -47 -25 -95 -49 -142l-80 -156h162z" />
    <glyph glyph-name="AE" unicode="&#xc6;" horiz-adv-x="880" 
d="M582 149h228c31 0 38 -12 33 -41l-11 -67c-5 -31 -17 -41 -48 -41h-337c-31 0 -39 10 -34 41l16 88h-196l-73 -93c-21 -28 -33 -36 -81 -36h-80c-29 0 -36 13 -19 40l510 636c23 28 30 34 55 34h354c31 0 39 -10 34 -41l-12 -67c-5 -29 -17 -40 -48 -40h-218l-22 -129
h168c31 0 38 -11 33 -40l-11 -67c-5 -31 -18 -41 -49 -41h-168zM452 258l39 211l-156 -211h117z" />
    <glyph glyph-name="Ccedilla" unicode="&#xc7;" horiz-adv-x="640" 
d="M432 725c139 0 220 -57 241 -171c5 -29 -1 -43 -32 -52l-73 -24c-31 -9 -41 -4 -48 25c-10 49 -47 73 -112 73c-89 0 -140 -40 -154 -119l-36 -204c-14 -79 23 -119 112 -119c65 0 111 24 139 73c16 29 29 36 56 25l75 -29c27 -11 32 -24 17 -52
c-51 -94 -135 -148 -251 -163l-25 -46h6c61 0 86 -43 70 -98c-19 -67 -83 -94 -158 -94c-28 0 -51 5 -70 15c-13 6 -19 16 -16 31l6 37c3 17 11 22 24 15c19 -9 36 -14 53 -14c28 0 44 8 47 25c3 16 -9 24 -38 24h-20c-19 0 -22 9 -11 28l46 75c-169 9 -251 116 -223 276
l36 204c29 167 150 259 339 259z" />
    <glyph glyph-name="Egrave" unicode="&#xc8;" horiz-adv-x="584" 
d="M290 863l44 44c17 17 39 18 66 2l126 -83c16 -11 16 -18 -3 -38l-25 -25c-9 -9 -24 -10 -45 -2l-165 62c-20 9 -19 19 2 40zM179 710h402c31 0 39 -10 34 -41l-12 -67c-5 -29 -17 -40 -48 -40h-281l-22 -129h231c29 0 38 -9 33 -40l-12 -67c-5 -31 -17 -41 -48 -41h-231
l-24 -136h291c31 0 38 -12 33 -41l-12 -67c-5 -31 -16 -41 -47 -41h-412c-31 0 -39 10 -34 41l111 628c7 31 17 41 48 41z" />
    <glyph glyph-name="Eacute" unicode="&#xc9;" horiz-adv-x="584" 
d="M280 826l156 83c31 16 53 15 66 -3l28 -43c13 -21 13 -32 -12 -40l-187 -62c-24 -8 -39 -7 -45 2l-14 25c-13 19 -11 27 8 38zM179 710h402c31 0 39 -10 34 -41l-12 -67c-5 -29 -17 -40 -48 -40h-281l-22 -129h231c29 0 38 -9 33 -40l-12 -67c-5 -31 -17 -41 -48 -41
h-231l-24 -136h291c31 0 38 -12 33 -41l-12 -67c-5 -31 -16 -41 -47 -41h-412c-31 0 -39 10 -34 41l111 628c7 31 17 41 48 41z" />
    <glyph glyph-name="Ecircumflex" unicode="&#xca;" horiz-adv-x="584" 
d="M411 914h20c31 0 39 -2 60 -30l79 -97c13 -15 7 -30 -21 -30h-59c-33 0 -45 3 -57 20l-29 44l-49 -44c-20 -19 -29 -20 -62 -20h-60c-29 0 -31 15 -11 30l112 97c16 14 28 23 37 26c8 3 21 4 40 4zM179 710h402c31 0 39 -10 34 -41l-12 -67c-5 -29 -17 -40 -48 -40h-281
l-22 -129h231c29 0 38 -9 33 -40l-12 -67c-5 -31 -17 -41 -48 -41h-231l-24 -136h291c31 0 38 -12 33 -41l-12 -67c-5 -31 -16 -41 -47 -41h-412c-31 0 -39 10 -34 41l111 628c7 31 17 41 48 41z" />
    <glyph glyph-name="Edieresis" unicode="&#xcb;" horiz-adv-x="584" 
d="M307 902h7c49 0 63 -15 55 -63l-3 -11c-8 -47 -27 -64 -76 -64h-7c-48 0 -60 16 -52 64l2 11c8 48 25 63 74 63zM514 902h7c49 0 62 -15 53 -63l-2 -11c-8 -48 -27 -64 -75 -64h-7c-48 0 -62 16 -54 64l3 11c8 48 26 63 75 63zM179 710h402c31 0 39 -10 34 -41l-12 -67
c-5 -29 -17 -40 -48 -40h-281l-22 -129h231c29 0 38 -9 33 -40l-12 -67c-5 -31 -17 -41 -48 -41h-231l-24 -136h291c31 0 38 -12 33 -41l-12 -67c-5 -31 -16 -41 -47 -41h-412c-31 0 -39 10 -34 41l111 628c7 31 17 41 48 41z" />
    <glyph glyph-name="Igrave" unicode="&#xcc;" horiz-adv-x="287" 
d="M129 863l45 44c17 17 39 18 66 2l126 -83c16 -11 15 -18 -4 -38l-24 -25c-9 -9 -24 -10 -46 -2l-165 62c-20 9 -19 19 2 40zM20 40l111 630c7 31 18 40 47 40h82c31 0 38 -11 33 -40l-111 -630c-5 -29 -16 -40 -47 -40h-82c-29 0 -38 9 -33 40z" />
    <glyph glyph-name="Iacute" unicode="&#xcd;" horiz-adv-x="287" 
d="M119 826l156 83c31 16 53 15 66 -3l28 -43c15 -21 12 -31 -12 -40l-186 -62c-25 -8 -40 -7 -45 2l-15 25c-12 19 -11 29 8 38zM20 40l111 630c7 31 18 40 47 40h82c31 0 38 -11 33 -40l-111 -630c-5 -29 -16 -40 -47 -40h-82c-29 0 -38 9 -33 40z" />
    <glyph glyph-name="Icircumflex" unicode="&#xce;" horiz-adv-x="287" 
d="M251 914h19c31 0 39 -2 60 -30l80 -97c13 -15 7 -30 -22 -30h-58c-35 0 -45 3 -57 20l-30 44l-49 -44c-20 -19 -28 -20 -61 -20h-61c-28 0 -30 15 -11 30l112 97c17 14 29 23 38 26c8 3 21 4 40 4zM20 40l111 630c7 31 18 40 47 40h82c31 0 38 -11 33 -40l-111 -630
c-5 -29 -16 -40 -47 -40h-82c-29 0 -38 9 -33 40z" />
    <glyph glyph-name="Idieresis" unicode="&#xcf;" horiz-adv-x="287" 
d="M147 902h7c49 0 62 -15 54 -63l-2 -11c-8 -47 -28 -64 -76 -64h-8c-48 0 -60 16 -52 64l2 11c9 48 26 63 75 63zM353 902h7c49 0 62 -15 54 -63l-3 -11c-8 -48 -27 -64 -75 -64h-7c-48 0 -61 16 -53 64l2 11c8 48 27 63 75 63zM20 40l111 630c7 31 18 40 47 40h82
c31 0 38 -11 33 -40l-111 -630c-5 -29 -16 -40 -47 -40h-82c-29 0 -38 9 -33 40z" />
    <glyph glyph-name="Eth" unicode="&#xd0;" horiz-adv-x="694" 
d="M195 710h235c93 0 161 -26 204 -77c43 -52 57 -120 42 -205l-30 -172c-31 -167 -146 -256 -341 -256h-235c-29 0 -38 10 -33 41l48 273h-51c-19 0 -22 5 -19 26l10 53c3 17 12 25 28 25h51l44 251c7 31 18 41 47 41zM486 269l29 172c16 81 -18 121 -113 121h-111
l-25 -144h107c17 0 22 -6 18 -25l-9 -53c-3 -20 -9 -26 -28 -26h-106l-30 -165h111c89 0 142 40 157 120z" />
    <glyph glyph-name="Ntilde" unicode="&#xd1;" horiz-adv-x="701" 
d="M550 904h44c15 0 21 -8 18 -23c-15 -87 -47 -118 -110 -118c-57 0 -89 50 -117 50c-10 0 -17 -10 -21 -29c-3 -14 -11 -21 -24 -21h-45c-15 0 -22 7 -19 22c16 87 50 119 109 119c26 0 50 -8 73 -25c22 -17 38 -25 47 -25c11 0 18 9 21 28c3 15 11 22 24 22zM596 710h77
c31 0 39 -10 34 -41l-111 -628c-5 -31 -17 -41 -48 -41h-80c-17 0 -29 6 -35 19l-143 298c-25 53 -42 115 -50 187h-8c5 -75 2 -150 -11 -224l-42 -239c-5 -31 -17 -41 -48 -41h-77c-31 0 -39 10 -34 41l111 628c7 31 17 41 48 41h77c19 0 32 -6 39 -19l146 -303
c20 -42 35 -98 42 -128c4 -21 9 -50 9 -51h7c-9 70 -7 144 7 221l43 239c5 31 16 41 47 41z" />
    <glyph glyph-name="Ograve" unicode="&#xd2;" horiz-adv-x="675" 
d="M343 873l44 44c17 17 39 18 66 2l126 -83c16 -11 16 -18 -3 -38l-25 -25c-9 -9 -24 -10 -45 -2l-165 62c-20 9 -19 19 2 40zM57 262l36 203c29 167 149 260 337 260c93 0 162 -25 206 -76c43 -51 58 -119 44 -204l-36 -203c-29 -167 -148 -257 -337 -257
c-93 0 -162 25 -205 76c-44 50 -59 117 -45 201zM484 251l37 208c13 77 -28 117 -113 117c-89 0 -140 -39 -153 -117l-37 -208c-13 -77 27 -117 112 -117c89 0 140 39 154 117z" />
    <glyph glyph-name="Oacute" unicode="&#xd3;" horiz-adv-x="675" 
d="M333 836l155 83c32 16 54 15 66 -3l29 -43c13 -21 13 -32 -12 -40l-187 -62c-24 -8 -39 -7 -45 2l-15 25c-11 17 -8 29 9 38zM57 262l36 203c29 167 149 260 337 260c93 0 162 -25 206 -76c43 -51 58 -119 44 -204l-36 -203c-29 -167 -148 -257 -337 -257
c-93 0 -162 25 -205 76c-44 50 -59 117 -45 201zM484 251l37 208c13 77 -28 117 -113 117c-89 0 -140 -39 -153 -117l-37 -208c-13 -77 27 -117 112 -117c89 0 140 39 154 117z" />
    <glyph glyph-name="Ocircumflex" unicode="&#xd4;" horiz-adv-x="675" 
d="M464 924h20c31 0 39 -2 60 -30l79 -97c13 -15 7 -30 -21 -30h-59c-33 0 -45 3 -57 20l-29 44l-49 -44c-20 -19 -29 -20 -62 -20h-60c-29 0 -31 15 -11 30l112 97c16 14 28 23 37 26c8 3 21 4 40 4zM57 262l36 203c29 167 149 260 337 260c93 0 162 -25 206 -76
c43 -51 58 -119 44 -204l-36 -203c-29 -167 -148 -257 -337 -257c-93 0 -162 25 -205 76c-44 50 -59 117 -45 201zM484 251l37 208c13 77 -28 117 -113 117c-89 0 -140 -39 -153 -117l-37 -208c-13 -77 27 -117 112 -117c89 0 140 39 154 117z" />
    <glyph glyph-name="Otilde" unicode="&#xd5;" horiz-adv-x="675" 
d="M556 914h44c15 0 21 -8 18 -23c-15 -87 -47 -118 -110 -118c-57 0 -89 50 -117 50c-11 0 -18 -10 -21 -29c-3 -14 -11 -21 -24 -21h-45c-15 0 -22 7 -19 22c16 87 50 119 109 119c26 0 50 -8 73 -25c22 -17 38 -25 47 -25c11 0 17 9 20 28c3 15 11 22 25 22zM57 262
l36 203c29 167 149 260 337 260c93 0 162 -25 206 -76c43 -51 58 -119 44 -204l-36 -203c-29 -167 -148 -257 -337 -257c-93 0 -162 25 -205 76c-44 50 -59 117 -45 201zM484 251l37 208c13 77 -28 117 -113 117c-89 0 -140 -39 -153 -117l-37 -208
c-13 -77 27 -117 112 -117c89 0 140 39 154 117z" />
    <glyph glyph-name="Odieresis" unicode="&#xd6;" horiz-adv-x="675" 
d="M360 912h7c49 0 63 -15 55 -63l-3 -11c-8 -47 -27 -64 -76 -64h-7c-48 0 -60 16 -52 64l2 11c8 48 25 63 74 63zM567 912h7c49 0 62 -15 53 -63l-2 -11c-8 -48 -27 -64 -75 -64h-7c-48 0 -62 16 -54 64l3 11c8 48 26 63 75 63zM57 262l36 203c29 167 149 260 337 260
c93 0 162 -25 206 -76c43 -51 58 -119 44 -204l-36 -203c-29 -167 -148 -257 -337 -257c-93 0 -162 25 -205 76c-44 50 -59 117 -45 201zM484 251l37 208c13 77 -28 117 -113 117c-89 0 -140 -39 -153 -117l-37 -208c-13 -77 27 -117 112 -117c89 0 140 39 154 117z" />
    <glyph glyph-name="multiply" unicode="&#xd7;" horiz-adv-x="519" 
d="M359 325l91 -109c15 -19 11 -38 -10 -55l-47 -40c-24 -21 -37 -21 -54 0l-91 109l-127 -108c-25 -21 -39 -21 -55 0l-33 40c-17 19 -15 34 10 55l127 108l-89 108c-17 23 -14 36 9 55l47 40c25 21 39 21 55 0l90 -108l128 109c25 21 39 21 55 0l33 -40
c17 -20 15 -34 -10 -55z" />
    <glyph glyph-name="Oslash" unicode="&#xd8;" horiz-adv-x="676" 
d="M649 754h84c9 0 11 -5 4 -14l-93 -114c31 -47 40 -107 28 -181l-36 -203c-29 -167 -148 -257 -337 -257c-63 0 -113 11 -152 34l-38 -46c-9 -11 -11 -12 -30 -12h-82c-11 0 -13 5 -4 15l85 104c-31 48 -41 109 -29 182l35 203c31 167 150 260 338 260
c64 0 116 -12 156 -36l42 52c8 9 18 13 29 13zM209 235l266 325c-17 11 -42 16 -75 16c-89 0 -140 -39 -153 -117l-35 -195c-2 -10 -3 -20 -3 -29zM475 251l35 193c1 7 3 25 3 26l-264 -321c18 -10 42 -15 73 -15c89 0 140 39 153 117z" />
    <glyph glyph-name="Ugrave" unicode="&#xd9;" horiz-adv-x="691" 
d="M349 863l44 44c17 17 39 18 66 2l126 -83c16 -11 16 -18 -3 -38l-25 -25c-9 -9 -24 -10 -45 -2l-165 62c-20 9 -19 19 2 40zM305 669l-74 -423c-13 -72 24 -113 107 -113c85 0 133 38 146 113l75 423c7 31 17 41 48 41h81c31 0 38 -10 33 -41l-77 -434
c-28 -163 -141 -250 -329 -250c-93 0 -160 26 -202 78c-43 51 -57 119 -42 202l72 404c5 31 17 41 48 41h81c31 0 38 -10 33 -41z" />
    <glyph glyph-name="Uacute" unicode="&#xda;" horiz-adv-x="691" 
d="M339 826l155 83c32 16 54 15 66 -3l29 -43c13 -21 12 -31 -13 -40l-186 -62c-24 -8 -39 -7 -45 2l-15 25c-11 17 -8 29 9 38zM305 669l-74 -423c-13 -72 24 -113 107 -113c85 0 133 38 146 113l75 423c7 31 17 41 48 41h81c31 0 38 -10 33 -41l-77 -434
c-28 -163 -141 -250 -329 -250c-93 0 -160 26 -202 78c-43 51 -57 119 -42 202l72 404c5 31 17 41 48 41h81c31 0 38 -10 33 -41z" />
    <glyph glyph-name="Ucircumflex" unicode="&#xdb;" horiz-adv-x="691" 
d="M470 914h19c32 0 40 -2 61 -30l79 -97c13 -15 7 -30 -22 -30h-58c-33 0 -45 3 -57 20l-29 44l-49 -44c-20 -19 -29 -20 -62 -20h-60c-29 0 -31 15 -11 30l112 97c16 14 28 23 37 26c8 3 21 4 40 4zM305 669l-74 -423c-13 -72 24 -113 107 -113c85 0 133 38 146 113
l75 423c7 31 17 41 48 41h81c31 0 38 -10 33 -41l-77 -434c-28 -163 -141 -250 -329 -250c-93 0 -160 26 -202 78c-43 51 -57 119 -42 202l72 404c5 31 17 41 48 41h81c31 0 38 -10 33 -41z" />
    <glyph glyph-name="Udieresis" unicode="&#xdc;" horiz-adv-x="691" 
d="M366 902h7c49 0 63 -15 55 -63l-3 -11c-8 -47 -27 -64 -76 -64h-7c-48 0 -61 16 -52 64l2 11c8 48 25 63 74 63zM573 902h7c49 0 61 -15 53 -63l-2 -11c-8 -48 -27 -64 -75 -64h-7c-48 0 -62 16 -54 64l3 11c8 48 26 63 75 63zM305 669l-74 -423
c-13 -72 24 -113 107 -113c85 0 133 38 146 113l75 423c7 31 17 41 48 41h81c31 0 38 -10 33 -41l-77 -434c-28 -163 -141 -250 -329 -250c-93 0 -160 26 -202 78c-43 51 -57 119 -42 202l72 404c5 31 17 41 48 41h81c31 0 38 -10 33 -41z" />
    <glyph glyph-name="Yacute" unicode="&#xdd;" horiz-adv-x="655" 
d="M309 826l156 83c32 17 54 16 66 -3l28 -43c15 -21 12 -31 -12 -40l-186 -62c-24 -8 -39 -7 -45 2l-15 25c-12 19 -11 29 8 38zM613 710h89c29 0 33 -18 14 -41l-304 -393l-42 -235c-5 -31 -17 -41 -48 -41h-81c-31 0 -38 10 -33 41l41 237l-166 391c-11 23 -1 41 28 41
h90c51 0 61 -3 73 -36l85 -233l169 233c11 17 22 27 32 31c10 3 28 5 53 5z" />
    <glyph glyph-name="Thorn" unicode="&#xde;" horiz-adv-x="634" 
d="M283 610h135c77 0 135 -24 172 -72s49 -111 35 -189c-25 -152 -138 -239 -295 -239h-136l-12 -69c-5 -31 -17 -41 -48 -41h-80c-31 0 -39 10 -34 41l111 628c7 31 17 41 48 41h80c31 0 39 -10 34 -41zM220 258h118c63 0 110 42 121 101s-23 102 -84 102h-118z" />
    <glyph glyph-name="germandbls" unicode="&#xdf;" horiz-adv-x="564" 
d="M8 41l88 493c24 133 117 216 262 216c149 0 217 -88 194 -217c-12 -63 -43 -110 -94 -140v-4c59 -28 81 -89 64 -182c-24 -133 -119 -207 -258 -207h-41c-29 0 -38 10 -33 41l12 67c7 31 17 41 48 41h21c50 0 80 26 90 78c8 51 -14 80 -62 80h-22c-29 0 -38 10 -33 41
l12 63c5 31 16 41 45 41h11c41 0 71 27 79 74c9 49 -13 76 -60 76c-45 0 -78 -29 -87 -76l-85 -485c-5 -31 -17 -41 -48 -41h-69c-31 0 -39 10 -34 41z" />
    <glyph glyph-name="agrave" unicode="&#xe0;" horiz-adv-x="542" 
d="M246 688l45 43c19 18 41 19 66 2l126 -84c16 -11 14 -18 -5 -38l-24 -24c-9 -10 -25 -11 -46 -3l-164 64c-21 11 -19 17 2 40zM36 207l22 126c25 140 110 202 269 202c81 0 142 -11 185 -33c29 -15 33 -23 26 -56l-69 -394c-5 -28 -15 -37 -44 -44
c-62 -15 -130 -23 -205 -23c-144 0 -209 87 -184 222zM372 393c-18 5 -38 7 -59 7c-64 0 -96 -23 -107 -82l-22 -125c-8 -49 16 -73 72 -73c27 0 52 2 75 7l46 258c1 4 0 7 -5 8z" />
    <glyph glyph-name="aacute" unicode="&#xe1;" horiz-adv-x="542" 
d="M236 649l155 84c31 16 53 15 66 -2l29 -43c15 -21 12 -31 -12 -40l-186 -64c-24 -8 -39 -7 -46 3l-15 24c-12 19 -11 29 9 38zM36 207l22 126c25 140 110 202 269 202c81 0 142 -11 185 -33c29 -15 33 -23 26 -56l-69 -394c-5 -28 -15 -37 -44 -44
c-62 -15 -130 -23 -205 -23c-144 0 -209 87 -184 222zM372 393c-18 5 -38 7 -59 7c-64 0 -96 -23 -107 -82l-22 -125c-8 -49 16 -73 72 -73c27 0 52 2 75 7l46 258c1 4 0 7 -5 8z" />
    <glyph glyph-name="acircumflex" unicode="&#xe2;" horiz-adv-x="542" 
d="M368 739h18c31 0 38 -3 61 -31l79 -96c13 -16 7 -31 -22 -31h-55c-33 0 -44 3 -56 20l-31 44l-47 -43c-21 -19 -29 -21 -62 -21h-63c-29 0 -30 15 -11 31l113 96c16 14 28 23 37 26c8 3 21 5 39 5zM36 207l22 126c25 140 110 202 269 202c81 0 142 -11 185 -33
c29 -15 33 -23 26 -56l-69 -394c-5 -28 -15 -37 -44 -44c-62 -15 -130 -23 -205 -23c-144 0 -209 87 -184 222zM372 393c-18 5 -38 7 -59 7c-64 0 -96 -23 -107 -82l-22 -125c-8 -49 16 -73 72 -73c27 0 52 2 75 7l46 258c1 4 0 7 -5 8z" />
    <glyph glyph-name="atilde" unicode="&#xe3;" horiz-adv-x="542" 
d="M459 731h44c15 0 22 -7 19 -22c-16 -88 -48 -119 -111 -119c-25 0 -48 8 -69 25c-22 17 -38 25 -48 25c-11 0 -18 -9 -21 -28c-3 -15 -11 -22 -24 -22h-45c-15 0 -21 8 -18 23c15 87 49 118 108 118c27 0 51 -8 73 -25s38 -25 47 -25c10 0 17 10 21 29c3 14 11 21 24 21z
M36 207l22 126c25 140 110 202 269 202c81 0 142 -11 185 -33c29 -15 33 -23 26 -56l-69 -394c-5 -28 -15 -37 -44 -44c-62 -15 -130 -23 -205 -23c-144 0 -209 87 -184 222zM372 393c-18 5 -38 7 -59 7c-64 0 -96 -23 -107 -82l-22 -125c-8 -49 16 -73 72 -73
c27 0 52 2 75 7l46 258c1 4 0 7 -5 8z" />
    <glyph glyph-name="adieresis" unicode="&#xe4;" horiz-adv-x="542" 
d="M263 723h7c49 0 62 -16 53 -64l-2 -11c-8 -47 -26 -63 -75 -63h-7c-49 0 -62 16 -53 63l2 11c8 48 26 64 75 64zM470 723h7c49 0 61 -16 52 -64l-2 -11c-9 -48 -26 -63 -74 -63h-7c-49 0 -63 16 -55 63l2 11c9 48 28 64 77 64zM36 207l22 126c25 140 110 202 269 202
c81 0 142 -11 185 -33c29 -15 33 -23 26 -56l-69 -394c-5 -28 -15 -37 -44 -44c-62 -15 -130 -23 -205 -23c-144 0 -209 87 -184 222zM372 393c-18 5 -38 7 -59 7c-64 0 -96 -23 -107 -82l-22 -125c-8 -49 16 -73 72 -73c27 0 52 2 75 7l46 258c1 4 0 7 -5 8z" />
    <glyph glyph-name="aring" unicode="&#xe5;" horiz-adv-x="542" 
d="M245 679c11 67 69 113 138 113c67 0 107 -46 95 -113c-11 -65 -67 -110 -134 -110c-69 0 -111 45 -99 110zM403 679c5 25 -9 42 -33 42c-25 0 -46 -17 -51 -42c-3 -24 12 -40 37 -40c24 0 44 16 47 40zM36 207l22 126c25 140 110 202 269 202c81 0 142 -11 185 -33
c29 -15 33 -23 26 -56l-69 -394c-5 -28 -15 -37 -44 -44c-62 -15 -130 -23 -205 -23c-144 0 -209 87 -184 222zM372 393c-18 5 -38 7 -59 7c-64 0 -96 -23 -107 -82l-22 -125c-8 -49 16 -73 72 -73c27 0 52 2 75 7l46 258c1 4 0 7 -5 8z" />
    <glyph glyph-name="ae" unicode="&#xe6;" horiz-adv-x="777" 
d="M432 481c40 36 92 54 155 54c139 0 210 -68 190 -181c-17 -96 -100 -149 -232 -149c-25 0 -58 3 -99 9l-5 -26c-9 -53 14 -79 68 -79c39 0 71 13 94 40c20 25 30 29 55 13l44 -28c21 -14 22 -33 3 -58c-43 -61 -116 -91 -219 -91c-51 0 -91 10 -122 29
c-45 -19 -99 -29 -161 -29c-151 0 -207 63 -187 175c19 107 94 154 249 154c23 0 43 -1 62 -2l3 21c4 29 17 75 -54 75c-31 0 -58 -13 -80 -38c-20 -23 -26 -26 -53 -15l-51 23c-24 11 -28 28 -11 53c49 69 123 104 220 104c57 0 100 -18 131 -54zM629 361
c7 35 -15 54 -64 54c-52 0 -89 -28 -98 -77l-2 -17c35 -5 64 -7 88 -7c45 0 71 16 76 47zM303 179l3 20c-32 2 -56 3 -73 3c-40 0 -63 -17 -69 -51c-7 -35 8 -49 49 -49c30 0 60 3 89 8c-3 18 -2 41 1 69z" />
    <glyph glyph-name="ccedilla" unicode="&#xe7;" horiz-adv-x="513" 
d="M35 205l22 127c24 135 113 203 267 203c115 0 181 -53 194 -133c5 -29 -3 -43 -32 -52l-59 -20c-31 -11 -41 -4 -48 25c-8 33 -34 50 -77 50c-54 0 -86 -25 -95 -76l-25 -139c-8 -50 15 -75 68 -75c41 0 71 17 91 51c17 28 30 33 57 24l63 -20c25 -10 30 -28 15 -53
c-43 -75 -109 -118 -197 -129l-25 -45h6c61 0 87 -43 71 -98c-19 -67 -83 -94 -159 -94c-28 0 -51 5 -70 15c-13 6 -19 16 -16 31l6 37c3 17 11 22 25 15c18 -10 35 -15 52 -15c27 0 43 9 47 26c3 16 -9 24 -37 24h-20c-19 0 -23 9 -11 28l46 74c-129 13 -182 94 -159 219z
" />
    <glyph glyph-name="egrave" unicode="&#xe8;" horiz-adv-x="536" 
d="M242 688l45 43c19 18 41 19 66 2l126 -84c16 -11 14 -19 -5 -38l-24 -24c-9 -10 -24 -11 -45 -3l-165 64c-20 9 -19 19 2 40zM37 219l21 111c24 132 122 205 277 205c70 0 124 -17 162 -51c37 -35 51 -80 42 -137c-17 -95 -97 -142 -242 -142c-28 0 -65 3 -110 9l-4 -26
c-10 -53 15 -79 75 -79c46 0 81 13 106 40c23 24 33 28 60 13l45 -27c23 -14 24 -34 5 -59c-47 -61 -127 -91 -238 -91c-81 0 -138 22 -170 66s-42 100 -29 168zM392 361c5 35 -21 54 -77 54s-95 -31 -106 -80l-3 -13c43 -5 75 -8 97 -8c53 0 83 16 89 47z" />
    <glyph glyph-name="eacute" unicode="&#xe9;" horiz-adv-x="536" 
d="M232 649l155 84c32 16 54 15 66 -2l29 -43c15 -21 12 -31 -12 -40l-186 -64c-24 -8 -39 -7 -45 3l-16 24c-11 17 -8 29 9 38zM37 219l21 111c24 132 122 205 277 205c70 0 124 -17 162 -51c37 -35 51 -80 42 -137c-17 -95 -97 -142 -242 -142c-28 0 -65 3 -110 9l-4 -26
c-10 -53 15 -79 75 -79c46 0 81 13 106 40c23 24 33 28 60 13l45 -27c23 -14 24 -34 5 -59c-47 -61 -127 -91 -238 -91c-81 0 -138 22 -170 66s-42 100 -29 168zM392 361c5 35 -21 54 -77 54s-95 -31 -106 -80l-3 -13c43 -5 75 -8 97 -8c53 0 83 16 89 47z" />
    <glyph glyph-name="ecircumflex" unicode="&#xea;" horiz-adv-x="536" 
d="M249 581h-63c-30 0 -27 15 -11 31l113 96c17 14 29 23 37 26s21 5 40 5h18c31 0 38 -3 61 -31l78 -96c15 -16 7 -31 -21 -31h-56c-33 0 -44 3 -56 20l-30 44l-48 -43c-20 -19 -29 -21 -62 -21zM335 535c70 0 124 -17 162 -51c37 -35 51 -80 42 -137
c-17 -95 -97 -142 -242 -142c-28 0 -65 3 -110 9l-4 -26c-10 -53 15 -79 75 -79c46 0 81 13 106 40c23 24 33 28 60 13l45 -27c23 -14 24 -34 5 -59c-47 -61 -127 -91 -238 -91c-81 0 -138 22 -170 66s-42 100 -29 168l21 111c24 132 122 205 277 205zM392 361
c5 35 -21 54 -77 54s-95 -31 -106 -80l-3 -13c43 -5 75 -8 97 -8c53 0 83 16 89 47z" />
    <glyph glyph-name="edieresis" unicode="&#xeb;" horiz-adv-x="536" 
d="M259 723h8c48 0 61 -16 53 -64l-2 -11c-9 -48 -28 -63 -76 -63h-7c-48 0 -61 15 -53 63l2 11c9 48 27 64 75 64zM466 723h7c49 0 61 -16 52 -64l-2 -11c-8 -48 -26 -63 -74 -63h-7c-49 0 -63 16 -54 63l2 11c8 48 27 64 76 64zM37 219l21 111c24 132 122 205 277 205
c70 0 124 -17 162 -51c37 -35 51 -80 42 -137c-17 -95 -97 -142 -242 -142c-28 0 -65 3 -110 9l-4 -26c-10 -53 15 -79 75 -79c46 0 81 13 106 40c23 24 33 28 60 13l45 -27c23 -14 24 -34 5 -59c-47 -61 -127 -91 -238 -91c-81 0 -138 22 -170 66s-42 100 -29 168zM392 361
c5 35 -21 54 -77 54s-95 -31 -106 -80l-3 -13c43 -5 75 -8 97 -8c53 0 83 16 89 47z" />
    <glyph glyph-name="igrave" unicode="&#xec;" horiz-adv-x="252" 
d="M85 694l39 37c21 21 42 22 63 3l109 -90c15 -12 13 -19 -6 -38l-20 -21c-10 -11 -25 -11 -45 -1l-143 70c-20 12 -18 19 3 40zM130 520h78c27 0 34 -9 29 -37l-78 -446c-5 -28 -16 -37 -43 -37h-78c-28 0 -35 9 -30 37l78 446c5 28 16 37 44 37z" />
    <glyph glyph-name="iacute" unicode="&#xed;" horiz-adv-x="252" 
d="M76 647l138 86c30 18 52 18 66 -1l30 -42c15 -20 12 -31 -12 -40l-169 -66c-23 -9 -38 -9 -45 1l-16 24c-12 19 -11 27 8 38zM130 520h78c27 0 34 -9 29 -37l-78 -446c-5 -28 -16 -37 -43 -37h-78c-28 0 -35 9 -30 37l78 446c5 28 16 37 44 37z" />
    <glyph glyph-name="icircumflex" unicode="&#xee;" horiz-adv-x="252" 
d="M284 704l66 -94c13 -20 5 -30 -22 -30h-56c-31 0 -40 5 -51 24l-18 33l-37 -37c-17 -17 -28 -20 -60 -20h-60c-28 0 -32 10 -12 30l98 94c28 28 38 30 75 30h17c32 0 41 -2 60 -30zM142 520h78c27 0 34 -9 29 -37l-78 -446c-5 -28 -16 -37 -43 -37h-78
c-28 0 -35 9 -30 37l78 446c5 28 16 37 44 37z" />
    <glyph glyph-name="idieresis" unicode="&#xef;" horiz-adv-x="252" 
d="M107 723h7c49 0 62 -16 53 -64l-2 -11c-9 -48 -28 -63 -76 -63h-7c-48 0 -61 15 -53 63l2 11c9 48 27 64 76 64zM295 723h7c48 0 61 -16 53 -64l-2 -11c-9 -48 -27 -63 -75 -63h-7c-49 0 -63 16 -54 63l2 11c9 48 27 64 76 64zM130 520h78c27 0 34 -9 29 -37l-78 -446
c-5 -28 -16 -37 -43 -37h-78c-28 0 -35 9 -30 37l78 446c5 28 16 37 44 37z" />
    <glyph glyph-name="eth" unicode="&#xf0;" horiz-adv-x="556" 
d="M446 713l39 38c9 8 18 8 25 1l33 -27c9 -7 9 -16 -2 -27l-32 -30c47 -54 59 -146 36 -277l-35 -198c-23 -132 -119 -208 -274 -208s-225 86 -201 221l18 102c23 125 116 193 244 193c54 0 95 -13 122 -39c4 43 -4 77 -23 100l-37 -34c-9 -8 -17 -9 -26 -2l-30 23
c-8 7 -7 16 3 26l26 26c-25 7 -62 10 -112 10c-29 0 -37 8 -33 37l10 58c5 29 15 38 43 38c88 0 157 -10 206 -31zM359 194l18 102c8 50 -16 75 -73 75c-59 0 -93 -25 -101 -75l-18 -102c-9 -50 15 -75 74 -75c57 0 91 25 100 75z" />
    <glyph glyph-name="ntilde" unicode="&#xf1;" 
d="M438 731h44c15 0 22 -7 19 -22c-16 -88 -48 -119 -111 -119c-25 0 -48 8 -69 25c-22 17 -38 25 -48 25c-11 0 -18 -9 -21 -28c-3 -15 -11 -22 -24 -22h-45c-15 0 -21 8 -18 23c15 87 49 118 108 118c27 0 51 -8 73 -25s38 -25 47 -25c10 0 17 10 21 29c3 14 11 21 24 21z
M127 499c63 24 134 36 211 36c143 0 202 -81 178 -216l-49 -282c-5 -28 -16 -37 -44 -37h-78c-27 0 -35 9 -30 37l50 286c9 50 -14 75 -71 75c-26 0 -50 -3 -72 -9c-1 0 -3 -1 -4 -4l-61 -348c-5 -28 -16 -37 -43 -37h-78c-28 0 -35 9 -30 37l71 404c7 33 15 45 50 58z" />
    <glyph glyph-name="ograve" unicode="&#xf2;" horiz-adv-x="547" 
d="M241 688l45 43c19 18 41 19 66 2l127 -84c15 -11 14 -19 -5 -38l-25 -24c-9 -10 -24 -11 -45 -3l-165 64c-20 9 -19 19 2 40zM35 200l22 129c24 132 119 206 274 206s226 -83 202 -218l-22 -129c-24 -132 -117 -203 -274 -203c-153 0 -226 82 -202 215zM360 194l24 132
c8 50 -17 75 -75 75s-92 -25 -101 -75l-23 -132c-9 -50 15 -75 74 -75c58 0 92 25 101 75z" />
    <glyph glyph-name="oacute" unicode="&#xf3;" horiz-adv-x="547" 
d="M232 649l154 84c32 16 54 15 66 -2l29 -43c15 -21 12 -31 -12 -40l-186 -64c-24 -8 -39 -7 -45 3l-15 24c-13 19 -11 29 9 38zM35 200l22 129c24 132 119 206 274 206s226 -83 202 -218l-22 -129c-24 -132 -117 -203 -274 -203c-153 0 -226 82 -202 215zM360 194l24 132
c8 50 -17 75 -75 75s-92 -25 -101 -75l-23 -132c-9 -50 15 -75 74 -75c58 0 92 25 101 75z" />
    <glyph glyph-name="ocircumflex" unicode="&#xf4;" horiz-adv-x="547" 
d="M248 581h-62c-29 0 -29 15 -12 31l113 96c17 14 29 23 37 26s21 5 40 5h18c31 0 38 -3 61 -31l78 -96c15 -16 7 -31 -21 -31h-56c-33 0 -44 3 -56 20l-30 44l-48 -43c-20 -19 -29 -21 -62 -21zM145 482c47 35 109 53 186 53s133 -19 168 -58s46 -93 34 -160l-22 -129
c-24 -132 -117 -203 -274 -203c-153 0 -226 82 -202 215l22 129c12 66 41 117 88 153zM360 194l24 132c8 50 -17 75 -75 75s-92 -25 -101 -75l-23 -132c-9 -50 15 -75 74 -75c58 0 92 25 101 75z" />
    <glyph glyph-name="otilde" unicode="&#xf5;" horiz-adv-x="547" 
d="M455 731h44c15 0 21 -7 18 -22c-15 -88 -47 -119 -111 -119c-57 0 -88 50 -116 50c-11 0 -18 -9 -21 -28c-3 -15 -11 -22 -25 -22h-45c-15 0 -21 8 -18 23c16 87 50 118 109 118c26 0 50 -8 73 -25c22 -17 38 -25 47 -25c10 0 17 10 21 29c2 14 10 21 24 21zM35 200
l22 129c24 132 119 206 274 206s226 -83 202 -218l-22 -129c-24 -132 -117 -203 -274 -203c-153 0 -226 82 -202 215zM360 194l24 132c8 50 -17 75 -75 75s-92 -25 -101 -75l-23 -132c-9 -50 15 -75 74 -75c58 0 92 25 101 75z" />
    <glyph glyph-name="odieresis" unicode="&#xf6;" horiz-adv-x="547" 
d="M258 723h8c48 0 61 -16 53 -64l-2 -11c-9 -48 -28 -63 -76 -63h-7c-48 0 -61 15 -53 63l2 11c9 48 27 64 75 64zM465 723h7c49 0 61 -16 52 -64l-2 -11c-8 -48 -26 -63 -74 -63h-7c-49 0 -63 16 -54 63l2 11c8 48 27 64 76 64zM35 200l22 129c24 132 119 206 274 206
s226 -83 202 -218l-22 -129c-24 -132 -117 -203 -274 -203c-153 0 -226 82 -202 215zM360 194l24 132c8 50 -17 75 -75 75s-92 -25 -101 -75l-23 -132c-9 -50 15 -75 74 -75c58 0 92 25 101 75z" />
    <glyph glyph-name="divide" unicode="&#xf7;" horiz-adv-x="544" 
d="M317 591h21c56 0 70 -18 61 -74l-2 -11c-9 -56 -31 -74 -88 -74h-20c-57 0 -71 18 -62 74l2 11c11 56 31 74 88 74zM94 397h399c31 0 38 -10 33 -41l-10 -61c-5 -31 -17 -41 -48 -41h-400c-29 0 -38 10 -33 41l11 61c5 31 17 41 48 41zM252 219h21c56 0 70 -18 61 -74
l-2 -10c-11 -57 -31 -75 -88 -75h-20c-57 0 -71 18 -62 75l2 10c11 56 31 74 88 74z" />
    <glyph glyph-name="oslash" unicode="&#xf8;" horiz-adv-x="547" 
d="M493 552h55c11 0 12 -5 4 -14l-55 -67c32 -39 42 -91 30 -154l-22 -129c-24 -132 -117 -203 -273 -203c-43 0 -80 6 -111 19l-23 -27c-7 -8 -16 -12 -29 -12h-53c-11 0 -12 5 -4 15l52 63c-35 37 -46 90 -35 157l22 129c24 132 119 206 274 206c47 0 86 -8 118 -23l23 28
c7 8 16 12 27 12zM179 183l174 215c-11 7 -28 10 -49 10c-57 0 -91 -25 -100 -75l-23 -126c-1 -5 -2 -13 -2 -24zM377 326l-168 -207c14 -5 28 -7 43 -7c59 0 92 25 101 75l22 122c1 5 2 11 2 17z" />
    <glyph glyph-name="ugrave" unicode="&#xf9;" 
d="M245 688l45 43c18 17 40 18 66 2l126 -84c16 -11 14 -18 -5 -38l-25 -24c-9 -10 -24 -11 -45 -3l-164 64c-21 9 -19 19 2 40zM449 520h77c28 0 35 -9 30 -37l-71 -404c-7 -33 -15 -45 -50 -58c-62 -24 -132 -36 -210 -36c-144 0 -202 82 -178 217l49 281
c5 28 16 37 44 37h77c28 0 35 -9 30 -37l-50 -286c-9 -52 13 -75 72 -75c23 0 45 2 66 7c6 2 9 6 10 11l60 343c5 28 16 37 44 37z" />
    <glyph glyph-name="uacute" unicode="&#xfa;" 
d="M235 649l155 84c31 16 53 15 66 -2l28 -43c15 -21 13 -31 -12 -40l-186 -64c-24 -8 -39 -7 -45 3l-15 24c-12 19 -11 29 9 38zM449 520h77c28 0 35 -9 30 -37l-71 -404c-7 -33 -15 -45 -50 -58c-62 -24 -132 -36 -210 -36c-144 0 -202 82 -178 217l49 281
c5 28 16 37 44 37h77c28 0 35 -9 30 -37l-50 -286c-9 -52 13 -75 72 -75c23 0 45 2 66 7c6 2 9 6 10 11l60 343c5 28 16 37 44 37z" />
    <glyph glyph-name="ucircumflex" unicode="&#xfb;" 
d="M367 739h18c31 0 38 -3 61 -31l79 -96c13 -16 7 -31 -22 -31h-55c-35 0 -44 3 -56 20l-31 44l-47 -43c-21 -19 -29 -21 -62 -21h-63c-29 0 -30 15 -11 31l113 96c16 14 28 23 37 26c8 3 21 5 39 5zM449 520h77c28 0 35 -9 30 -37l-71 -404c-7 -33 -15 -45 -50 -58
c-62 -24 -132 -36 -210 -36c-144 0 -202 82 -178 217l49 281c5 28 16 37 44 37h77c28 0 35 -9 30 -37l-50 -286c-9 -52 13 -75 72 -75c23 0 45 2 66 7c6 2 9 6 10 11l60 343c5 28 16 37 44 37z" />
    <glyph glyph-name="udieresis" unicode="&#xfc;" 
d="M262 723h7c49 0 62 -16 53 -64l-2 -11c-8 -47 -26 -63 -75 -63h-8c-48 0 -61 16 -52 63l2 11c8 48 26 64 75 64zM469 723h7c48 0 60 -16 52 -64l-2 -11c-9 -48 -27 -63 -75 -63h-7c-49 0 -62 16 -54 63l2 11c9 48 28 64 77 64zM449 520h77c28 0 35 -9 30 -37l-71 -404
c-7 -33 -15 -45 -50 -58c-62 -24 -132 -36 -210 -36c-144 0 -202 82 -178 217l49 281c5 28 16 37 44 37h77c28 0 35 -9 30 -37l-50 -286c-9 -52 13 -75 72 -75c23 0 45 2 66 7c6 2 9 6 10 11l60 343c5 28 16 37 44 37z" />
    <glyph glyph-name="yacute" unicode="&#xfd;" horiz-adv-x="557" 
d="M235 649l155 84c31 16 53 15 66 -2l28 -43c16 -21 13 -31 -12 -40l-186 -64c-24 -8 -39 -7 -45 3l-15 24c-12 19 -11 29 9 38zM449 520h78c27 0 34 -9 29 -37l-86 -493c-26 -147 -115 -220 -267 -220c-100 0 -164 32 -193 96c-13 25 -4 44 25 58l57 27
c32 15 43 11 56 -13c14 -25 39 -38 75 -38c53 0 84 27 94 81l7 41c-25 -5 -57 -7 -94 -7c-144 0 -201 83 -177 219l43 249c5 28 16 37 44 37h77c28 0 35 -9 30 -37l-45 -256c-9 -50 16 -75 73 -75c23 0 47 2 73 7l57 324c5 28 16 37 44 37z" />
    <glyph glyph-name="thorn" unicode="&#xfe;" horiz-adv-x="547" 
d="M-30 -183l156 885c5 28 15 37 43 37h78c27 0 35 -9 30 -37l-31 -172c30 3 61 5 93 5c145 0 205 -79 180 -214l-22 -126c-25 -140 -114 -210 -268 -210c-23 0 -49 3 -76 9l-32 -177c-5 -28 -16 -37 -44 -37h-77c-28 0 -35 9 -30 37zM347 202l22 125c9 47 -18 73 -71 73
c-21 0 -47 -3 -76 -8l-46 -266c24 -4 46 -6 65 -6c60 0 95 27 106 82z" />
    <glyph glyph-name="ydieresis" unicode="&#xff;" horiz-adv-x="557" 
d="M262 723h7c49 0 62 -16 53 -64l-2 -11c-8 -47 -26 -63 -75 -63h-7c-49 0 -62 16 -53 63l2 11c8 48 26 64 75 64zM469 723h7c48 0 60 -16 52 -64l-2 -11c-9 -48 -27 -63 -75 -63h-7c-48 0 -62 16 -54 63l2 11c9 48 28 64 77 64zM449 520h78c27 0 34 -9 29 -37l-86 -493
c-26 -147 -115 -220 -267 -220c-100 0 -164 32 -193 96c-13 25 -4 44 25 58l57 27c32 15 43 11 56 -13c14 -25 39 -38 75 -38c53 0 84 27 94 81l7 41c-25 -5 -57 -7 -94 -7c-144 0 -201 83 -177 219l43 249c5 28 16 37 44 37h77c28 0 35 -9 30 -37l-45 -256
c-9 -50 16 -75 73 -75c23 0 47 2 73 7l57 324c5 28 16 37 44 37z" />
    <glyph glyph-name="Amacron" unicode="&#x100;" horiz-adv-x="670" 
d="M343 883h234c28 0 34 -7 29 -35l-6 -33c-5 -27 -13 -34 -41 -34h-234c-27 0 -33 7 -28 34l5 33c5 27 16 35 41 35zM513 678l126 -638c5 -27 -7 -40 -34 -40h-70c-51 0 -64 8 -68 37l-14 94h-248l-48 -94c-15 -29 -30 -37 -79 -37h-74c-28 0 -35 13 -20 40l352 636
c13 27 26 34 55 34h77c29 0 40 -7 45 -32zM434 263l-25 155c-5 43 -5 97 -2 124l2 19h-8c-9 -47 -25 -95 -49 -142l-80 -156h162z" />
    <glyph glyph-name="amacron" unicode="&#x101;" horiz-adv-x="542" 
d="M249 706h235c27 0 33 -7 28 -34l-6 -33c-4 -28 -13 -35 -40 -35h-234c-28 0 -33 7 -29 35l6 33c5 27 15 34 40 34zM36 207l22 126c25 140 110 202 269 202c81 0 142 -11 185 -33c29 -15 33 -23 26 -56l-69 -394c-5 -28 -15 -37 -44 -44c-62 -15 -130 -23 -205 -23
c-144 0 -209 87 -184 222zM372 393c-18 5 -38 7 -59 7c-64 0 -96 -23 -107 -82l-22 -125c-8 -49 16 -73 72 -73c27 0 52 2 75 7l46 258c1 4 0 7 -5 8z" />
    <glyph glyph-name="Abreve" unicode="&#x102;" horiz-adv-x="670" 
d="M620 859c-36 -64 -103 -101 -182 -101s-131 37 -143 101c-3 17 5 28 22 34l56 20c23 7 29 4 34 -12c6 -26 23 -39 50 -39s48 13 63 39c11 16 18 18 35 13l53 -21c19 -8 21 -15 12 -34zM513 678l126 -638c5 -27 -7 -40 -34 -40h-70c-51 0 -64 8 -68 37l-14 94h-248
l-48 -94c-15 -29 -30 -37 -79 -37h-74c-28 0 -35 13 -20 40l352 636c13 27 26 34 55 34h77c29 0 40 -7 45 -32zM434 263l-25 155c-5 43 -5 97 -2 124l2 19h-8c-9 -47 -25 -95 -49 -142l-80 -156h162z" />
    <glyph glyph-name="abreve" unicode="&#x103;" horiz-adv-x="542" 
d="M526 683c-37 -68 -96 -102 -177 -102c-79 0 -135 38 -147 102c-4 17 2 26 22 33l52 19c23 7 28 4 35 -12c5 -25 23 -38 52 -38c27 0 48 13 64 39c8 14 19 18 34 13l55 -21c16 -8 19 -14 10 -33zM36 207l22 126c25 140 110 202 269 202c81 0 142 -11 185 -33
c29 -15 33 -23 26 -56l-69 -394c-5 -28 -15 -37 -44 -44c-62 -15 -130 -23 -205 -23c-144 0 -209 87 -184 222zM372 393c-18 5 -38 7 -59 7c-64 0 -96 -23 -107 -82l-22 -125c-8 -49 16 -73 72 -73c27 0 52 2 75 7l46 258c1 4 0 7 -5 8z" />
    <glyph glyph-name="Aogonek" unicode="&#x104;" horiz-adv-x="670" 
d="M391 710h77c29 0 40 -7 45 -32l126 -638c3 -15 0 -26 -8 -33c-57 -56 -83 -104 -83 -129c1 -13 7 -20 17 -20c7 0 13 2 18 5c12 7 19 5 21 -6l12 -47c3 -12 0 -21 -7 -26c-24 -19 -60 -29 -109 -29s-86 27 -86 75c-1 57 35 113 110 170c-41 1 -53 10 -57 37l-14 94h-248
l-48 -94c-15 -29 -30 -37 -79 -37h-74c-28 0 -35 13 -20 40l352 636c13 27 26 34 55 34zM434 263l-25 155c-5 43 -5 97 -2 124l2 19h-8c-9 -47 -25 -95 -49 -142l-80 -156h162z" />
    <glyph glyph-name="aogonek" unicode="&#x105;" horiz-adv-x="543" 
d="M36 207l22 126c25 140 110 202 269 202c81 0 142 -11 185 -33c29 -15 33 -23 26 -56l-69 -394c-3 -13 -7 -23 -14 -30c-59 -61 -86 -117 -86 -144c1 -13 7 -20 17 -20c7 0 13 2 18 5c11 6 19 4 22 -6l11 -47c3 -12 0 -21 -7 -26c-24 -19 -60 -29 -109 -29s-86 27 -86 75
c0 55 33 108 100 161c-36 -4 -74 -6 -115 -6c-144 0 -209 87 -184 222zM372 393c-18 5 -38 7 -59 7c-64 0 -96 -23 -107 -82l-22 -125c-8 -49 16 -73 72 -73c27 0 52 2 75 7l46 258c1 4 0 7 -5 8z" />
    <glyph glyph-name="Cacute" unicode="&#x106;" horiz-adv-x="640" 
d="M335 826l156 83c32 17 54 16 66 -3l28 -43c15 -21 12 -31 -12 -40l-186 -62c-24 -8 -39 -7 -45 2l-15 25c-12 19 -11 29 8 38zM57 262l36 204c29 167 150 259 339 259c139 0 220 -57 241 -171c5 -29 -1 -43 -32 -52l-73 -24c-31 -9 -41 -4 -48 25c-10 49 -47 73 -112 73
c-89 0 -140 -40 -154 -119l-36 -204c-14 -79 23 -119 112 -119c65 0 111 24 139 73c16 29 29 36 56 25l75 -29c27 -11 32 -24 17 -52c-61 -111 -164 -166 -311 -166c-187 0 -277 108 -249 277z" />
    <glyph glyph-name="cacute" unicode="&#x107;" horiz-adv-x="513" 
d="M213 649l155 84c31 16 53 15 66 -2l29 -43c15 -21 12 -31 -12 -40l-186 -64c-24 -8 -39 -7 -45 3l-16 24c-12 19 -11 29 9 38zM35 205l22 127c24 135 113 203 268 203c115 0 179 -53 194 -133c4 -29 -4 -43 -32 -52l-60 -20c-31 -11 -41 -4 -48 25c-9 33 -34 50 -77 50
c-54 0 -85 -25 -94 -76l-25 -139c-9 -50 13 -75 67 -75c40 0 71 17 92 51c16 28 29 33 56 24l63 -20c26 -10 31 -28 15 -53c-51 -88 -134 -132 -248 -132c-153 0 -217 84 -193 220z" />
    <glyph glyph-name="Ccircumflex" unicode="&#x108;" horiz-adv-x="640" 
d="M467 914h19c32 0 40 -2 61 -30l79 -97c13 -15 7 -30 -22 -30h-58c-33 0 -45 3 -57 20l-30 44l-49 -44c-19 -19 -28 -20 -61 -20h-60c-29 0 -31 15 -12 30l113 97c16 14 28 23 37 26c8 3 21 4 40 4zM57 262l36 204c29 167 150 259 339 259c139 0 220 -57 241 -171
c5 -29 -1 -43 -32 -52l-73 -24c-31 -9 -41 -4 -48 25c-10 49 -47 73 -112 73c-89 0 -140 -40 -154 -119l-36 -204c-14 -79 23 -119 112 -119c65 0 111 24 139 73c16 29 29 36 56 25l75 -29c27 -11 32 -24 17 -52c-61 -111 -164 -166 -311 -166c-187 0 -277 108 -249 277z
" />
    <glyph glyph-name="ccircumflex" unicode="&#x109;" horiz-adv-x="513" 
d="M230 581h-63c-28 0 -30 15 -11 31l113 96c17 14 29 23 37 26s21 5 40 5h18c31 0 38 -3 61 -31l78 -96c15 -16 7 -31 -22 -31h-55c-33 0 -44 3 -56 20l-30 44l-48 -43c-20 -19 -29 -21 -62 -21zM519 402c4 -29 -4 -43 -32 -52l-60 -20c-31 -11 -41 -4 -48 25
c-9 33 -34 50 -77 50c-54 0 -85 -25 -94 -76l-25 -139c-9 -50 13 -75 67 -75c40 0 71 17 92 51c16 28 29 33 56 24l63 -20c26 -10 31 -28 15 -53c-51 -88 -134 -132 -248 -132c-153 0 -217 84 -193 220l22 127c24 135 113 203 268 203c115 0 179 -53 194 -133z" />
    <glyph glyph-name="Cdotaccent" unicode="&#x10a;" horiz-adv-x="640" 
d="M467 903h6c51 0 64 -15 55 -66l-2 -8c-9 -51 -26 -66 -77 -66h-6c-51 0 -63 15 -55 66l2 8c9 51 26 66 77 66zM57 262l36 204c29 167 150 259 339 259c139 0 220 -57 241 -171c5 -29 -1 -43 -32 -52l-73 -24c-31 -9 -41 -4 -48 25c-10 49 -47 73 -112 73
c-89 0 -140 -40 -154 -119l-36 -204c-14 -79 23 -119 112 -119c65 0 111 24 139 73c16 29 29 36 56 25l75 -29c27 -11 32 -24 17 -52c-61 -111 -164 -166 -311 -166c-187 0 -277 108 -249 277z" />
    <glyph glyph-name="cdotaccent" unicode="&#x10b;" horiz-adv-x="513" 
d="M344 726h6c51 0 64 -15 55 -66l-2 -8c-8 -51 -26 -66 -77 -66h-6c-51 0 -63 15 -55 66l2 8c9 51 26 66 77 66zM35 205l22 127c24 135 113 203 268 203c115 0 179 -53 194 -133c4 -29 -4 -43 -32 -52l-60 -20c-31 -11 -41 -4 -48 25c-9 33 -34 50 -77 50
c-54 0 -85 -25 -94 -76l-25 -139c-9 -50 13 -75 67 -75c40 0 71 17 92 51c16 28 29 33 56 24l63 -20c26 -10 31 -28 15 -53c-51 -88 -134 -132 -248 -132c-153 0 -217 84 -193 220z" />
    <glyph glyph-name="Ccaron" unicode="&#x10c;" horiz-adv-x="640" 
d="M569 913h59c29 0 29 -15 10 -31l-112 -96c-32 -28 -41 -31 -73 -31h-18c-36 0 -43 3 -64 31l-79 96c-13 16 -8 31 21 31h59c33 0 41 -3 54 -20l34 -44l45 43c19 19 29 21 64 21zM57 262l36 204c29 167 150 259 339 259c139 0 220 -57 241 -171c5 -29 -1 -43 -32 -52
l-73 -24c-31 -9 -41 -4 -48 25c-10 49 -47 73 -112 73c-89 0 -140 -40 -154 -119l-36 -204c-14 -79 23 -119 112 -119c65 0 111 24 139 73c16 29 29 36 56 25l75 -29c27 -11 32 -24 17 -52c-61 -111 -164 -166 -311 -166c-187 0 -277 108 -249 277z" />
    <glyph glyph-name="ccaron" unicode="&#x10d;" horiz-adv-x="513" 
d="M248 610l-78 96c-15 16 -8 31 20 31h57c33 0 42 -3 54 -20l34 -44l45 43c19 19 31 21 64 21h61c28 0 32 -10 11 -31l-113 -96c-32 -28 -40 -31 -72 -31h-18c-36 0 -44 3 -65 31zM325 535c115 0 179 -53 194 -133c4 -29 -4 -43 -32 -52l-60 -20c-31 -11 -41 -4 -48 25
c-9 33 -34 50 -77 50c-54 0 -85 -25 -94 -76l-25 -139c-9 -50 13 -75 67 -75c40 0 71 17 92 51c16 28 29 33 56 24l63 -20c26 -10 31 -28 15 -53c-51 -88 -134 -132 -248 -132c-153 0 -217 84 -193 220l22 127c24 135 113 203 268 203z" />
    <glyph glyph-name="Dcaron" unicode="&#x10e;" horiz-adv-x="673" 
d="M525 913h60c28 0 29 -15 9 -31l-111 -96c-33 -28 -41 -31 -73 -31h-18c-36 0 -42 3 -65 31l-79 96c-13 16 -7 31 22 31h59c33 0 41 -3 54 -20l33 -44l46 43c19 19 30 21 63 21zM179 710h234c93 0 161 -26 204 -77s57 -119 42 -204l-30 -172c-31 -167 -147 -257 -335 -257
h-240c-31 0 -39 10 -34 41l111 628c7 31 17 41 48 41zM469 269l30 172c14 81 -24 121 -113 121h-112l-73 -413h112c89 0 141 40 156 120z" />
    <glyph glyph-name="dcaron" unicode="&#x10f;" horiz-adv-x="639" 
d="M37 206l22 127c25 139 107 202 252 202c29 0 59 -2 91 -6l31 174c5 28 16 37 44 37h78c27 0 34 -9 29 -37l-111 -629c-7 -33 -14 -42 -49 -55c-59 -23 -126 -34 -203 -34c-148 0 -209 86 -184 221zM782 701l-69 -161c-10 -22 -15 -32 -40 -32h-38c-20 0 -28 9 -23 26
l38 167c7 32 14 39 43 39h57c33 0 43 -13 32 -39zM333 132l45 262c-24 4 -46 6 -65 6c-63 0 -95 -23 -106 -82l-22 -125c-8 -47 18 -73 71 -73c29 0 54 2 73 7c1 1 3 2 4 5z" />
    <glyph glyph-name="Dcroat" unicode="&#x110;" horiz-adv-x="694" 
d="M195 710h235c93 0 161 -26 204 -77c43 -52 57 -120 42 -205l-30 -172c-31 -167 -146 -256 -341 -256h-235c-29 0 -38 10 -33 41l48 273h-51c-19 0 -22 5 -19 26l10 53c3 17 12 25 28 25h51l44 251c7 31 18 41 47 41zM486 269l29 172c16 81 -18 121 -113 121h-111
l-25 -144h107c17 0 22 -6 18 -25l-9 -53c-3 -20 -9 -26 -28 -26h-106l-30 -165h111c89 0 142 40 157 120z" />
    <glyph glyph-name="dslash" unicode="&#x111;" horiz-adv-x="545" 
d="M580 676h47c17 0 22 -6 19 -26l-7 -38c-3 -20 -9 -25 -28 -25h-46l-91 -513c-7 -33 -14 -42 -49 -55c-59 -23 -126 -34 -203 -34c-148 0 -210 83 -185 219l22 126c25 137 109 205 253 205c27 0 58 -2 91 -6l11 58h-102c-19 0 -22 5 -19 25l7 38c3 17 12 26 28 26h101
l5 27c5 28 16 37 44 37h77c28 0 35 -9 30 -37zM334 132l45 262c-24 4 -46 6 -65 6c-64 0 -95 -22 -106 -82l-22 -125c-9 -49 14 -73 71 -73c29 0 54 2 73 7c1 1 3 2 4 5z" />
    <glyph glyph-name="Emacron" unicode="&#x112;" horiz-adv-x="584" 
d="M294 883h234c28 0 34 -7 29 -35l-6 -33c-5 -27 -13 -34 -41 -34h-234c-28 0 -33 7 -28 34l5 33c5 27 16 35 41 35zM179 710h402c31 0 39 -10 34 -41l-12 -67c-5 -29 -17 -40 -48 -40h-281l-22 -129h231c29 0 38 -9 33 -40l-12 -67c-5 -31 -17 -41 -48 -41h-231l-24 -136
h291c31 0 38 -12 33 -41l-12 -67c-5 -31 -16 -41 -47 -41h-412c-31 0 -39 10 -34 41l111 628c7 31 17 41 48 41z" />
    <glyph glyph-name="emacron" unicode="&#x113;" horiz-adv-x="536" 
d="M462 604h-234c-27 0 -33 7 -29 35l6 33c5 27 16 34 41 34h234c28 0 34 -7 29 -34l-6 -33c-4 -28 -13 -35 -41 -35zM335 535c70 0 124 -17 162 -51c37 -35 51 -80 42 -137c-17 -95 -97 -142 -242 -142c-28 0 -65 3 -110 9l-4 -26c-10 -53 15 -79 75 -79c46 0 81 13 106 40
c23 24 33 28 60 13l45 -27c23 -14 24 -34 5 -59c-47 -61 -127 -91 -238 -91c-81 0 -138 22 -170 66s-42 100 -29 168l21 111c24 132 122 205 277 205zM392 361c5 35 -21 54 -77 54s-95 -31 -106 -80l-3 -13c43 -5 75 -8 97 -8c53 0 83 16 89 47z" />
    <glyph glyph-name="Ebreve" unicode="&#x114;" horiz-adv-x="584" 
d="M570 859c-35 -64 -102 -101 -181 -101s-131 37 -143 101c-3 17 5 28 22 34l56 20c21 7 29 4 34 -12c6 -26 22 -39 49 -39s49 13 64 39c11 16 18 18 34 13l54 -21c19 -8 20 -15 11 -34zM179 710h402c31 0 39 -10 34 -41l-12 -67c-5 -29 -17 -40 -48 -40h-281l-22 -129h231
c29 0 38 -9 33 -40l-12 -67c-5 -31 -17 -41 -48 -41h-231l-24 -136h291c31 0 38 -12 33 -41l-12 -67c-5 -31 -16 -41 -47 -41h-412c-31 0 -39 10 -34 41l111 628c7 31 17 41 48 41z" />
    <glyph glyph-name="ebreve" unicode="&#x115;" horiz-adv-x="536" 
d="M523 683c-38 -68 -97 -102 -178 -102c-79 0 -135 38 -147 102c-3 19 2 26 23 33l52 19c21 7 29 4 34 -12c6 -25 23 -38 52 -38c26 0 48 13 65 39c8 14 19 18 33 13l55 -21c17 -8 20 -14 11 -33zM37 219l21 111c24 132 122 205 277 205c70 0 124 -17 162 -51
c37 -35 51 -80 42 -137c-17 -95 -97 -142 -242 -142c-28 0 -65 3 -110 9l-4 -26c-10 -53 15 -79 75 -79c46 0 81 13 106 40c23 24 33 28 60 13l45 -27c23 -14 24 -34 5 -59c-47 -61 -127 -91 -238 -91c-81 0 -138 22 -170 66s-42 100 -29 168zM392 361c5 35 -21 54 -77 54
s-95 -31 -106 -80l-3 -13c43 -5 75 -8 97 -8c53 0 83 16 89 47z" />
    <glyph glyph-name="Edotaccent" unicode="&#x116;" horiz-adv-x="584" 
d="M411 903h6c51 0 64 -15 55 -66l-2 -8c-8 -51 -26 -66 -77 -66h-6c-51 0 -63 15 -54 66l2 8c8 51 25 66 76 66zM179 710h402c31 0 39 -10 34 -41l-12 -67c-5 -29 -17 -40 -48 -40h-281l-22 -129h231c29 0 38 -9 33 -40l-12 -67c-5 -31 -17 -41 -48 -41h-231l-24 -136h291
c31 0 38 -12 33 -41l-12 -67c-5 -31 -16 -41 -47 -41h-412c-31 0 -39 10 -34 41l111 628c7 31 17 41 48 41z" />
    <glyph glyph-name="edotaccent" unicode="&#x117;" horiz-adv-x="536" 
d="M364 726h6c51 0 63 -15 54 -66l-2 -8c-8 -51 -26 -66 -77 -66h-6c-51 0 -63 15 -54 66l2 8c8 51 25 66 77 66zM37 219l21 111c24 132 122 205 277 205c70 0 124 -17 162 -51c37 -35 51 -80 42 -137c-17 -95 -97 -142 -242 -142c-28 0 -65 3 -110 9l-4 -26
c-10 -53 15 -79 75 -79c46 0 81 13 106 40c23 24 33 28 60 13l45 -27c23 -14 24 -34 5 -59c-47 -61 -127 -91 -238 -91c-81 0 -138 22 -170 66s-42 100 -29 168zM392 361c5 35 -21 54 -77 54s-95 -31 -106 -80l-3 -13c43 -5 75 -8 97 -8c53 0 83 16 89 47z" />
    <glyph glyph-name="Eogonek" unicode="&#x118;" horiz-adv-x="584" 
d="M179 710h402c31 0 39 -10 34 -41l-12 -67c-5 -29 -17 -40 -48 -40h-281l-22 -129h231c29 0 38 -9 33 -40l-12 -67c-5 -31 -17 -41 -48 -41h-231l-24 -136h291c31 0 38 -12 33 -41l-12 -67c-3 -13 -8 -25 -16 -34c-57 -55 -86 -98 -86 -129c1 -13 7 -20 17 -20
c7 0 13 2 18 5c13 7 20 5 22 -6l11 -47c3 -12 0 -21 -7 -26c-24 -19 -60 -29 -108 -29c-51 0 -87 27 -87 75c0 55 38 112 115 170h-338c-31 0 -39 10 -34 41l111 628c7 31 17 41 48 41z" />
    <glyph glyph-name="eogonek" unicode="&#x119;" horiz-adv-x="537" 
d="M37 219l21 111c24 132 122 205 277 205c70 0 124 -17 162 -51c37 -35 51 -80 42 -137c-17 -95 -97 -142 -242 -142c-28 0 -65 3 -110 9l-4 -26c-10 -53 15 -79 75 -79c46 0 81 13 106 40c23 24 33 28 60 13l45 -27c23 -14 24 -34 5 -59c-11 -13 -19 -21 -23 -24
c-77 -86 -115 -144 -114 -174c0 -13 5 -20 16 -20c7 0 13 2 18 5c13 7 20 5 22 -6l12 -47c3 -11 0 -20 -8 -26c-24 -19 -60 -29 -108 -29c-49 0 -85 27 -85 75c0 54 31 107 94 159c-24 -3 -45 -4 -62 -4c-81 0 -138 22 -170 66s-42 100 -29 168zM303 314c53 0 83 16 89 47
c5 35 -21 54 -77 54s-95 -31 -106 -80l-3 -13c43 -5 75 -8 97 -8z" />
    <glyph glyph-name="Ecaron" unicode="&#x11a;" horiz-adv-x="584" 
d="M513 913h59c29 0 30 -15 10 -31l-112 -96c-32 -28 -41 -31 -73 -31h-18c-36 0 -41 3 -64 31l-79 96c-13 16 -7 31 21 31h59c33 0 40 -3 55 -20l33 -44l45 43c19 19 31 21 64 21zM179 710h402c31 0 39 -10 34 -41l-12 -67c-5 -29 -17 -40 -48 -40h-281l-22 -129h231
c29 0 38 -9 33 -40l-12 -67c-5 -31 -17 -41 -48 -41h-231l-24 -136h291c31 0 38 -12 33 -41l-12 -67c-5 -31 -16 -41 -47 -41h-412c-31 0 -39 10 -34 41l111 628c7 31 17 41 48 41z" />
    <glyph glyph-name="ecaron" unicode="&#x11b;" horiz-adv-x="536" 
d="M267 610l-78 96c-13 16 -8 31 21 31h56c33 0 42 -3 54 -20l34 -44l45 43c19 19 31 21 64 21h61c29 0 30 -15 11 -31l-113 -96c-32 -28 -40 -31 -72 -31h-18c-36 0 -42 3 -65 31zM335 535c70 0 124 -17 162 -51c37 -35 51 -80 42 -137c-17 -95 -97 -142 -242 -142
c-28 0 -65 3 -110 9l-4 -26c-10 -53 15 -79 75 -79c46 0 81 13 106 40c23 24 33 28 60 13l45 -27c23 -14 24 -34 5 -59c-47 -61 -127 -91 -238 -91c-81 0 -138 22 -170 66s-42 100 -29 168l21 111c24 132 122 205 277 205zM392 361c5 35 -21 54 -77 54s-95 -31 -106 -80
l-3 -13c43 -5 75 -8 97 -8c53 0 83 16 89 47z" />
    <glyph glyph-name="Gcircumflex" unicode="&#x11c;" horiz-adv-x="666" 
d="M463 924h20c31 0 39 -2 60 -30l79 -97c13 -15 7 -30 -21 -30h-59c-33 0 -44 3 -56 20l-30 44l-49 -44c-20 -19 -28 -20 -61 -20h-61c-29 0 -31 15 -11 30l112 97c17 14 29 23 38 26c8 3 21 4 39 4zM388 401h242c31 0 39 -10 34 -41l-26 -148
c-24 -140 -147 -227 -334 -227c-93 0 -160 26 -203 77s-58 119 -44 204l36 202c29 168 149 257 340 257c138 0 218 -57 241 -170c7 -29 0 -43 -31 -52l-75 -24c-31 -9 -41 -4 -48 25c-10 48 -48 72 -113 72c-89 0 -140 -40 -153 -119l-37 -204c-14 -79 23 -119 112 -119
c83 0 141 36 150 87l6 36h-122c-31 0 -39 10 -34 41l11 62c5 31 17 41 48 41z" />
    <glyph glyph-name="gcircumflex" unicode="&#x11d;" horiz-adv-x="544" 
d="M253 581h-63c-30 0 -27 15 -11 31l113 96c17 14 29 23 37 26s21 5 40 5h18c31 0 38 -3 61 -31l78 -96c15 -16 7 -31 -22 -31h-55c-33 0 -44 3 -56 20l-30 44l-48 -43c-20 -19 -29 -21 -62 -21zM511 502c29 -15 34 -23 27 -56l-81 -461c-25 -144 -113 -216 -262 -216
c-102 0 -168 32 -198 97c-12 25 -3 44 26 58l57 27c31 15 42 11 55 -13c14 -25 39 -38 76 -38c53 0 84 27 94 81l8 43c-32 -7 -62 -10 -90 -10c-144 0 -207 88 -183 223l18 98c25 140 109 200 269 200c81 0 143 -11 184 -33zM336 156l40 231c1 3 0 5 -3 6c-19 5 -39 7 -61 7
c-60 0 -95 -27 -106 -82l-17 -96c-8 -49 16 -73 71 -73c26 0 51 2 76 7z" />
    <glyph glyph-name="Gbreve" unicode="&#x11e;" horiz-adv-x="666" 
d="M623 869c-36 -64 -103 -101 -182 -101s-131 37 -143 101c-3 17 5 28 22 34l56 20c23 7 29 4 34 -12c6 -26 23 -39 50 -39s48 13 63 39c11 16 18 18 35 13l53 -21c19 -8 21 -15 12 -34zM388 401h242c31 0 39 -10 34 -41l-26 -148c-24 -140 -147 -227 -334 -227
c-93 0 -160 26 -203 77s-58 119 -44 204l36 202c29 168 149 257 340 257c138 0 218 -57 241 -170c7 -29 0 -43 -31 -52l-75 -24c-31 -9 -41 -4 -48 25c-10 48 -48 72 -113 72c-89 0 -140 -40 -153 -119l-37 -204c-14 -79 23 -119 112 -119c83 0 141 36 150 87l6 36h-122
c-31 0 -39 10 -34 41l11 62c5 31 17 41 48 41z" />
    <glyph glyph-name="gbreve" unicode="&#x11f;" horiz-adv-x="544" 
d="M526 683c-37 -68 -96 -102 -177 -102c-79 0 -135 38 -147 102c-3 16 5 27 22 33l52 19c23 7 28 4 35 -12c5 -25 23 -38 52 -38c26 0 48 13 65 39c8 14 19 18 33 13l55 -21c17 -8 19 -14 10 -33zM40 237l18 98c25 140 109 200 269 200c81 0 143 -11 184 -33
c29 -15 34 -23 27 -56l-81 -461c-25 -144 -113 -216 -262 -216c-102 0 -168 32 -198 97c-12 25 -3 44 26 58l57 27c31 15 42 11 55 -13c14 -25 39 -38 76 -38c53 0 84 27 94 81l8 43c-32 -7 -62 -10 -90 -10c-144 0 -207 88 -183 223zM373 393c-19 5 -39 7 -61 7
c-60 0 -95 -27 -106 -82l-17 -96c-8 -49 16 -73 71 -73c26 0 51 2 76 7l40 231c1 3 0 5 -3 6z" />
    <glyph glyph-name="Gdotaccent" unicode="&#x120;" horiz-adv-x="666" 
d="M464 913h6c51 0 63 -15 54 -66l-2 -8c-8 -51 -26 -66 -77 -66h-6c-51 0 -63 15 -54 66l2 8c8 51 25 66 77 66zM388 401h242c31 0 39 -10 34 -41l-26 -148c-24 -140 -147 -227 -334 -227c-93 0 -160 26 -203 77s-58 119 -44 204l36 202c29 168 149 257 340 257
c138 0 218 -57 241 -170c7 -29 0 -43 -31 -52l-75 -24c-31 -9 -41 -4 -48 25c-10 48 -48 72 -113 72c-89 0 -140 -40 -153 -119l-37 -204c-14 -79 23 -119 112 -119c83 0 141 36 150 87l6 36h-122c-31 0 -39 10 -34 41l11 62c5 31 17 41 48 41z" />
    <glyph glyph-name="gdotaccent" unicode="&#x121;" horiz-adv-x="544" 
d="M367 726h6c52 0 64 -15 55 -66l-2 -8c-8 -51 -26 -66 -77 -66h-6c-51 0 -63 15 -54 66l2 8c8 51 25 66 76 66zM40 237l18 98c25 140 109 200 269 200c81 0 143 -11 184 -33c29 -15 34 -23 27 -56l-81 -461c-25 -144 -113 -216 -262 -216c-102 0 -168 32 -198 97
c-12 25 -3 44 26 58l57 27c31 15 42 11 55 -13c14 -25 39 -38 76 -38c53 0 84 27 94 81l8 43c-32 -7 -62 -10 -90 -10c-144 0 -207 88 -183 223zM373 393c-19 5 -39 7 -61 7c-60 0 -95 -27 -106 -82l-17 -96c-8 -49 16 -73 71 -73c26 0 51 2 76 7l40 231c1 3 0 5 -3 6z" />
    <glyph glyph-name="Gcommaaccent" unicode="&#x122;" horiz-adv-x="666" 
d="M388 401h242c31 0 39 -10 34 -41l-26 -148c-24 -140 -147 -227 -334 -227c-93 0 -160 26 -203 77s-58 119 -44 204l36 202c29 168 149 257 340 257c138 0 218 -57 241 -170c7 -29 0 -43 -31 -52l-75 -24c-31 -9 -41 -4 -48 25c-10 48 -48 72 -113 72
c-89 0 -140 -40 -153 -119l-37 -204c-14 -79 23 -119 112 -119c83 0 141 36 150 87l6 36h-122c-31 0 -39 10 -34 41l11 62c5 31 17 41 48 41zM378 -93l-71 -134c-11 -22 -27 -33 -49 -33h-50c-21 0 -25 7 -18 26l40 141c8 29 19 39 50 39l70 1c33 0 42 -13 28 -40z" />
    <glyph glyph-name="gcommaaccent" unicode="&#x123;" horiz-adv-x="544" 
d="M278 621l58 105c15 25 20 30 48 30h41c24 0 31 -7 26 -28l-33 -107c-11 -33 -17 -42 -48 -42h-61c-33 0 -43 14 -31 42zM40 237l18 98c25 140 109 200 269 200c81 0 143 -11 184 -33c29 -15 34 -23 27 -56l-81 -461c-25 -144 -113 -216 -262 -216c-102 0 -168 32 -198 97
c-12 25 -3 44 26 58l57 27c31 15 42 11 55 -13c14 -25 39 -38 76 -38c53 0 84 27 94 81l8 43c-32 -7 -62 -10 -90 -10c-144 0 -207 88 -183 223zM373 393c-19 5 -39 7 -61 7c-60 0 -95 -27 -106 -82l-17 -96c-8 -49 16 -73 71 -73c26 0 51 2 76 7l40 231c1 3 0 5 -3 6z" />
    <glyph glyph-name="Hcircumflex" unicode="&#x124;" horiz-adv-x="691" 
d="M452 914h19c32 0 40 -2 61 -30l79 -97c13 -15 7 -30 -22 -30h-58c-33 0 -45 3 -57 20l-29 44l-49 -44c-20 -19 -29 -20 -62 -20h-60c-29 0 -31 15 -11 30l112 97c16 14 28 23 37 26c8 3 21 4 40 4zM583 710h81c31 0 38 -10 33 -41l-111 -628c-5 -31 -16 -41 -47 -41h-81
c-31 0 -39 10 -34 41l43 244h-241l-43 -244c-5 -31 -17 -41 -48 -41h-81c-31 0 -39 10 -34 41l111 628c5 31 17 41 48 41h81c31 0 38 -10 33 -41l-41 -235h242l41 235c7 31 17 41 48 41z" />
    <glyph glyph-name="hcircumflex" unicode="&#x125;" horiz-adv-x="557" 
d="M124 788h-63c-29 0 -30 15 -11 30l113 97c15 14 27 23 36 26c8 3 21 4 40 4h18c32 0 40 -2 61 -30l79 -97c13 -15 7 -30 -22 -30h-55c-35 0 -45 3 -56 20l-31 44l-47 -44c-21 -19 -29 -20 -62 -20zM340 535c143 0 202 -81 178 -214l-49 -284c-5 -28 -16 -37 -44 -37h-78
c-27 0 -35 9 -30 37l50 286c10 50 -14 75 -71 75c-28 0 -60 -4 -70 -7l-5 -1l-62 -353c-5 -28 -16 -37 -43 -37h-78c-28 0 -35 9 -30 37l117 666c5 28 16 37 44 37h78c27 0 34 -9 29 -37l-30 -175h6c13 3 50 7 88 7z" />
    <glyph glyph-name="Hbar" unicode="&#x126;" horiz-adv-x="707" 
d="M696 619h40c19 0 23 -6 19 -25l-8 -40c-3 -20 -8 -25 -27 -25h-40l-86 -488c-5 -31 -17 -41 -48 -41h-81c-31 0 -39 10 -34 41l43 244h-241l-43 -244c-5 -31 -17 -41 -48 -41h-81c-31 0 -38 10 -33 41l86 488h-39c-19 0 -22 5 -19 25l7 40c3 17 13 25 28 25h39l8 50
c5 31 17 41 48 41h81c31 0 39 -10 34 -41l-8 -50h241l8 50c5 31 17 41 48 41h81c31 0 39 -10 34 -41zM518 529h-242l-16 -95h241z" />
    <glyph glyph-name="hbar" unicode="&#x127;" horiz-adv-x="557" 
d="M256 588l-10 -60h6c13 3 50 7 88 7c143 0 202 -81 178 -214l-49 -284c-5 -28 -16 -37 -44 -37h-78c-27 0 -35 9 -30 37l50 286c10 50 -14 75 -71 75c-28 0 -60 -4 -70 -7l-5 -1l-62 -353c-5 -28 -16 -37 -43 -37h-78c-28 0 -35 9 -30 37l97 551h-38c-19 0 -23 5 -19 25
l6 35c3 17 12 26 28 26h38l5 29c5 28 16 37 44 37h78c27 0 34 -9 29 -37l-5 -29h115c19 0 23 -6 20 -26l-6 -35c-4 -20 -9 -25 -28 -25h-116z" />
    <glyph glyph-name="Itilde" unicode="&#x128;" horiz-adv-x="287" 
d="M342 904h44c16 0 22 -8 19 -23c-16 -87 -48 -118 -111 -118c-25 0 -48 8 -69 25c-22 17 -38 25 -48 25s-17 -10 -21 -29c-3 -14 -11 -21 -24 -21h-45c-15 0 -21 7 -18 22c15 87 49 119 108 119c27 0 51 -8 73 -25s38 -25 47 -25c11 0 18 9 21 28c3 15 11 22 24 22zM20 40
l111 630c7 31 18 40 47 40h82c31 0 38 -11 33 -40l-111 -630c-5 -29 -16 -40 -47 -40h-82c-29 0 -38 9 -33 40z" />
    <glyph glyph-name="itilde" unicode="&#x129;" horiz-adv-x="252" 
d="M277 738h46c12 0 17 -8 14 -23c-15 -88 -49 -118 -104 -118c-18 0 -35 7 -50 22s-27 22 -35 22c-15 0 -23 -8 -25 -24c-3 -15 -10 -22 -21 -22h-50c-13 0 -18 8 -15 23c15 80 49 120 104 120c57 0 65 -49 94 -49c11 0 19 9 22 28c2 14 9 21 20 21zM130 520h78
c27 0 34 -9 29 -37l-78 -446c-5 -28 -16 -37 -43 -37h-78c-28 0 -35 9 -30 37l78 446c5 28 16 37 44 37z" />
    <glyph glyph-name="Imacron" unicode="&#x12a;" horiz-adv-x="287" 
d="M133 883h234c28 0 34 -7 29 -35l-6 -33c-5 -27 -13 -34 -40 -34h-235c-27 0 -33 7 -28 34l6 33c5 27 15 35 40 35zM20 40l111 630c7 31 18 40 47 40h82c31 0 38 -11 33 -40l-111 -630c-5 -29 -16 -40 -47 -40h-82c-29 0 -38 9 -33 40z" />
    <glyph glyph-name="imacron" unicode="&#x12b;" horiz-adv-x="252" 
d="M103 700h183c19 0 22 -6 17 -33l-6 -32c-4 -27 -9 -34 -28 -34h-183c-17 0 -21 7 -17 34l6 32c5 27 12 33 28 33zM130 520h78c27 0 34 -9 29 -37l-78 -446c-5 -28 -16 -37 -43 -37h-78c-28 0 -35 9 -30 37l78 446c5 28 16 37 44 37z" />
    <glyph glyph-name="Ibreve" unicode="&#x12c;" horiz-adv-x="287" 
d="M410 859c-35 -64 -102 -101 -181 -101s-132 37 -144 101c-3 16 5 27 22 34l56 20c23 7 29 4 34 -12c6 -26 23 -39 50 -39s48 13 63 39c9 13 21 18 35 13l54 -21c17 -8 20 -15 11 -34zM20 40l111 630c7 31 18 40 47 40h82c31 0 38 -11 33 -40l-111 -630
c-5 -29 -16 -40 -47 -40h-82c-29 0 -38 9 -33 40z" />
    <glyph glyph-name="ibreve" unicode="&#x12d;" horiz-adv-x="252" 
d="M287 737l55 -21c17 -8 20 -14 11 -33c-38 -68 -95 -102 -170 -102c-77 0 -127 38 -138 102c-4 17 2 26 22 33l55 20c21 7 30 5 35 -12c5 -25 19 -37 41 -37s41 12 56 37c9 15 20 19 33 13zM130 520h78c27 0 34 -9 29 -37l-78 -446c-5 -28 -16 -37 -43 -37h-78
c-28 0 -35 9 -30 37l78 446c5 28 16 37 44 37z" />
    <glyph glyph-name="Iogonek" unicode="&#x12e;" horiz-adv-x="287" 
d="M141 -143l11 -41c3 -11 0 -19 -7 -26c-31 -23 -67 -35 -108 -35c-57 0 -86 22 -86 66c-1 55 35 122 103 179c-37 0 -43 10 -36 42l110 628c7 31 18 40 47 40h82c31 0 38 -11 33 -40l-111 -630c-3 -17 -8 -28 -16 -35c-55 -51 -78 -102 -78 -129c1 -12 7 -18 16 -18
c7 0 13 2 19 5c12 7 19 5 21 -6z" />
    <glyph glyph-name="iogonek" unicode="&#x12f;" horiz-adv-x="252" 
d="M190 567h-21c-55 0 -67 18 -58 71l1 10c9 53 30 71 85 71h20c55 0 69 -18 58 -71l-1 -10c-11 -55 -31 -71 -84 -71zM139 -144l8 -40c2 -11 -1 -20 -8 -26c-31 -23 -65 -35 -103 -35c-55 0 -84 22 -87 65c-5 49 26 109 93 180c-28 0 -36 10 -31 38l78 445
c5 28 16 37 44 37h78c27 0 34 -9 29 -37l-78 -446c-3 -15 -8 -24 -14 -29c-45 -53 -66 -97 -64 -132c0 -12 5 -18 16 -18c7 0 12 1 17 4c11 6 19 4 22 -6z" />
    <glyph glyph-name="Idot" unicode="&#x130;" horiz-adv-x="287" 
d="M251 903h6c51 0 63 -15 55 -66l-2 -8c-9 -51 -27 -66 -78 -66h-6c-51 0 -63 15 -54 66l2 8c8 51 26 66 77 66zM20 40l111 630c7 31 18 40 47 40h82c31 0 38 -11 33 -40l-111 -630c-5 -29 -16 -40 -47 -40h-82c-29 0 -38 9 -33 40z" />
    <glyph glyph-name="dotlessi" unicode="&#x131;" horiz-adv-x="252" 
d="M130 520h78c27 0 34 -9 29 -37l-78 -446c-5 -28 -16 -37 -43 -37h-78c-28 0 -35 9 -30 37l78 446c5 28 16 37 44 37z" />
    <glyph glyph-name="IJ" unicode="&#x132;" horiz-adv-x="870" 
d="M20 40l111 630c7 31 18 40 47 40h82c31 0 38 -11 33 -40l-111 -630c-5 -29 -16 -40 -47 -40h-82c-29 0 -38 9 -33 40zM766 710h83c29 0 38 -9 33 -40l-79 -446c-28 -159 -127 -239 -297 -239c-131 0 -206 54 -227 162c-5 29 2 43 33 52l74 25c31 9 40 4 47 -25
c12 -44 42 -66 91 -66c67 0 107 36 120 107l75 430c7 31 18 40 47 40z" />
    <glyph glyph-name="ij" unicode="&#x133;" horiz-adv-x="501" 
d="M194 719h20c55 0 69 -18 58 -71l-1 -10c-11 -55 -31 -71 -84 -71h-21c-55 0 -67 18 -58 71l1 10c9 53 30 71 85 71zM442 719h21c55 0 67 -18 58 -71l-1 -10c-11 -55 -31 -71 -84 -71h-21c-55 0 -67 18 -58 71l1 10c11 55 31 71 84 71zM130 520h78c27 0 34 -9 29 -37
l-78 -446c-5 -28 -16 -37 -43 -37h-78c-28 0 -35 9 -30 37l78 446c5 28 16 37 44 37zM380 520h75c29 0 36 -9 31 -37l-86 -491c-27 -148 -120 -222 -281 -222c-29 0 -37 9 -32 38l11 62c5 28 16 37 45 37c61 0 96 31 107 92l85 484c5 28 16 37 45 37z" />
    <glyph glyph-name="Jcircumflex" unicode="&#x134;" horiz-adv-x="579" 
d="M547 914h20c31 0 39 -2 60 -30l79 -97c13 -15 8 -30 -21 -30h-58c-35 0 -45 3 -57 20l-30 44l-49 -44c-20 -19 -28 -20 -61 -20h-61c-28 0 -31 15 -11 30l112 97c17 14 29 23 38 26c8 3 21 4 39 4zM475 710h83c29 0 37 -11 32 -40l-78 -446c-29 -160 -125 -239 -297 -239
c-131 0 -206 54 -227 162c-5 29 1 43 32 52l74 25c31 9 41 4 48 -25c12 -44 42 -66 91 -66c67 0 107 36 119 107l76 430c7 31 16 40 47 40z" />
    <glyph glyph-name="jcircumflex" unicode="&#x135;" horiz-adv-x="252" 
d="M198 734h17c31 0 37 -3 60 -30l77 -94c13 -16 7 -30 -22 -30h-53c-33 0 -44 3 -55 19l-30 43l-47 -42c-20 -19 -28 -20 -60 -20h-61c-28 0 -32 10 -12 30l111 94c16 13 28 22 36 25s21 5 39 5zM131 520h76c28 0 35 -9 30 -37l-86 -491c-27 -148 -120 -222 -281 -222
c-28 0 -36 10 -31 38l10 62c5 28 17 37 45 37c61 0 96 31 107 92l85 484c5 28 16 37 45 37z" />
    <glyph glyph-name="Kcommaaccent" unicode="&#x136;" horiz-adv-x="641" 
d="M499 287l85 -244c11 -24 0 -43 -29 -43h-80c-52 0 -66 6 -75 37l-60 190c-16 47 -32 60 -88 60h-26l-44 -246c-5 -31 -16 -41 -47 -41h-81c-31 0 -39 10 -34 41l111 628c7 31 17 41 48 41h81c31 0 38 -10 33 -41l-42 -236h16h11l219 243c13 15 25 24 35 28c9 4 26 6 50 6
h88c28 0 33 -19 14 -40l-261 -282c34 -19 59 -53 76 -101zM340 -93l-71 -134c-12 -24 -24 -33 -48 -33h-50c-21 0 -26 7 -19 26l41 141c8 29 20 39 49 39l71 1c33 0 42 -13 27 -40z" />
    <glyph glyph-name="kcommaaccent" unicode="&#x137;" horiz-adv-x="535" 
d="M416 221l57 -176c11 -32 2 -45 -34 -45h-67c-43 0 -52 5 -60 34l-32 128c-7 27 -26 40 -57 40h-35l-29 -164c-5 -29 -16 -38 -45 -38h-75c-29 0 -36 9 -31 38l117 664c5 29 16 38 45 38h75c29 0 36 -9 31 -38l-65 -371h21h6l141 159c23 27 33 30 76 30h67
c37 0 43 -15 17 -44l-166 -184c17 -13 32 -37 43 -71zM290 -90l-56 -108c-15 -27 -25 -33 -52 -33h-42c-24 0 -28 6 -21 27l31 114c9 33 23 43 56 43h61c31 0 39 -14 23 -43z" />
    <glyph glyph-name="kgreenlandic" unicode="&#x138;" horiz-adv-x="550" 
d="M357 289l86 -244c9 -30 -4 -45 -40 -45h-67c-44 0 -54 4 -63 31l-47 144l-61 -53l-27 -83c-9 -29 -22 -39 -51 -39h-74c-29 0 -35 8 -26 39l142 443c9 29 22 38 51 38h74c29 0 35 -9 26 -38l-50 -145l181 154c28 25 39 29 80 29h75c38 0 41 -14 9 -43z" />
    <glyph glyph-name="Lacute" unicode="&#x139;" horiz-adv-x="533" 
d="M119 826l156 83c31 16 53 15 66 -3l28 -43c15 -21 12 -31 -12 -40l-186 -62c-25 -8 -40 -7 -45 2l-15 25c-12 19 -11 29 8 38zM179 710h81c31 0 38 -10 33 -41l-91 -520h258c31 0 38 -12 33 -41l-11 -67c-5 -31 -17 -41 -48 -41h-380c-31 0 -39 10 -34 41l111 628
c7 31 17 41 48 41z" />
    <glyph glyph-name="lacute" unicode="&#x13a;" horiz-adv-x="256" 
d="M106 851l150 80c29 15 49 13 61 -5l29 -49c13 -21 13 -32 -12 -40l-175 -56c-24 -9 -39 -8 -45 2l-17 30c-12 19 -10 29 9 38zM278 703l-117 -666c-5 -28 -16 -37 -44 -37h-77c-28 0 -35 9 -30 37l117 666c5 28 16 37 44 37h77c28 0 35 -9 30 -37z" />
    <glyph glyph-name="Lcommaaccent" unicode="&#x13b;" horiz-adv-x="533" 
d="M179 710h81c31 0 38 -10 33 -41l-91 -520h258c31 0 38 -12 33 -41l-11 -67c-5 -31 -17 -41 -48 -41h-380c-31 0 -39 10 -34 41l111 628c7 31 17 41 48 41zM296 -93l-70 -134c-11 -22 -27 -33 -49 -33h-50c-21 0 -26 7 -19 26l41 141c8 29 19 39 50 39l70 1
c33 0 42 -13 27 -40z" />
    <glyph glyph-name="lcommaaccent" unicode="&#x13c;" horiz-adv-x="256" 
d="M277 703l-117 -666c-5 -28 -16 -37 -44 -37h-77c-28 0 -35 9 -30 37l117 666c5 28 16 37 44 37h77c28 0 35 -9 30 -37zM131 -85l-60 -118c-13 -27 -26 -34 -54 -34h-43c-23 0 -27 7 -20 28l36 124c9 33 22 42 55 42h62c31 0 39 -14 24 -42z" />
    <glyph glyph-name="Lcaron" unicode="&#x13d;" horiz-adv-x="537" 
d="M179 710h81c31 0 38 -10 33 -41l-91 -520h258c31 0 38 -12 33 -41l-11 -67c-5 -31 -17 -41 -48 -41h-380c-31 0 -39 10 -34 41l111 628c7 31 17 41 48 41zM546 672l-85 -160c-12 -25 -22 -33 -47 -33h-40c-20 0 -23 5 -18 25l48 168c9 29 20 38 49 38h66
c31 0 40 -13 27 -38z" />
    <glyph glyph-name="lcaron" unicode="&#x13e;" horiz-adv-x="283" 
d="M278 703l-117 -666c-5 -28 -16 -37 -44 -37h-77c-28 0 -35 9 -30 37l117 666c5 28 16 37 44 37h77c28 0 35 -9 30 -37zM480 702l-71 -138c-12 -25 -18 -32 -42 -32h-39c-19 0 -26 10 -20 31l42 139c9 29 15 38 43 38h55c35 0 45 -13 32 -38z" />
    <glyph glyph-name="Ldot" unicode="&#x13f;" horiz-adv-x="535" 
d="M179 710h81c31 0 38 -10 33 -41l-91 -520h258c31 0 38 -12 33 -41l-11 -67c-5 -31 -17 -41 -48 -41h-380c-31 0 -39 10 -34 41l111 628c7 31 17 41 48 41zM401 479h16c56 0 70 -18 61 -74l-3 -19c-11 -56 -31 -74 -87 -74h-17c-56 0 -70 18 -61 74l3 19
c11 56 31 74 88 74z" />
    <glyph glyph-name="ldot" unicode="&#x140;" horiz-adv-x="430" 
d="M278 703l-117 -666c-5 -28 -16 -37 -44 -37h-77c-28 0 -35 9 -30 37l117 666c5 28 16 37 44 37h77c28 0 35 -9 30 -37zM366 462h17c57 0 71 -18 62 -75l-3 -19c-11 -57 -32 -76 -89 -76h-17c-57 0 -73 19 -62 76l3 19c9 57 32 75 89 75z" />
    <glyph glyph-name="Lslash" unicode="&#x141;" horiz-adv-x="564" 
d="M237 149h259c31 0 38 -12 33 -41l-12 -67c-5 -31 -16 -41 -47 -41h-380c-31 0 -39 10 -34 41l37 208l-46 -19c-19 -9 -32 -5 -37 12l-15 44c-5 17 1 28 18 35l100 42l54 306c7 31 17 41 48 41h81c31 0 38 -10 33 -41l-41 -234l135 57c20 7 33 3 38 -13l14 -45
c5 -17 -1 -28 -19 -34l-188 -78z" />
    <glyph glyph-name="lslash" unicode="&#x142;" horiz-adv-x="359" 
d="M369 479l16 -40c7 -16 2 -28 -15 -35l-98 -49l-57 -318c-5 -28 -16 -37 -43 -37h-78c-28 0 -35 9 -30 37l42 237l-35 -17c-20 -10 -33 -7 -39 10l-16 41c-6 15 -1 27 16 35l94 46l55 314c5 28 16 37 44 37h78c27 0 34 -9 29 -37l-40 -233l39 19c23 11 31 7 38 -10z" />
    <glyph glyph-name="Nacute" unicode="&#x143;" horiz-adv-x="701" 
d="M327 826l156 83c31 16 53 15 66 -3l28 -43c13 -21 13 -32 -12 -40l-187 -62c-24 -8 -39 -7 -45 2l-14 25c-13 19 -11 27 8 38zM596 710h77c31 0 39 -10 34 -41l-111 -628c-5 -31 -17 -41 -48 -41h-80c-17 0 -29 6 -35 19l-143 298c-25 53 -42 115 -50 187h-8
c5 -75 2 -150 -11 -224l-42 -239c-5 -31 -17 -41 -48 -41h-77c-31 0 -39 10 -34 41l111 628c7 31 17 41 48 41h77c19 0 32 -6 39 -19l146 -303c20 -42 35 -98 42 -128c4 -21 9 -50 9 -51h7c-9 70 -7 144 7 221l43 239c5 31 16 41 47 41z" />
    <glyph glyph-name="nacute" unicode="&#x144;" 
d="M215 649l155 84c31 16 53 15 66 -2l29 -43c15 -21 12 -31 -12 -40l-186 -64c-24 -8 -39 -7 -46 3l-15 24c-12 19 -11 29 9 38zM127 499c63 24 134 36 211 36c143 0 202 -81 178 -216l-49 -282c-5 -28 -16 -37 -44 -37h-78c-27 0 -35 9 -30 37l50 286c9 50 -14 75 -71 75
c-26 0 -50 -3 -72 -9c-1 0 -3 -1 -4 -4l-61 -348c-5 -28 -16 -37 -43 -37h-78c-28 0 -35 9 -30 37l71 404c7 33 15 45 50 58z" />
    <glyph glyph-name="Ncommaaccent" unicode="&#x145;" horiz-adv-x="701" 
d="M596 710h77c31 0 39 -10 34 -41l-111 -628c-5 -31 -17 -41 -48 -41h-80c-17 0 -29 6 -35 19l-143 298c-25 53 -42 115 -50 187h-8c5 -75 2 -150 -11 -224l-42 -239c-5 -31 -17 -41 -48 -41h-77c-31 0 -39 10 -34 41l111 628c7 31 17 41 48 41h77c19 0 32 -6 39 -19
l146 -303c20 -42 35 -98 42 -128c4 -21 9 -50 9 -51h7c-9 70 -7 144 7 221l43 239c5 31 16 41 47 41zM371 -93l-71 -134c-11 -22 -27 -33 -48 -33h-50c-21 0 -26 7 -19 26l40 141c8 29 19 39 50 39l70 1c33 0 42 -13 28 -40z" />
    <glyph glyph-name="ncommaaccent" unicode="&#x146;" 
d="M127 499c63 24 134 36 211 36c143 0 202 -81 178 -216l-49 -282c-5 -28 -16 -37 -44 -37h-78c-27 0 -35 9 -30 37l50 286c9 50 -14 75 -71 75c-26 0 -50 -3 -72 -9c-1 0 -3 -1 -4 -4l-61 -348c-5 -28 -16 -37 -43 -37h-78c-28 0 -35 9 -30 37l71 404c7 33 15 45 50 58z
M293 -80l-58 -109c-13 -27 -24 -33 -53 -33h-42c-23 0 -27 6 -20 27l33 115c9 33 22 43 54 43h62c33 0 40 -14 24 -43z" />
    <glyph glyph-name="Ncaron" unicode="&#x147;" horiz-adv-x="701" 
d="M560 913h59c29 0 30 -15 10 -31l-112 -96c-32 -28 -41 -31 -73 -31h-18c-36 0 -41 3 -64 31l-79 96c-13 16 -7 31 22 31h58c33 0 40 -3 55 -20l33 -44l45 43c19 19 31 21 64 21zM596 710h77c31 0 39 -10 34 -41l-111 -628c-5 -31 -17 -41 -48 -41h-80c-17 0 -29 6 -35 19
l-143 298c-25 53 -42 115 -50 187h-8c5 -75 2 -150 -11 -224l-42 -239c-5 -31 -17 -41 -48 -41h-77c-31 0 -39 10 -34 41l111 628c7 31 17 41 48 41h77c19 0 32 -6 39 -19l146 -303c20 -42 35 -98 42 -128c4 -21 9 -50 9 -51h7c-9 70 -7 144 7 221l43 239c5 31 16 41 47 41z
" />
    <glyph glyph-name="ncaron" unicode="&#x148;" 
d="M249 610l-77 96c-15 16 -8 31 20 31h57c33 0 42 -3 54 -20l33 -44l46 43c19 19 31 21 64 21h61c29 0 29 -15 10 -31l-112 -96c-32 -28 -40 -31 -72 -31h-18c-37 0 -43 3 -66 31zM338 535c143 0 202 -81 178 -216l-49 -282c-5 -28 -16 -37 -44 -37h-78c-27 0 -35 9 -30 37
l50 286c9 50 -14 75 -71 75c-26 0 -50 -3 -72 -9c-1 0 -3 -1 -4 -4l-61 -348c-5 -28 -16 -37 -43 -37h-78c-28 0 -35 9 -30 37l71 404c7 33 15 45 50 58c63 24 134 36 211 36z" />
    <glyph glyph-name="napostrophe" unicode="&#x149;" 
d="M237 701l-102 -139c-15 -20 -20 -24 -44 -24h-49c-19 0 -25 8 -18 24l68 144c8 16 8 17 16 25c7 8 13 8 28 8h78c32 0 39 -15 23 -38zM127 499c63 24 134 36 211 36c143 0 202 -81 178 -216l-49 -282c-5 -28 -16 -37 -44 -37h-78c-27 0 -35 9 -30 37l50 286
c9 50 -14 75 -71 75c-26 0 -50 -3 -72 -9c-1 0 -3 -1 -4 -4l-61 -348c-5 -28 -16 -37 -43 -37h-78c-28 0 -35 9 -30 37l71 404c7 33 15 45 50 58z" />
    <glyph glyph-name="Eng" unicode="&#x14a;" horiz-adv-x="701" 
d="M596 710h77c31 0 39 -10 34 -41l-119 -677c-27 -148 -120 -222 -281 -222c-29 0 -37 9 -32 38l11 62c5 28 16 37 45 37c63 0 91 31 102 91l2 14l-145 305c-25 54 -42 116 -50 187h-8c5 -78 2 -153 -11 -224l-42 -239c-5 -31 -17 -41 -48 -41h-77c-31 0 -39 10 -34 41
l111 628c7 31 17 41 48 41h78c18 0 30 -6 37 -19l146 -303c17 -36 33 -83 38 -109s12 -66 13 -70h8c-9 70 -7 144 7 221l42 239c7 31 17 41 48 41z" />
    <glyph glyph-name="eng" unicode="&#x14b;" 
d="M127 499c63 24 134 36 211 36c143 0 202 -81 178 -216l-59 -335c-25 -143 -115 -214 -272 -214c-27 0 -34 8 -29 36l10 60c5 28 15 36 43 36c60 0 87 29 98 88l58 333c9 50 -14 75 -71 75c-26 0 -50 -3 -72 -9c-1 0 -3 -1 -4 -4l-61 -348c-5 -28 -16 -37 -43 -37h-78
c-28 0 -35 9 -30 37l71 404c7 33 15 45 50 58z" />
    <glyph glyph-name="Omacron" unicode="&#x14c;" horiz-adv-x="675" 
d="M347 893h234c28 0 34 -7 29 -35l-6 -33c-5 -27 -13 -34 -41 -34h-234c-28 0 -33 7 -28 34l5 33c5 27 16 35 41 35zM57 262l36 203c29 167 149 260 337 260c93 0 162 -25 206 -76c43 -51 58 -119 44 -204l-36 -203c-29 -167 -148 -257 -337 -257c-93 0 -162 25 -205 76
c-44 50 -59 117 -45 201zM484 251l37 208c13 77 -28 117 -113 117c-89 0 -140 -39 -153 -117l-37 -208c-13 -77 27 -117 112 -117c89 0 140 39 154 117z" />
    <glyph glyph-name="omacron" unicode="&#x14d;" horiz-adv-x="547" 
d="M461 604h-234c-27 0 -33 7 -29 35l6 33c5 27 16 34 41 34h234c28 0 34 -7 29 -34l-6 -33c-4 -28 -13 -35 -41 -35zM145 482c47 35 109 53 186 53s133 -19 168 -58s46 -93 34 -160l-22 -129c-24 -132 -117 -203 -274 -203c-153 0 -226 82 -202 215l22 129
c12 66 41 117 88 153zM360 194l24 132c8 50 -17 75 -75 75s-92 -25 -101 -75l-23 -132c-9 -50 15 -75 74 -75c58 0 92 25 101 75z" />
    <glyph glyph-name="Obreve" unicode="&#x14e;" horiz-adv-x="675" 
d="M623 869c-35 -64 -102 -101 -181 -101s-131 37 -143 101c-3 17 5 28 22 34l56 20c21 7 29 4 34 -12c6 -26 22 -39 49 -39s49 13 64 39c11 16 18 18 34 13l54 -21c19 -8 20 -15 11 -34zM57 262l36 203c29 167 149 260 337 260c93 0 162 -25 206 -76
c43 -51 58 -119 44 -204l-36 -203c-29 -167 -148 -257 -337 -257c-93 0 -162 25 -205 76c-44 50 -59 117 -45 201zM484 251l37 208c13 77 -28 117 -113 117c-89 0 -140 -39 -153 -117l-37 -208c-13 -77 27 -117 112 -117c89 0 140 39 154 117z" />
    <glyph glyph-name="obreve" unicode="&#x14f;" horiz-adv-x="547" 
d="M522 683c-38 -68 -97 -102 -178 -102c-79 0 -135 38 -147 102c-3 19 2 26 23 33l52 19c21 7 29 4 34 -12c6 -25 23 -38 52 -38c26 0 48 13 65 39c8 14 19 18 33 13l55 -21c17 -8 20 -14 11 -33zM35 200l22 129c24 132 119 206 274 206s226 -83 202 -218l-22 -129
c-24 -132 -117 -203 -274 -203c-153 0 -226 82 -202 215zM360 194l24 132c8 50 -17 75 -75 75s-92 -25 -101 -75l-23 -132c-9 -50 15 -75 74 -75c58 0 92 25 101 75z" />
    <glyph glyph-name="Ohungarumlaut" unicode="&#x150;" horiz-adv-x="675" 
d="M360 770l-25 7c-19 6 -21 18 -6 37l80 90c19 23 42 31 67 24l41 -14c16 16 35 21 57 15l48 -14c25 -8 24 -26 3 -41l-128 -93c-24 -17 -26 -19 -45 -15l-25 7c-12 3 -18 8 -18 15l-4 -3c-19 -15 -34 -20 -45 -15zM430 725c93 0 162 -25 206 -76c43 -51 58 -119 44 -204
l-36 -203c-29 -167 -148 -257 -337 -257c-93 0 -162 25 -205 76c-44 50 -59 117 -45 201l36 203c29 167 149 260 337 260zM484 251l37 208c13 77 -28 117 -113 117c-89 0 -140 -39 -153 -117l-37 -208c-13 -77 27 -117 112 -117c89 0 140 39 154 117z" />
    <glyph glyph-name="ohungarumlaut" unicode="&#x151;" horiz-adv-x="547" 
d="M257 577l-26 8c-19 5 -21 17 -4 36l79 91c21 23 43 31 67 24l41 -15c17 16 36 21 57 15l48 -14c24 -8 26 -25 4 -41l-129 -92c-19 -15 -34 -20 -45 -15l-25 6c-11 3 -17 8 -18 15l-4 -3c-23 -16 -30 -20 -45 -15zM145 482c47 35 109 53 186 53s133 -19 168 -58
s46 -93 34 -160l-22 -129c-24 -132 -117 -203 -274 -203c-153 0 -226 82 -202 215l22 129c12 66 41 117 88 153zM360 194l24 132c8 50 -17 75 -75 75s-92 -25 -101 -75l-23 -132c-9 -50 15 -75 74 -75c58 0 92 25 101 75z" />
    <glyph glyph-name="OE" unicode="&#x152;" horiz-adv-x="870" 
d="M564 149h232c31 0 38 -12 33 -41l-11 -67c-5 -31 -17 -41 -48 -41h-347c-33 -10 -73 -15 -119 -15c-93 0 -160 26 -203 78s-57 120 -42 205l35 202c29 165 151 255 340 255c43 0 80 -5 111 -15h340c31 0 39 -10 34 -41l-12 -67c-5 -29 -17 -40 -48 -40h-222l-22 -129h172
c31 0 38 -11 33 -40l-11 -67c-5 -31 -18 -41 -49 -41h-172zM255 459l-37 -208c-13 -77 27 -117 112 -117c27 0 50 4 71 11l74 420c-19 7 -41 11 -67 11c-85 0 -140 -40 -153 -117z" />
    <glyph glyph-name="oe" unicode="&#x153;" horiz-adv-x="804" 
d="M465 478c43 38 96 57 158 57c137 0 204 -64 184 -179c-19 -97 -98 -151 -229 -151c-25 0 -58 3 -99 9l-4 -26c-10 -53 12 -79 67 -79c39 0 71 13 94 40c20 25 31 29 56 13l43 -28c21 -14 22 -33 3 -58c-43 -61 -116 -91 -219 -91c-61 0 -106 15 -135 45
c-42 -30 -95 -45 -159 -45c-147 0 -213 86 -189 219l22 130c25 134 112 201 262 201c67 0 116 -19 145 -57zM660 361c7 35 -12 54 -61 54c-52 0 -88 -28 -97 -77l-3 -15c36 -6 65 -9 88 -9c43 0 68 16 73 47zM340 200l21 118c10 55 -11 83 -63 83c-51 0 -81 -25 -89 -74
l-24 -134c-9 -49 12 -74 63 -74c52 0 83 27 92 81z" />
    <glyph glyph-name="Racute" unicode="&#x154;" horiz-adv-x="656" 
d="M301 826l156 83c31 16 53 15 66 -3l28 -43c15 -21 12 -31 -12 -40l-186 -62c-24 -8 -39 -7 -45 2l-15 25c-12 19 -11 29 8 38zM179 710h277c145 0 221 -94 194 -239c-16 -95 -66 -160 -151 -196c6 -11 11 -22 15 -35l69 -197c9 -29 -1 -43 -30 -43h-80
c-51 0 -68 8 -77 39l-46 154c-15 48 -26 59 -82 59h-48l-38 -211c-5 -31 -16 -41 -47 -41h-81c-31 0 -39 10 -34 41l111 628c7 31 17 41 48 41zM450 420c17 14 27 34 32 60s1 46 -10 61c-12 14 -31 21 -58 21h-140l-28 -164h139c27 0 48 7 65 22z" />
    <glyph glyph-name="racute" unicode="&#x155;" horiz-adv-x="358" 
d="M151 649l155 84c31 16 53 15 66 -2l28 -43c16 -21 13 -31 -12 -40l-186 -64c-24 -8 -39 -7 -45 3l-15 24c-12 19 -11 29 9 38zM325 535h33c28 0 35 -9 30 -37l-10 -62c-5 -27 -16 -36 -43 -36h-37c-27 0 -52 -2 -73 -7c-3 -1 -5 -3 -6 -7l-62 -349
c-5 -28 -16 -37 -43 -37h-78c-28 0 -35 9 -30 37l72 409c7 33 15 45 50 58c48 18 114 28 197 31z" />
    <glyph glyph-name="Rcommaaccent" unicode="&#x156;" horiz-adv-x="656" 
d="M179 710h277c145 0 221 -94 194 -239c-16 -95 -66 -160 -151 -196c6 -11 11 -22 15 -35l69 -197c9 -29 -1 -43 -30 -43h-80c-51 0 -68 8 -77 39l-46 154c-15 48 -26 59 -82 59h-48l-38 -211c-5 -31 -16 -41 -47 -41h-81c-31 0 -39 10 -34 41l111 628c7 31 17 41 48 41z
M450 420c17 14 27 34 32 60s1 46 -10 61c-12 14 -31 21 -58 21h-140l-28 -164h139c27 0 48 7 65 22zM352 -93l-71 -134c-11 -22 -27 -33 -48 -33h-50c-21 0 -26 7 -19 26l40 141c8 29 21 39 50 39l70 1c33 0 42 -13 28 -40z" />
    <glyph glyph-name="rcommaaccent" unicode="&#x157;" horiz-adv-x="358" 
d="M325 535h32c28 0 36 -9 31 -37l-11 -62c-5 -27 -15 -36 -43 -36h-37c-27 0 -51 -2 -72 -7c-3 -1 -6 -3 -7 -7l-61 -349c-5 -28 -16 -37 -44 -37h-78c-27 0 -35 9 -30 37l72 409c7 33 15 45 50 58c49 18 115 28 198 31zM134 -82l-58 -112c-13 -27 -25 -34 -53 -34h-42
c-23 0 -27 7 -20 28l33 118c9 33 22 43 54 43h62c33 0 39 -14 24 -43z" />
    <glyph glyph-name="Rcaron" unicode="&#x158;" horiz-adv-x="656" 
d="M535 913h59c28 0 29 -15 10 -31l-112 -96c-33 -28 -41 -31 -73 -31h-18c-36 0 -42 3 -65 31l-78 96c-13 16 -8 31 21 31h59c33 0 41 -3 54 -20l33 -44l46 43c19 19 29 21 64 21zM179 710h277c145 0 221 -94 194 -239c-16 -95 -66 -160 -151 -196c6 -11 11 -22 15 -35
l69 -197c9 -29 -1 -43 -30 -43h-80c-51 0 -68 8 -77 39l-46 154c-15 48 -26 59 -82 59h-48l-38 -211c-5 -31 -16 -41 -47 -41h-81c-31 0 -39 10 -34 41l111 628c7 31 17 41 48 41zM450 420c17 14 27 34 32 60s1 46 -10 61c-12 14 -31 21 -58 21h-140l-28 -164h139
c27 0 48 7 65 22z" />
    <glyph glyph-name="rcaron" unicode="&#x159;" horiz-adv-x="358" 
d="M382 737h61c29 0 29 -15 10 -31l-112 -96c-32 -28 -40 -31 -72 -31h-18c-37 0 -43 3 -66 31l-78 96c-13 16 -8 31 21 31h57c33 0 42 -3 54 -20l33 -44l46 43c19 19 31 21 64 21zM325 535h33c28 0 35 -9 30 -37l-10 -62c-5 -27 -16 -36 -43 -36h-37c-27 0 -52 -2 -73 -7
c-3 -1 -5 -3 -6 -7l-62 -349c-5 -28 -16 -37 -43 -37h-78c-28 0 -35 9 -30 37l72 409c7 33 15 45 50 58c48 18 114 28 197 31z" />
    <glyph glyph-name="Sacute" unicode="&#x15a;" horiz-adv-x="634" 
d="M296 836l156 83c31 16 53 15 66 -3l28 -43c13 -21 13 -32 -12 -40l-186 -62c-25 -8 -40 -7 -46 2l-14 25c-13 19 -11 27 8 38zM78 519c24 132 132 206 316 206c137 0 206 -56 238 -153c8 -27 2 -38 -29 -50l-77 -31c-28 -12 -37 -7 -48 20c-15 44 -50 66 -106 66
c-80 0 -124 -23 -131 -69c-4 -25 7 -43 36 -54s54 -15 102 -20c115 -14 248 -66 217 -240c-25 -139 -134 -209 -326 -209c-153 0 -240 54 -261 162c-5 28 4 41 35 52l78 26c29 11 40 5 48 -24c13 -46 52 -69 117 -69c88 0 137 26 146 79c8 45 -37 63 -122 72
c-55 7 -93 13 -141 36c-25 11 -44 25 -58 41c-29 32 -46 88 -34 159z" />
    <glyph glyph-name="sacute" unicode="&#x15b;" horiz-adv-x="508" 
d="M201 649l154 84c32 16 54 15 66 -2l29 -43c15 -21 12 -31 -12 -40l-186 -64c-24 -8 -39 -7 -45 3l-15 24c-12 19 -11 29 9 38zM51 377c19 101 101 158 242 158c107 0 173 -36 200 -107c9 -27 2 -41 -27 -53l-59 -23c-31 -11 -35 -8 -48 16c-14 24 -42 36 -83 36
c-49 0 -76 -12 -81 -36c-5 -29 17 -38 89 -45c136 -15 201 -61 181 -173c-19 -104 -109 -165 -253 -165c-122 0 -192 40 -210 119c-5 25 6 41 33 50l64 20c29 8 35 4 46 -21s39 -38 84 -38c57 0 88 14 94 41c5 32 -17 40 -98 48c-56 5 -97 18 -133 43s-52 70 -41 130z" />
    <glyph glyph-name="Scircumflex" unicode="&#x15c;" horiz-adv-x="634" 
d="M427 924h20c31 0 39 -2 60 -30l79 -97c13 -15 7 -30 -21 -30h-59c-33 0 -44 3 -56 20l-30 44l-49 -44c-20 -19 -28 -20 -61 -20h-61c-29 0 -31 15 -11 30l112 97c17 14 29 23 38 26c8 3 21 4 39 4zM78 519c24 132 132 206 316 206c137 0 206 -56 238 -153
c8 -27 2 -38 -29 -50l-77 -31c-28 -12 -37 -7 -48 20c-15 44 -50 66 -106 66c-80 0 -124 -23 -131 -69c-4 -25 7 -43 36 -54s54 -15 102 -20c115 -14 248 -66 217 -240c-25 -139 -134 -209 -326 -209c-153 0 -240 54 -261 162c-5 28 4 41 35 52l78 26c29 11 40 5 48 -24
c13 -46 52 -69 117 -69c88 0 137 26 146 79c8 45 -37 63 -122 72c-55 7 -93 13 -141 36c-25 11 -44 25 -58 41c-29 32 -46 88 -34 159z" />
    <glyph glyph-name="scircumflex" unicode="&#x15d;" horiz-adv-x="508" 
d="M217 581h-62c-29 0 -30 15 -11 31l113 96c16 14 28 23 36 26s21 5 40 5h18c31 0 38 -3 61 -31l79 -96c13 -16 6 -31 -22 -31h-56c-33 0 -44 3 -55 20l-31 44l-48 -43c-20 -19 -29 -21 -62 -21zM293 535c107 0 173 -36 200 -107c9 -27 2 -41 -27 -53l-59 -23
c-31 -11 -35 -8 -48 16c-14 24 -42 36 -83 36c-49 0 -76 -12 -81 -36c-5 -29 17 -38 89 -45c136 -15 201 -61 181 -173c-19 -104 -109 -165 -253 -165c-122 0 -192 40 -210 119c-5 25 6 41 33 50l64 20c29 8 35 4 46 -21s39 -38 84 -38c57 0 88 14 94 41c5 32 -17 40 -98 48
c-56 5 -97 18 -133 43s-52 70 -41 130c19 101 101 158 242 158z" />
    <glyph glyph-name="Scedilla" unicode="&#x15e;" horiz-adv-x="634" 
d="M78 519c24 132 132 206 316 206c137 0 206 -56 238 -153c8 -27 2 -38 -29 -50l-77 -31c-28 -12 -37 -7 -48 20c-15 44 -50 66 -106 66c-80 0 -124 -23 -131 -69c-4 -25 7 -43 36 -54s54 -15 102 -20c115 -14 248 -66 217 -240c-22 -121 -109 -190 -260 -206l-26 -45h7
c61 -1 86 -43 70 -99c-19 -67 -83 -94 -158 -94c-25 0 -49 5 -70 15c-13 7 -19 17 -16 31l6 37c3 18 11 23 24 15c19 -9 36 -14 53 -14c29 0 44 9 46 26c3 16 -9 24 -37 24h-20c-18 0 -22 9 -11 27l46 74c-141 5 -221 59 -241 162c-5 28 4 41 35 52l78 26c29 11 40 5 48 -24
c13 -46 52 -69 117 -69c88 0 137 26 146 79c8 45 -37 63 -122 72c-55 7 -93 13 -141 36c-25 11 -44 25 -58 41c-29 32 -46 88 -34 159z" />
    <glyph glyph-name="scedilla" unicode="&#x15f;" horiz-adv-x="508" 
d="M51 377c19 101 101 158 242 158c107 0 173 -36 200 -107c9 -27 2 -41 -27 -53l-59 -23c-31 -11 -35 -8 -48 16c-14 24 -42 36 -83 36c-49 0 -76 -12 -81 -36c-5 -29 17 -38 89 -45c136 -15 201 -61 181 -173c-15 -88 -83 -145 -191 -161l-27 -46h7c61 0 86 -43 70 -98
c-19 -67 -83 -94 -158 -94c-28 0 -51 5 -70 15c-13 6 -19 16 -16 31l6 37c3 17 11 22 24 15c18 -10 36 -15 53 -15c27 0 43 9 47 26c3 16 -9 24 -38 24h-20c-19 0 -22 9 -11 27l46 75c-107 5 -168 44 -185 118c-5 25 6 41 33 50l64 20c29 8 35 4 46 -21s39 -38 84 -38
c57 0 88 14 94 41c5 32 -17 40 -98 48c-56 5 -97 18 -133 43s-52 70 -41 130z" />
    <glyph glyph-name="Scaron" unicode="&#x160;" horiz-adv-x="634" 
d="M529 923h59c29 0 30 -15 10 -31l-112 -96c-32 -28 -41 -31 -73 -31h-18c-36 0 -41 3 -64 31l-79 96c-13 16 -7 31 22 31h58c33 0 42 -3 55 -20l33 -44l46 43c19 19 30 21 63 21zM78 519c24 132 132 206 316 206c137 0 206 -56 238 -153c8 -27 2 -38 -29 -50l-77 -31
c-28 -12 -37 -7 -48 20c-15 44 -50 66 -106 66c-80 0 -124 -23 -131 -69c-4 -25 7 -43 36 -54s54 -15 102 -20c115 -14 248 -66 217 -240c-25 -139 -134 -209 -326 -209c-153 0 -240 54 -261 162c-5 28 4 41 35 52l78 26c29 11 40 5 48 -24c13 -46 52 -69 117 -69
c88 0 137 26 146 79c8 45 -37 63 -122 72c-55 7 -93 13 -141 36c-25 11 -44 25 -58 41c-29 32 -46 88 -34 159z" />
    <glyph glyph-name="scaron" unicode="&#x161;" horiz-adv-x="508" 
d="M431 737h62c28 0 29 -15 10 -31l-112 -96c-33 -28 -41 -31 -73 -31h-18c-36 0 -42 3 -65 31l-78 96c-13 16 -8 31 21 31h56c33 0 42 -3 55 -20l33 -44l46 43c19 19 30 21 63 21zM293 535c107 0 173 -36 200 -107c9 -27 2 -41 -27 -53l-59 -23c-31 -11 -35 -8 -48 16
c-14 24 -42 36 -83 36c-49 0 -76 -12 -81 -36c-5 -29 17 -38 89 -45c136 -15 201 -61 181 -173c-19 -104 -109 -165 -253 -165c-122 0 -192 40 -210 119c-5 25 6 41 33 50l64 20c29 8 35 4 46 -21s39 -38 84 -38c57 0 88 14 94 41c5 32 -17 40 -98 48c-56 5 -97 18 -133 43
s-52 70 -41 130c19 101 101 158 242 158z" />
    <glyph glyph-name="Tcaron" unicode="&#x164;" horiz-adv-x="581" 
d="M499 913h59c29 0 30 -15 10 -31l-112 -96c-32 -28 -41 -31 -73 -31h-18c-36 0 -41 3 -64 31l-79 96c-13 16 -7 31 21 31h59c33 0 40 -3 55 -20l33 -44l45 43c19 19 31 21 64 21zM128 710h476c31 0 38 -10 33 -41l-11 -67c-7 -29 -19 -40 -48 -40h-157l-92 -521
c-5 -31 -17 -41 -48 -41h-81c-29 0 -38 10 -33 41l92 521h-157c-31 0 -38 11 -33 40l11 67c5 31 17 41 48 41z" />
    <glyph glyph-name="tcaron" unicode="&#x165;" horiz-adv-x="398" 
d="M511 701l-64 -113c-15 -25 -25 -33 -49 -33h-40c-20 0 -23 5 -18 25l30 121c7 31 19 39 50 39h66c31 0 39 -13 25 -39zM198 640h78c27 0 35 -9 30 -37l-14 -83h92c27 0 34 -9 29 -37l-10 -60c-5 -28 -15 -37 -43 -37h-92l-30 -168c-12 -76 6 -93 75 -93
c28 0 36 -9 31 -38l-11 -63c-5 -28 -16 -37 -44 -38c-87 -3 -147 13 -178 46c-32 33 -40 93 -25 180l31 174h-54c-27 0 -35 9 -30 37l10 60c5 28 16 37 44 37h54l14 83c5 28 16 37 43 37z" />
    <glyph glyph-name="Tbar" unicode="&#x166;" horiz-adv-x="597" 
d="M136 710h475c31 0 39 -10 34 -41l-12 -67c-5 -29 -17 -40 -48 -40h-156l-33 -186h106c17 0 22 -6 18 -25l-9 -58c-4 -20 -10 -25 -29 -25h-106l-39 -227c-5 -31 -17 -41 -48 -41h-81c-31 0 -39 10 -34 41l40 227h-105c-19 0 -23 5 -19 25l10 58c3 17 13 25 28 25h106
l32 186h-156c-31 0 -39 9 -34 40l12 67c7 31 17 41 48 41z" />
    <glyph glyph-name="tbar" unicode="&#x167;" horiz-adv-x="399" 
d="M198 641h78c27 0 35 -9 30 -37l-15 -83h93c27 0 34 -9 30 -37l-11 -60c-5 -28 -15 -37 -43 -37h-92l-13 -72h76c17 0 22 -6 18 -25l-7 -45c-4 -20 -10 -25 -29 -25h-75l-1 -6c-12 -73 7 -88 76 -88c28 0 36 -9 31 -38l-12 -63c-5 -29 -15 -37 -43 -38
c-87 -3 -147 13 -178 46s-40 93 -25 179l1 8h-49c-19 0 -23 5 -19 25l7 45c3 17 13 25 29 25h49l13 72h-54c-27 0 -35 9 -30 37l11 60c4 28 15 37 43 37h53l15 83c5 28 16 37 43 37z" />
    <glyph glyph-name="Utilde" unicode="&#x168;" horiz-adv-x="691" 
d="M562 904h44c15 0 21 -8 18 -23c-15 -87 -47 -118 -111 -118c-57 0 -88 50 -116 50c-11 0 -18 -10 -21 -29c-3 -14 -11 -21 -25 -21h-45c-15 0 -21 7 -18 22c15 87 49 119 109 119c62 0 92 -50 119 -50c11 0 18 9 21 28c3 15 11 22 25 22zM305 669l-74 -423
c-13 -72 24 -113 107 -113c85 0 133 38 146 113l75 423c7 31 17 41 48 41h81c31 0 38 -10 33 -41l-77 -434c-28 -163 -141 -250 -329 -250c-93 0 -160 26 -202 78c-43 51 -57 119 -42 202l72 404c5 31 17 41 48 41h81c31 0 38 -10 33 -41z" />
    <glyph glyph-name="utilde" unicode="&#x169;" 
d="M458 731h44c15 0 21 -7 18 -22c-15 -88 -47 -119 -110 -119c-57 0 -89 50 -117 50c-11 0 -18 -9 -21 -28c-3 -15 -11 -22 -24 -22h-45c-15 0 -21 8 -19 23c16 87 50 118 109 118c27 0 51 -8 73 -25s38 -25 47 -25c10 0 17 10 21 29c3 14 11 21 24 21zM449 520h77
c28 0 35 -9 30 -37l-71 -404c-7 -33 -15 -45 -50 -58c-62 -24 -132 -36 -210 -36c-144 0 -202 82 -178 217l49 281c5 28 16 37 44 37h77c28 0 35 -9 30 -37l-50 -286c-9 -52 13 -75 72 -75c23 0 45 2 66 7c6 2 9 6 10 11l60 343c5 28 16 37 44 37z" />
    <glyph glyph-name="Umacron" unicode="&#x16a;" horiz-adv-x="691" 
d="M353 883h234c28 0 34 -7 29 -35l-6 -33c-5 -27 -13 -34 -41 -34h-234c-28 0 -34 7 -29 34l6 33c5 27 16 35 41 35zM305 669l-74 -423c-13 -72 24 -113 107 -113c85 0 133 38 146 113l75 423c7 31 17 41 48 41h81c31 0 38 -10 33 -41l-77 -434
c-28 -163 -141 -250 -329 -250c-93 0 -160 26 -202 78c-43 51 -57 119 -42 202l72 404c5 31 17 41 48 41h81c31 0 38 -10 33 -41z" />
    <glyph glyph-name="umacron" unicode="&#x16b;" 
d="M248 706h234c28 0 34 -7 29 -34l-6 -33c-4 -28 -13 -35 -41 -35h-234c-27 0 -32 7 -28 35l5 33c5 27 16 34 41 34zM449 520h77c28 0 35 -9 30 -37l-71 -404c-7 -33 -15 -45 -50 -58c-62 -24 -132 -36 -210 -36c-144 0 -202 82 -178 217l49 281c5 28 16 37 44 37h77
c28 0 35 -9 30 -37l-50 -286c-9 -52 13 -75 72 -75c23 0 45 2 66 7c6 2 9 6 10 11l60 343c5 28 16 37 44 37z" />
    <glyph glyph-name="Ubreve" unicode="&#x16c;" horiz-adv-x="691" 
d="M629 859c-35 -64 -102 -101 -181 -101s-131 37 -143 101c-3 17 4 28 21 34l57 20c19 6 30 2 33 -12c7 -26 24 -39 50 -39c27 0 49 13 64 39c11 16 18 18 34 13l54 -21c17 -8 20 -15 11 -34zM305 669l-74 -423c-13 -72 24 -113 107 -113c85 0 133 38 146 113l75 423
c7 31 17 41 48 41h81c31 0 38 -10 33 -41l-77 -434c-28 -163 -141 -250 -329 -250c-93 0 -160 26 -202 78c-43 51 -57 119 -42 202l72 404c5 31 17 41 48 41h81c31 0 38 -10 33 -41z" />
    <glyph glyph-name="ubreve" unicode="&#x16d;" 
d="M525 683c-37 -68 -96 -102 -177 -102c-80 0 -136 38 -147 102c-4 17 2 26 22 33l52 19c23 7 28 4 35 -12c5 -25 23 -38 52 -38c27 0 48 13 64 39c8 14 19 18 34 13l55 -21c16 -8 19 -14 10 -33zM449 520h77c28 0 35 -9 30 -37l-71 -404c-7 -33 -15 -45 -50 -58
c-62 -24 -132 -36 -210 -36c-144 0 -202 82 -178 217l49 281c5 28 16 37 44 37h77c28 0 35 -9 30 -37l-50 -286c-9 -52 13 -75 72 -75c23 0 45 2 66 7c6 2 9 6 10 11l60 343c5 28 16 37 44 37z" />
    <glyph glyph-name="Uring" unicode="&#x16e;" horiz-adv-x="691" 
d="M353 852c11 67 68 112 137 112c68 0 108 -45 96 -112c-11 -65 -67 -110 -134 -110c-69 0 -111 45 -99 110zM511 852c5 25 -9 42 -33 42c-25 0 -46 -17 -51 -42c-4 -23 12 -40 37 -40c24 0 44 16 47 40zM305 669l-74 -423c-13 -72 24 -113 107 -113c85 0 133 38 146 113
l75 423c7 31 17 41 48 41h81c31 0 38 -10 33 -41l-77 -434c-28 -163 -141 -250 -329 -250c-93 0 -160 26 -202 78c-43 51 -57 119 -42 202l72 404c5 31 17 41 48 41h81c31 0 38 -10 33 -41z" />
    <glyph glyph-name="uring" unicode="&#x16f;" 
d="M240 650c11 67 69 112 138 112c67 0 107 -47 95 -112c-11 -65 -66 -111 -134 -111c-69 0 -111 44 -99 111zM382 621c31 25 18 70 -16 70c-25 0 -47 -17 -52 -41c-3 -24 12 -41 37 -41c11 0 22 4 31 12zM449 520h77c28 0 35 -9 30 -37l-71 -404c-7 -33 -15 -45 -50 -58
c-62 -24 -132 -36 -210 -36c-144 0 -202 82 -178 217l49 281c5 28 16 37 44 37h77c28 0 35 -9 30 -37l-50 -286c-9 -52 13 -75 72 -75c23 0 45 2 66 7c6 2 9 6 10 11l60 343c5 28 16 37 44 37z" />
    <glyph glyph-name="Uhungarumlaut" unicode="&#x170;" horiz-adv-x="691" 
d="M366 760l-25 7c-19 6 -21 18 -6 37l80 90c19 23 42 31 67 24l41 -14c17 15 36 20 57 15l47 -14c25 -9 27 -25 4 -41l-128 -93c-24 -17 -26 -19 -45 -15l-26 7c-11 3 -17 8 -17 15l-4 -3c-19 -15 -34 -20 -45 -15zM607 710h81c31 0 38 -10 33 -41l-77 -434
c-28 -163 -141 -250 -329 -250c-93 0 -160 26 -202 78c-43 51 -57 119 -42 202l72 404c5 31 17 41 48 41h81c31 0 38 -10 33 -41l-74 -423c-13 -72 24 -113 107 -113c85 0 133 38 146 113l75 423c7 31 17 41 48 41z" />
    <glyph glyph-name="uhungarumlaut" unicode="&#x171;" 
d="M260 577l-25 8c-20 5 -22 17 -5 36l80 91c20 23 42 31 66 24l42 -14c17 15 36 20 57 14l47 -14c27 -9 28 -22 4 -41l-128 -92c-19 -15 -34 -20 -45 -15l-26 6c-11 3 -17 8 -17 15l-4 -3c-23 -16 -31 -20 -46 -15zM449 520h77c28 0 35 -9 30 -37l-71 -404
c-7 -33 -15 -45 -50 -58c-62 -24 -132 -36 -210 -36c-144 0 -202 82 -178 217l49 281c5 28 16 37 44 37h77c28 0 35 -9 30 -37l-50 -286c-9 -52 13 -75 72 -75c23 0 45 2 66 7c6 2 9 6 10 11l60 343c5 28 16 37 44 37z" />
    <glyph glyph-name="Uogonek" unicode="&#x172;" horiz-adv-x="691" 
d="M607 710h81c31 0 38 -10 33 -41l-77 -434c-16 -87 -52 -144 -121 -197c-63 -47 -102 -100 -111 -127c-5 -13 -7 -24 -6 -33c0 -13 5 -20 16 -20c7 0 13 2 19 5c12 7 19 5 21 -6l12 -47c3 -11 0 -20 -8 -26c-24 -19 -60 -29 -108 -29c-49 0 -86 27 -87 75
c0 52 33 105 98 158c-18 -2 -36 -3 -54 -3c-93 0 -160 26 -202 78c-43 51 -57 119 -42 202l72 404c5 31 17 41 48 41h81c31 0 38 -10 33 -41l-74 -423c-13 -72 24 -113 107 -113c85 0 133 38 146 113l75 423c7 31 17 41 48 41z" />
    <glyph glyph-name="uogonek" unicode="&#x173;" 
d="M450 520h77c28 0 35 -9 30 -37l-71 -404c-3 -17 -8 -30 -16 -39c-65 -73 -99 -139 -98 -164c0 -12 5 -18 16 -18c6 0 12 2 19 6c12 7 19 5 21 -6l11 -42c3 -11 0 -19 -8 -26c-31 -23 -66 -35 -107 -35c-57 0 -86 22 -87 65c0 49 38 116 101 175c-35 -7 -72 -10 -112 -10
c-144 0 -203 83 -178 219l49 279c5 28 16 37 44 37h77c28 0 35 -9 30 -37l-50 -286c-9 -52 13 -75 72 -75c23 0 45 2 66 7c6 2 9 6 10 11l60 343c5 28 16 37 44 37z" />
    <glyph glyph-name="Wcircumflex" unicode="&#x174;" horiz-adv-x="915" 
d="M568 914h19c32 0 39 -2 60 -30l80 -97c13 -15 7 -30 -22 -30h-58c-33 0 -45 3 -57 20l-30 44l-49 -44c-20 -19 -28 -20 -61 -20h-60c-29 0 -31 15 -12 30l112 97c17 14 29 23 38 26c8 3 21 4 40 4zM858 710h86c29 0 32 -12 20 -40l-265 -636c-12 -28 -27 -34 -56 -34h-87
c-29 0 -42 7 -43 32l-25 323c-1 51 2 96 9 137h-9c-8 -43 -22 -89 -41 -137l-139 -321c-12 -28 -25 -34 -56 -34h-82c-29 0 -43 7 -44 32l-44 638c-3 29 5 40 34 40h92c35 0 47 -7 48 -36l6 -308c1 -19 -1 -46 -4 -83s-6 -60 -8 -71h7c3 15 9 39 19 73s19 61 28 81l134 308
c12 28 28 36 60 36h73c33 0 47 -8 48 -36l23 -308c2 -22 2 -50 1 -84c-2 -34 -4 -57 -7 -70h7c11 51 26 102 44 154l111 308c11 29 24 36 60 36z" />
    <glyph glyph-name="wcircumflex" unicode="&#x175;" horiz-adv-x="746" 
d="M336 581h-63c-30 0 -27 15 -11 31l113 96c17 14 29 23 37 26s21 5 40 5h18c31 0 38 -3 61 -31l78 -96c15 -16 7 -31 -21 -31h-56c-33 0 -44 3 -56 20l-30 44l-48 -43c-20 -19 -29 -21 -62 -21zM681 520h58c35 0 39 -10 23 -43l-198 -444c-9 -22 -28 -33 -56 -33h-63
c-27 0 -42 11 -45 33l-17 199c-3 39 0 77 1 102l2 18h-5c-11 -43 -25 -83 -40 -120l-88 -199c-10 -22 -29 -33 -56 -33h-54c-29 0 -44 8 -45 33l-46 444c-5 33 3 43 38 43h57c45 0 58 -6 58 -37l6 -172c1 -28 -3 -82 -7 -114l-2 -24h6c14 58 28 104 43 138l77 171
c15 32 24 38 68 38h36c44 0 51 -6 54 -37l18 -172c3 -40 1 -83 -2 -115l-3 -23h6c10 51 23 97 38 138l66 171c13 32 27 38 72 38z" />
    <glyph glyph-name="Ycircumflex" unicode="&#x176;" horiz-adv-x="655" 
d="M441 914h19c32 0 40 -2 61 -30l79 -97c13 -15 7 -30 -22 -30h-58c-33 0 -45 3 -57 20l-30 44l-49 -44c-19 -19 -28 -20 -61 -20h-60c-29 0 -31 15 -12 30l113 97c16 14 28 23 37 26c8 3 21 4 40 4zM613 710h89c29 0 33 -18 14 -41l-304 -393l-42 -235
c-5 -31 -17 -41 -48 -41h-81c-31 0 -38 10 -33 41l41 237l-166 391c-11 23 -1 41 28 41h90c51 0 61 -3 73 -36l85 -233l169 233c11 17 22 27 32 31c10 3 28 5 53 5z" />
    <glyph glyph-name="ycircumflex" unicode="&#x177;" horiz-adv-x="557" 
d="M252 581h-63c-29 0 -30 15 -11 31l113 96c16 14 28 23 37 26c8 3 21 5 39 5h18c31 0 38 -3 61 -31l79 -96c13 -16 7 -31 -22 -31h-55c-33 0 -44 3 -56 20l-31 44l-47 -43c-21 -19 -29 -21 -62 -21zM449 520h78c27 0 34 -9 29 -37l-86 -493c-26 -147 -115 -220 -267 -220
c-100 0 -164 32 -193 96c-13 25 -4 44 25 58l57 27c32 15 43 11 56 -13c14 -25 39 -38 75 -38c53 0 84 27 94 81l7 41c-25 -5 -57 -7 -94 -7c-144 0 -201 83 -177 219l43 249c5 28 16 37 44 37h77c28 0 35 -9 30 -37l-45 -256c-9 -50 16 -75 73 -75c23 0 47 2 73 7l57 324
c5 28 16 37 44 37z" />
    <glyph glyph-name="Ydieresis" unicode="&#x178;" horiz-adv-x="655" 
d="M337 902h7c49 0 63 -15 54 -63l-2 -11c-8 -47 -27 -64 -76 -64h-7c-48 0 -61 16 -52 64l2 11c8 48 25 63 74 63zM544 902h7c49 0 61 -15 53 -63l-2 -11c-9 -48 -28 -64 -76 -64h-7c-48 0 -61 17 -53 64l2 11c9 48 27 63 76 63zM613 710h89c29 0 33 -18 14 -41l-304 -393
l-42 -235c-5 -31 -17 -41 -48 -41h-81c-31 0 -38 10 -33 41l41 237l-166 391c-11 23 -1 41 28 41h90c51 0 61 -3 73 -36l85 -233l169 233c11 17 22 27 32 31c10 3 28 5 53 5z" />
    <glyph glyph-name="Zacute" unicode="&#x179;" horiz-adv-x="599" 
d="M281 826l156 83c31 16 53 15 66 -3l28 -43c15 -21 12 -31 -12 -40l-186 -62c-24 -8 -39 -7 -45 2l-15 25c-12 19 -11 29 8 38zM153 710h445c31 0 39 -10 34 -41l-11 -58c-3 -16 -9 -30 -20 -41l-387 -421h290c31 0 41 -10 34 -41l-12 -67c-5 -31 -17 -41 -48 -41h-455
c-31 0 -39 10 -34 41l11 58c3 15 9 28 20 41l387 422h-280c-31 0 -38 11 -33 40l11 67c7 31 17 41 48 41z" />
    <glyph glyph-name="zacute" unicode="&#x17a;" horiz-adv-x="481" 
d="M185 649l155 84c31 16 53 15 66 -2l29 -43c15 -21 12 -31 -12 -40l-186 -64c-24 -8 -39 -7 -46 3l-15 24c-12 19 -11 29 9 38zM192 134h199c28 0 35 -10 30 -37l-10 -60c-5 -28 -16 -37 -44 -37h-352c-27 0 -34 9 -29 37l9 59c3 15 10 27 20 37l257 253h-184
c-27 0 -34 10 -29 37l10 60c5 28 16 37 43 37h342c28 0 35 -9 30 -37l-10 -59c-2 -13 -9 -27 -22 -40z" />
    <glyph glyph-name="Zdotaccent" unicode="&#x17b;" horiz-adv-x="599" 
d="M413 903h6c51 0 63 -15 55 -66l-2 -8c-9 -51 -26 -66 -78 -66h-6c-51 0 -63 15 -54 66l2 8c9 51 26 66 77 66zM153 710h445c31 0 39 -10 34 -41l-11 -58c-3 -16 -9 -30 -20 -41l-387 -421h290c31 0 41 -10 34 -41l-12 -67c-5 -31 -17 -41 -48 -41h-455
c-31 0 -39 10 -34 41l11 58c3 15 9 28 20 41l387 422h-280c-31 0 -38 11 -33 40l11 67c7 31 17 41 48 41z" />
    <glyph glyph-name="zdotaccent" unicode="&#x17c;" horiz-adv-x="481" 
d="M316 726h6c51 0 64 -15 55 -66l-2 -8c-8 -51 -26 -66 -77 -66h-6c-51 0 -63 15 -55 66l2 8c9 51 26 66 77 66zM192 134h199c28 0 35 -10 30 -37l-10 -60c-5 -28 -16 -37 -44 -37h-352c-27 0 -34 9 -29 37l9 59c3 15 10 27 20 37l257 253h-184c-27 0 -34 10 -29 37l10 60
c5 28 16 37 43 37h342c28 0 35 -9 30 -37l-10 -59c-2 -13 -9 -27 -22 -40z" />
    <glyph glyph-name="Zcaron" unicode="&#x17d;" horiz-adv-x="599" 
d="M515 913h59c29 0 29 -15 10 -31l-112 -96c-33 -28 -41 -31 -73 -31h-18c-36 0 -42 3 -65 31l-78 96c-13 16 -8 31 21 31h59c33 0 41 -3 54 -20l33 -44l46 43c19 19 29 21 64 21zM153 710h445c31 0 39 -10 34 -41l-11 -58c-3 -16 -9 -30 -20 -41l-387 -421h290
c31 0 41 -10 34 -41l-12 -67c-5 -31 -17 -41 -48 -41h-455c-31 0 -39 10 -34 41l11 58c3 15 9 28 20 41l387 422h-280c-31 0 -38 11 -33 40l11 67c7 31 17 41 48 41z" />
    <glyph glyph-name="zcaron" unicode="&#x17e;" horiz-adv-x="481" 
d="M416 737h61c28 0 32 -10 11 -31l-113 -96c-32 -28 -40 -31 -72 -31h-18c-36 0 -44 3 -65 31l-78 96c-15 16 -8 31 20 31h57c33 0 42 -3 54 -20l33 -44l46 43c19 19 31 21 64 21zM112 520h342c28 0 35 -9 30 -37l-10 -59c-2 -13 -9 -27 -22 -40l-260 -250h199
c28 0 35 -10 30 -37l-10 -60c-5 -28 -16 -37 -44 -37h-352c-27 0 -34 9 -29 37l9 59c3 15 10 27 20 37l257 253h-184c-27 0 -34 10 -29 37l10 60c5 28 16 37 43 37z" />
    <glyph glyph-name="longs" unicode="&#x17f;" horiz-adv-x="314" 
d="M135 520v4c26 144 120 216 281 216c28 0 35 -9 30 -38l-10 -58c-5 -29 -16 -38 -44 -38c-61 0 -96 -30 -107 -91l-84 -478c-5 -28 -16 -37 -45 -37h-76c-28 0 -35 9 -30 37l61 349h-43c-28 0 -36 9 -31 37l11 60c5 28 16 37 43 37h44z" />
    <glyph glyph-name="florin" unicode="&#x192;" horiz-adv-x="448" 
d="M167 421l18 94c28 148 108 225 267 225c29 0 38 -9 35 -38l-6 -62c-1 -28 -12 -37 -41 -37c-67 0 -92 -30 -105 -94l-17 -88h86c27 0 36 -9 33 -37l-5 -64c-1 -27 -13 -36 -40 -36h-100l-52 -277c-29 -148 -109 -227 -268 -227c-28 0 -37 9 -34 38l5 62c1 28 13 37 41 37
c67 0 93 30 105 94l52 273h-79c-28 0 -37 9 -34 36l6 64c1 28 12 37 40 37h93z" />
    <glyph glyph-name="Aringacute" unicode="&#x1fa;" horiz-adv-x="670" 
d="M368 915l134 56c30 11 51 11 62 -1l28 -33c14 -15 11 -24 -10 -29l-173 -47c-22 -6 -36 -5 -42 2l-15 20c-12 13 -7 23 16 32zM307 734c13 71 73 112 149 112c75 0 120 -45 107 -120c-5 -28 -21 -53 -50 -74l126 -612c5 -27 -7 -40 -34 -40h-71c-49 0 -64 8 -67 37
l-14 94h-247l-49 -94c-15 -29 -31 -37 -80 -37h-74c-27 0 -34 13 -19 40l345 612c-21 21 -29 49 -22 82zM478 731c4 25 -11 43 -35 43c-27 0 -48 -18 -53 -43c-4 -25 11 -43 38 -43c24 0 45 18 50 43zM433 263l-24 155c-7 43 -6 97 -3 124l3 19h-9c-9 -47 -25 -95 -49 -142
l-80 -156h162z" />
    <glyph glyph-name="aringacute" unicode="&#x1fb;" horiz-adv-x="542" 
d="M247 847l145 62c29 12 50 11 62 -2l27 -31c13 -16 12 -25 -12 -30l-174 -47c-22 -6 -36 -6 -42 1l-14 19c-12 15 -11 20 8 28zM247 672c11 65 68 111 136 111s107 -46 95 -111c-11 -64 -66 -110 -133 -110c-69 0 -110 45 -98 110zM404 672c5 24 -9 41 -33 41
c-55 4 -71 -87 -14 -81c23 0 43 16 47 40zM36 207l22 126c25 140 110 202 269 202c81 0 142 -11 185 -33c29 -15 33 -23 26 -56l-69 -394c-5 -28 -15 -37 -44 -44c-62 -15 -130 -23 -205 -23c-144 0 -209 87 -184 222zM372 393c-18 5 -38 7 -59 7c-64 0 -96 -23 -107 -82
l-22 -125c-8 -49 16 -73 72 -73c27 0 52 2 75 7l46 258c1 4 0 7 -5 8z" />
    <glyph glyph-name="AEacute" unicode="&#x1fc;" horiz-adv-x="880" 
d="M625 826l156 83c32 17 54 16 66 -3l28 -43c15 -21 12 -31 -12 -40l-186 -62c-24 -8 -39 -7 -45 2l-15 25c-12 19 -11 29 8 38zM582 149h228c31 0 38 -12 33 -41l-11 -67c-5 -31 -17 -41 -48 -41h-337c-31 0 -39 10 -34 41l16 88h-196l-73 -93c-21 -28 -33 -36 -81 -36
h-80c-29 0 -36 13 -19 40l510 636c23 28 30 34 55 34h354c31 0 39 -10 34 -41l-12 -67c-5 -29 -17 -40 -48 -40h-218l-22 -129h168c31 0 38 -11 33 -40l-11 -67c-5 -31 -18 -41 -49 -41h-168zM452 258l39 211l-156 -211h117z" />
    <glyph glyph-name="aeacute" unicode="&#x1fd;" horiz-adv-x="777" 
d="M346 649l154 84c32 16 54 15 66 -2l29 -43c15 -21 12 -31 -12 -40l-186 -64c-24 -8 -39 -7 -45 3l-15 24c-13 19 -11 29 9 38zM432 481c40 36 92 54 155 54c139 0 210 -68 190 -181c-17 -96 -100 -149 -232 -149c-25 0 -58 3 -99 9l-5 -26c-9 -53 14 -79 68 -79
c39 0 71 13 94 40c20 25 30 29 55 13l44 -28c21 -14 22 -33 3 -58c-43 -61 -116 -91 -219 -91c-51 0 -91 10 -122 29c-45 -19 -99 -29 -161 -29c-151 0 -207 63 -187 175c19 107 94 154 249 154c23 0 43 -1 62 -2l3 21c4 29 17 75 -54 75c-31 0 -58 -13 -80 -38
c-20 -23 -26 -26 -53 -15l-51 23c-24 11 -28 28 -11 53c49 69 123 104 220 104c57 0 100 -18 131 -54zM629 361c7 35 -15 54 -64 54c-52 0 -89 -28 -98 -77l-2 -17c35 -5 64 -7 88 -7c45 0 71 16 76 47zM303 179l3 20c-32 2 -56 3 -73 3c-40 0 -63 -17 -69 -51
c-7 -35 8 -49 49 -49c30 0 60 3 89 8c-3 18 -2 41 1 69z" />
    <glyph glyph-name="Oslashacute" unicode="&#x1fe;" horiz-adv-x="676" 
d="M324 836l156 83c32 17 54 16 66 -3l29 -43c13 -21 12 -31 -13 -40l-186 -62c-24 -8 -39 -7 -45 2l-15 25c-12 19 -11 29 8 38zM649 754h84c9 0 11 -5 4 -14l-93 -114c31 -47 40 -107 28 -181l-36 -203c-29 -167 -148 -257 -337 -257c-63 0 -113 11 -152 34l-38 -46
c-9 -11 -11 -12 -30 -12h-82c-11 0 -13 5 -4 15l85 104c-31 48 -41 109 -29 182l35 203c31 167 150 260 338 260c64 0 116 -12 156 -36l42 52c8 9 18 13 29 13zM209 235l266 325c-17 11 -42 16 -75 16c-89 0 -140 -39 -153 -117l-35 -195c-2 -10 -3 -20 -3 -29zM475 251
l35 193c1 7 3 25 3 26l-264 -321c18 -10 42 -15 73 -15c89 0 140 39 153 117z" />
    <glyph glyph-name="oslashacute" unicode="&#x1ff;" horiz-adv-x="547" 
d="M229 649l155 84c31 16 53 15 66 -2l28 -43c16 -21 13 -31 -12 -40l-186 -64c-24 -8 -39 -7 -45 3l-15 24c-12 19 -11 29 9 38zM493 552h55c11 0 12 -5 4 -14l-55 -67c32 -39 42 -91 30 -154l-22 -129c-24 -132 -117 -203 -273 -203c-43 0 -80 6 -111 19l-23 -27
c-7 -8 -16 -12 -29 -12h-53c-11 0 -12 5 -4 15l52 63c-35 37 -46 90 -35 157l22 129c24 132 119 206 274 206c47 0 86 -8 118 -23l23 28c7 8 16 12 27 12zM179 183l174 215c-11 7 -28 10 -49 10c-57 0 -91 -25 -100 -75l-23 -126c-1 -5 -2 -13 -2 -24zM377 326l-168 -207
c14 -5 28 -7 43 -7c59 0 92 25 101 75l22 122c1 5 2 11 2 17z" />
    <glyph glyph-name="Scommaaccent" unicode="&#x218;" horiz-adv-x="634" 
d="M78 519c24 132 132 206 316 206c137 0 206 -56 238 -153c8 -27 2 -38 -29 -50l-77 -31c-28 -12 -37 -7 -48 20c-15 44 -50 66 -106 66c-80 0 -124 -23 -131 -69c-4 -25 7 -43 36 -54s54 -15 102 -20c115 -14 248 -66 217 -240c-25 -139 -134 -209 -326 -209
c-153 0 -240 54 -261 162c-5 28 4 41 35 52l78 26c29 11 40 5 48 -24c13 -46 52 -69 117 -69c88 0 137 26 146 79c8 45 -37 63 -122 72c-55 7 -93 13 -141 36c-25 11 -44 25 -58 41c-29 32 -46 88 -34 159zM335 -93l-71 -134c-11 -22 -27 -33 -48 -33h-50
c-21 0 -26 7 -19 26l40 141c8 29 19 39 50 39l70 1c33 0 42 -13 28 -40z" />
    <glyph glyph-name="scommaaccent" unicode="&#x219;" horiz-adv-x="508" 
d="M51 377c19 101 101 158 242 158c107 0 173 -36 200 -107c9 -27 2 -41 -27 -53l-59 -23c-31 -11 -35 -8 -48 16c-14 24 -42 36 -83 36c-49 0 -76 -12 -81 -36c-5 -29 17 -38 89 -45c136 -15 201 -61 181 -173c-19 -104 -109 -165 -253 -165c-122 0 -192 40 -210 119
c-5 25 6 41 33 50l64 20c29 8 35 4 46 -21s39 -38 84 -38c57 0 88 14 94 41c5 32 -17 40 -98 48c-56 5 -97 18 -133 43s-52 70 -41 130zM284 -94l-55 -105c-15 -27 -25 -33 -53 -33h-42c-23 0 -27 6 -20 27l30 111c9 33 23 43 55 43h61c31 0 39 -14 24 -43z" />
    <glyph glyph-name="uni021A" unicode="&#x21a;" horiz-adv-x="581" 
d="M128 710h476c31 0 38 -10 33 -41l-11 -67c-7 -29 -19 -40 -48 -40h-157l-92 -521c-5 -31 -17 -41 -48 -41h-81c-29 0 -38 10 -33 41l92 521h-157c-31 0 -38 11 -33 40l11 67c5 31 17 41 48 41zM303 -93l-71 -134c-11 -22 -27 -33 -48 -33h-50c-21 0 -26 7 -19 26l40 141
c8 29 21 39 50 39l70 1c33 0 42 -13 28 -40z" />
    <glyph glyph-name="uni021B" unicode="&#x21b;" horiz-adv-x="398" 
d="M198 640h78c27 0 35 -9 30 -37l-14 -83h92c27 0 34 -9 29 -37l-10 -60c-5 -28 -15 -37 -43 -37h-92l-30 -168c-12 -76 6 -93 75 -93c28 0 36 -9 31 -38l-11 -63c-5 -28 -16 -37 -44 -38c-87 -3 -147 13 -178 46c-32 33 -40 93 -25 180l31 174h-54c-27 0 -35 9 -30 37
l10 60c5 28 16 37 44 37h54l14 83c5 28 16 37 43 37zM245 -93l-71 -134c-11 -22 -27 -33 -48 -33h-50c-21 0 -26 7 -19 26l41 141c8 29 20 39 49 39l71 1c32 0 41 -13 27 -40z" />
    <glyph glyph-name="dotlessj" unicode="&#x237;" horiz-adv-x="253" 
d="M132 520h75c29 0 36 -9 31 -37l-86 -491c-27 -148 -120 -222 -281 -222c-29 0 -37 9 -32 38l11 62c5 28 16 37 45 37c61 0 96 31 107 92l85 484c5 28 16 37 45 37z" />
    <glyph glyph-name="circumflex" unicode="&#x2c6;" horiz-adv-x="401" 
d="M276 739h18c31 0 38 -3 61 -31l79 -96c13 -16 7 -31 -22 -31h-55c-35 0 -44 3 -56 20l-31 44l-47 -44c-21 -19 -29 -20 -62 -20h-63c-29 0 -30 15 -11 31l113 96c16 14 28 23 37 26c8 3 21 5 39 5z" />
    <glyph glyph-name="caron" unicode="&#x2c7;" horiz-adv-x="358" 
d="M362 737h61c29 0 30 -15 11 -31l-113 -96c-32 -28 -40 -31 -72 -31h-18c-36 0 -42 3 -65 31l-78 96c-15 16 -8 31 21 31h56c33 0 42 -3 54 -20l34 -44l45 43c19 19 31 21 64 21z" />
    <glyph glyph-name="breve" unicode="&#x2d8;" horiz-adv-x="287" 
d="M379 683c-37 -68 -96 -102 -177 -102c-80 0 -136 38 -147 102c-4 17 2 26 22 33l52 19c23 7 28 4 35 -12c5 -25 23 -38 52 -38c27 0 48 13 64 39c8 14 19 18 34 13l55 -21c16 -8 19 -14 10 -33z" />
    <glyph glyph-name="dotaccent" unicode="&#x2d9;" horiz-adv-x="217" 
d="M195 726h6c51 0 63 -15 55 -66l-2 -8c-9 -51 -27 -66 -78 -66h-6c-51 0 -63 15 -54 66l2 8c8 51 26 66 77 66z" />
    <glyph glyph-name="ring" unicode="&#x2da;" horiz-adv-x="240" 
d="M83 665c12 67 69 112 138 112c67 0 107 -47 96 -112c-12 -65 -67 -110 -135 -110c-69 0 -110 45 -99 110zM242 665c4 25 -10 42 -33 42c-27 0 -47 -17 -51 -42c-4 -23 11 -40 36 -40c24 0 44 16 48 40z" />
    <glyph glyph-name="ogonek" unicode="&#x2db;" horiz-adv-x="252" 
d="M59 0l97 1c-53 -56 -78 -97 -77 -123c0 -13 5 -20 16 -20c7 0 13 2 18 5c13 7 20 5 22 -6l11 -47c3 -11 1 -20 -7 -26c-24 -19 -60 -29 -108 -29c-49 0 -86 27 -87 75c0 55 38 112 115 170z" />
    <glyph glyph-name="tilde" unicode="&#x2dc;" horiz-adv-x="305" 
d="M334 731h44c15 0 21 -7 18 -22c-15 -88 -48 -119 -111 -119c-24 0 -47 8 -69 25s-38 25 -48 25c-11 0 -18 -9 -21 -28c-2 -15 -10 -22 -24 -22h-45c-15 0 -21 8 -18 23c15 87 50 118 109 118c62 0 92 -50 119 -50c11 0 18 10 21 29c3 14 11 21 25 21z" />
    <glyph glyph-name="hungarumlaut" unicode="&#x2dd;" horiz-adv-x="395" 
d="M413 736l48 -14c27 -9 28 -22 4 -41l-128 -92c-19 -15 -34 -20 -45 -15l-26 6c-11 3 -17 8 -17 15l-4 -3c-24 -16 -31 -20 -46 -15l-25 8c-20 5 -22 17 -5 36l80 91c20 23 42 31 66 24l42 -14c17 15 35 20 56 14z" />
    <glyph glyph-name="uni0326" unicode="&#x326;" horiz-adv-x="0" 
d="M159 -93l-71 -134c-11 -22 -27 -33 -48 -33h-50c-21 0 -26 7 -19 26l40 141c9 29 21 39 50 39l70 1c33 0 42 -13 28 -40z" />
    <glyph glyph-name="pi" unicode="&#x3c0;" horiz-adv-x="658" 
d="M216 520h429c28 0 35 -9 30 -37l-11 -61c-4 -28 -15 -38 -43 -38h-20l-40 -225c-5 -27 -4 -53 1 -78c8 -25 -2 -43 -29 -54l-72 -26c-29 -12 -41 -9 -48 19c-11 41 -12 87 -3 140l40 224h-151l-61 -347c-5 -28 -16 -37 -44 -37h-77c-28 0 -35 9 -30 37l61 347
c-10 -1 -27 -5 -50 -13c-25 -12 -40 -8 -45 16l-15 59c-7 23 2 39 27 48c45 17 96 26 151 26z" />
    <glyph glyph-name="uni0401" unicode="&#x401;" horiz-adv-x="584" 
d="M314 896h8c48 0 61 -16 53 -64l-2 -11c-9 -48 -28 -63 -76 -63h-7c-48 0 -61 15 -53 63l2 11c9 48 27 64 75 64zM521 896h7c49 0 61 -16 52 -64l-2 -11c-8 -48 -26 -63 -74 -63h-7c-49 0 -63 16 -54 63l2 11c8 48 27 64 76 64zM179 710h402c31 0 39 -10 34 -41l-12 -67
c-5 -29 -17 -40 -48 -40h-281l-22 -129h231c29 0 38 -9 33 -40l-12 -67c-5 -31 -17 -41 -48 -41h-231l-24 -136h291c31 0 38 -12 33 -41l-12 -67c-5 -31 -16 -41 -47 -41h-412c-31 0 -39 10 -34 41l111 628c7 31 17 41 48 41z" />
    <glyph glyph-name="uni0410" unicode="&#x410;" horiz-adv-x="670" 
d="M513 678l126 -638c5 -27 -7 -40 -34 -40h-70c-51 0 -64 8 -68 37l-14 94h-248l-48 -94c-15 -29 -30 -37 -79 -37h-74c-28 0 -35 13 -20 40l352 636c13 27 26 34 55 34h77c29 0 40 -7 45 -32zM434 263l-25 155c-5 43 -5 97 -2 124l2 19h-8c-9 -47 -25 -95 -49 -142
l-80 -156h162z" />
    <glyph glyph-name="uni0411" unicode="&#x411;" horiz-adv-x="638" 
d="M179 710h423c31 0 38 -10 33 -41l-11 -63c-5 -31 -17 -41 -48 -41h-301l-21 -116h154c70 0 123 -21 160 -64c36 -43 48 -100 35 -169c-24 -137 -122 -216 -261 -216h-289c-29 0 -38 10 -33 39l111 630c5 31 17 41 48 41zM437 224c9 48 -17 80 -69 80h-139l-28 -159h139
c52 0 89 31 97 79z" />
    <glyph glyph-name="uni0412" unicode="&#x412;" horiz-adv-x="654" 
d="M179 710h281c131 0 200 -80 179 -196c-13 -68 -40 -106 -95 -141l-1 -4c57 -27 81 -91 66 -179c-23 -124 -128 -190 -269 -190h-286c-31 0 -39 10 -34 41l111 628c7 31 17 41 48 41zM251 430h135c48 0 76 23 84 68s-12 68 -60 68h-135zM442 216c8 49 -13 73 -62 73h-153
l-26 -145h153c50 0 79 24 88 72z" />
    <glyph glyph-name="uni0413" unicode="&#x413;" horiz-adv-x="528" 
d="M179 710h369c31 0 39 -10 34 -41l-12 -67c-5 -29 -17 -40 -48 -40h-248l-92 -521c-5 -31 -16 -41 -47 -41h-81c-31 0 -39 10 -34 41l111 628c7 31 17 41 48 41z" />
    <glyph glyph-name="uni0414" unicode="&#x414;" horiz-adv-x="763" 
d="M281 710h411c31 0 39 -10 34 -41l-92 -520h48c31 0 38 -12 33 -41l-39 -220c-5 -31 -16 -41 -47 -41h-78c-31 0 -39 10 -34 41l20 112h-407l-20 -112c-5 -31 -17 -41 -48 -41h-78c-31 0 -39 10 -34 41l39 220c7 31 19 41 48 41h20c29 19 56 51 79 96s43 115 60 210
l37 214c7 31 17 41 48 41zM544 561h-173l-18 -105c-25 -139 -62 -242 -109 -307h227z" />
    <glyph glyph-name="uni0415" unicode="&#x415;" horiz-adv-x="584" 
d="M179 710h402c31 0 39 -10 34 -41l-12 -67c-5 -29 -17 -40 -48 -40h-281l-22 -129h231c29 0 38 -9 33 -40l-12 -67c-5 -31 -17 -41 -48 -41h-231l-24 -136h291c31 0 38 -12 33 -41l-12 -67c-5 -31 -16 -41 -47 -41h-412c-31 0 -39 10 -34 41l111 628c7 31 17 41 48 41z
" />
    <glyph glyph-name="uni0416" unicode="&#x416;" horiz-adv-x="959" 
d="M899 710h87c28 0 33 -19 14 -40l-233 -292c20 -20 37 -50 50 -91l84 -244c9 -29 -1 -43 -30 -43h-77c-52 0 -65 6 -74 37l-58 192c-13 45 -34 58 -91 58h-9l-44 -246c-5 -31 -17 -41 -48 -41h-81c-29 0 -38 10 -33 41l44 246h-10c-27 0 -48 -4 -61 -11
c-13 -8 -28 -24 -44 -47l-128 -192c-21 -31 -37 -37 -89 -37h-80c-29 0 -33 19 -14 43l170 244c29 41 57 72 84 91l-131 292c-11 21 -1 40 26 40h84c51 0 59 -3 72 -34l105 -244c7 1 18 1 31 1h10l42 236c5 31 16 41 47 41h81c31 0 39 -10 34 -41l-42 -236h9
c13 0 22 0 29 -1l188 244c23 29 37 34 86 34z" />
    <glyph glyph-name="uni0417" unicode="&#x417;" horiz-adv-x="641" 
d="M627 506c-11 -59 -44 -104 -99 -135c61 -37 84 -95 69 -176c-25 -140 -127 -210 -305 -210c-168 0 -263 56 -285 168c-5 25 7 43 35 52l79 27c29 11 42 3 47 -26c11 -51 52 -74 141 -74c69 0 108 26 119 78c8 52 -14 78 -65 78h-117c-31 0 -39 9 -34 40l11 62
c7 31 17 41 48 41h100c52 0 82 24 91 73c8 49 -19 74 -83 74c-75 0 -126 -25 -154 -74c-16 -29 -29 -35 -56 -26l-69 27c-25 9 -31 27 -16 52c61 112 160 168 323 168s245 -86 220 -219z" />
    <glyph glyph-name="uni0418" unicode="&#x418;" horiz-adv-x="705" 
d="M593 710h85c31 0 38 -10 33 -41l-110 -628c-5 -31 -17 -41 -48 -41h-81c-31 0 -39 10 -34 41l41 227c13 76 28 127 40 158c5 15 17 43 34 84h-6c-23 -44 -43 -78 -59 -102c-16 -25 -40 -57 -72 -97l-234 -292c-11 -13 -25 -19 -43 -19h-85c-31 0 -39 10 -34 41l111 628
c7 31 17 41 48 41h81c31 0 38 -10 33 -41l-39 -227c-9 -53 -18 -94 -27 -121s-24 -68 -47 -121h5c24 44 45 79 62 105s41 59 72 99l231 287c11 13 25 19 43 19z" />
    <glyph glyph-name="uni0419" unicode="&#x419;" horiz-adv-x="705" 
d="M547 785c-32 -18 -68 -27 -107 -27s-72 9 -97 27c-25 17 -41 42 -46 74c-4 19 1 27 21 34l57 20c21 7 28 4 33 -12c6 -26 23 -39 50 -39s48 13 63 39c9 13 21 18 35 13l54 -21c17 -8 20 -15 11 -34c-17 -32 -42 -57 -74 -74zM593 710h85c31 0 38 -10 33 -41l-110 -628
c-5 -31 -17 -41 -48 -41h-81c-31 0 -39 10 -34 41l41 227c13 76 28 127 40 158c5 15 17 43 34 84h-6c-23 -44 -43 -78 -59 -102c-16 -25 -40 -57 -72 -97l-234 -292c-11 -13 -25 -19 -43 -19h-85c-31 0 -39 10 -34 41l111 628c7 31 17 41 48 41h81c31 0 38 -10 33 -41
l-39 -227c-9 -53 -18 -94 -27 -121s-24 -68 -47 -121h5c24 44 45 79 62 105s41 59 72 99l231 287c11 13 25 19 43 19z" />
    <glyph glyph-name="uni041A" unicode="&#x41a;" horiz-adv-x="641" 
d="M499 287l85 -244c11 -24 0 -43 -29 -43h-80c-52 0 -66 6 -75 37l-60 190c-16 47 -32 60 -88 60h-26l-44 -246c-5 -31 -16 -41 -47 -41h-81c-31 0 -39 10 -34 41l111 628c7 31 17 41 48 41h81c31 0 38 -10 33 -41l-42 -236h16h11l219 243c13 15 25 24 35 28c9 4 26 6 50 6
h88c28 0 33 -19 14 -40l-261 -282c34 -19 59 -53 76 -101z" />
    <glyph glyph-name="uni041B" unicode="&#x41b;" horiz-adv-x="689" 
d="M262 710h402c31 0 39 -10 34 -41l-111 -628c-5 -31 -17 -41 -48 -41h-80c-31 0 -39 10 -34 41l92 520h-163l-18 -105c-28 -157 -69 -270 -121 -337c-53 -68 -96 -98 -161 -127c-31 -13 -43 -8 -51 20l-26 69c-9 27 -2 40 29 55c35 16 56 32 89 76s61 127 82 243l37 214
c7 31 17 41 48 41z" />
    <glyph glyph-name="uni041C" unicode="&#x41c;" horiz-adv-x="820" 
d="M721 710h72c31 0 39 -11 34 -40l-111 -630c-5 -29 -17 -40 -48 -40h-75c-31 0 -38 11 -33 40l40 227c10 61 34 136 72 225h-8c-31 -65 -69 -127 -113 -186l-92 -127c-16 -21 -27 -29 -51 -29h-41c-24 0 -32 6 -40 29l-50 127c-19 48 -33 110 -42 186h-8
c5 -88 2 -163 -9 -226l-40 -226c-5 -29 -17 -40 -48 -40h-76c-31 0 -39 9 -34 40l111 630c5 29 17 40 48 40h63c33 0 43 -6 52 -30l124 -339l244 338c19 27 27 31 59 31z" />
    <glyph glyph-name="uni041D" unicode="&#x41d;" horiz-adv-x="691" 
d="M583 710h81c31 0 38 -10 33 -41l-111 -628c-5 -31 -16 -41 -47 -41h-81c-31 0 -39 10 -34 41l43 244h-241l-43 -244c-5 -31 -17 -41 -48 -41h-81c-31 0 -39 10 -34 41l111 628c5 31 17 41 48 41h81c31 0 38 -10 33 -41l-41 -235h242l41 235c7 31 17 41 48 41z" />
    <glyph glyph-name="uni041E" unicode="&#x41e;" horiz-adv-x="675" 
d="M57 262l36 203c29 167 149 260 337 260c93 0 162 -25 206 -76c43 -51 58 -119 44 -204l-36 -203c-29 -167 -148 -257 -337 -257c-93 0 -162 25 -205 76c-44 50 -59 117 -45 201zM484 251l37 208c13 77 -28 117 -113 117c-89 0 -140 -39 -153 -117l-37 -208
c-13 -77 27 -117 112 -117c89 0 140 39 154 117z" />
    <glyph glyph-name="uni041F" unicode="&#x41f;" horiz-adv-x="686" 
d="M179 710h479c31 0 39 -10 34 -41l-111 -628c-5 -31 -17 -41 -48 -41h-81c-29 0 -38 10 -33 41l92 521h-237l-92 -521c-5 -31 -16 -41 -47 -41h-81c-31 0 -39 10 -34 41l111 628c7 31 17 41 48 41z" />
    <glyph glyph-name="uni0420" unicode="&#x420;" horiz-adv-x="640" 
d="M179 710h267c75 0 130 -23 167 -70c36 -47 47 -108 34 -183c-27 -148 -131 -226 -284 -226h-147l-34 -190c-5 -31 -16 -41 -47 -41h-81c-31 0 -39 10 -34 41l111 628c7 31 17 41 48 41zM242 380h130c59 0 100 33 109 90c11 57 -20 92 -77 92h-130z" />
    <glyph glyph-name="uni0421" unicode="&#x421;" horiz-adv-x="640" 
d="M57 262l36 204c29 167 150 259 339 259c139 0 220 -57 241 -171c5 -29 -1 -43 -32 -52l-73 -24c-31 -9 -41 -4 -48 25c-10 49 -47 73 -112 73c-89 0 -140 -40 -154 -119l-36 -204c-14 -79 23 -119 112 -119c65 0 111 24 139 73c16 29 29 36 56 25l75 -29
c27 -11 32 -24 17 -52c-61 -111 -164 -166 -311 -166c-187 0 -277 108 -249 277z" />
    <glyph glyph-name="uni0422" unicode="&#x422;" horiz-adv-x="581" 
d="M128 710h476c31 0 38 -10 33 -41l-11 -67c-7 -29 -19 -40 -48 -40h-157l-92 -521c-5 -31 -17 -41 -48 -41h-81c-29 0 -38 10 -33 41l92 521h-157c-31 0 -38 11 -33 40l11 67c5 31 17 41 48 41z" />
    <glyph glyph-name="uni0423" unicode="&#x423;" horiz-adv-x="623" 
d="M586 710h89c25 0 29 -14 14 -41l-391 -633c-19 -31 -30 -36 -73 -36h-96c-26 0 -30 14 -13 41l112 170l-149 458c-9 27 1 41 28 41h84c51 0 60 -3 69 -36l85 -279l168 279c10 17 19 27 26 31c7 3 23 5 47 5z" />
    <glyph glyph-name="uni0424" unicode="&#x424;" horiz-adv-x="850" 
d="M487 735h81c31 0 38 -10 33 -41l-7 -44h41c176 0 258 -100 229 -263l-12 -70c-28 -161 -140 -252 -319 -252h-42l-8 -44c-5 -31 -17 -41 -48 -41h-81c-31 0 -39 10 -34 41l8 44h-42c-176 0 -257 102 -228 266l12 70c29 161 140 249 319 249h42l8 44c5 31 17 41 48 41z
M405 507h-39c-75 0 -119 -36 -132 -108l-15 -83c-12 -72 20 -108 95 -108h39zM687 316l15 83c13 72 -18 108 -95 108h-39l-52 -299h39c76 0 120 36 132 108z" />
    <glyph glyph-name="uni0425" unicode="&#x425;" horiz-adv-x="650" 
d="M585 710h97c27 0 32 -19 13 -39l-257 -308l155 -322c13 -21 1 -41 -27 -41h-93c-51 0 -60 3 -73 36l-87 198l-148 -198c-13 -16 -24 -26 -33 -30c-10 -4 -27 -6 -52 -6h-95c-28 0 -32 18 -13 41l267 321l-146 309c-12 20 -2 39 26 39h89c48 0 58 -5 75 -34l79 -185
l143 185c13 15 24 25 33 29c9 3 24 5 47 5z" />
    <glyph glyph-name="uni0426" unicode="&#x426;" horiz-adv-x="723" 
d="M596 149h44c31 0 38 -12 33 -41l-39 -220c-5 -31 -16 -41 -47 -41h-74c-31 0 -39 10 -34 41l20 112h-445c-31 0 -39 10 -34 41l111 628c7 31 17 41 48 41h81c31 0 38 -10 33 -41l-92 -520h233l91 520c5 31 17 41 48 41h81c31 0 39 -10 34 -41z" />
    <glyph glyph-name="uni0427" unicode="&#x427;" horiz-adv-x="648" 
d="M581 710h81c31 0 38 -10 33 -41l-110 -628c-5 -31 -17 -41 -48 -41h-81c-31 0 -39 10 -34 41l39 216c-40 -6 -83 -9 -128 -9c-177 0 -251 89 -221 266l27 155c5 31 17 41 48 41h81c31 0 39 -10 34 -41l-30 -166c-13 -77 17 -104 102 -104c42 0 80 4 114 12l45 258
c7 31 17 41 48 41z" />
    <glyph glyph-name="uni0428" unicode="&#x428;" horiz-adv-x="940" 
d="M832 710h81c31 0 39 -10 34 -41l-111 -628c-5 -31 -17 -41 -48 -41h-734c-31 0 -39 10 -34 41l111 628c7 31 17 41 48 41h81c31 0 38 -10 33 -41l-92 -520h165l92 520c5 31 16 41 47 41h81c31 0 39 -10 34 -41l-92 -520h164l92 520c7 31 17 41 48 41z" />
    <glyph glyph-name="uni0429" unicode="&#x429;" horiz-adv-x="982" 
d="M855 149h43c31 0 41 -10 34 -41l-39 -221c-5 -29 -17 -40 -48 -40h-73c-31 0 -39 9 -34 40l20 113h-704c-31 0 -39 10 -34 41l111 628c7 31 17 41 48 41h81c31 0 38 -10 33 -41l-92 -520h165l92 520c5 31 16 41 47 41h81c31 0 39 -10 34 -41l-92 -520h164l92 520
c7 31 17 41 48 41h81c31 0 39 -10 34 -41z" />
    <glyph glyph-name="uni042A" unicode="&#x42a;" horiz-adv-x="755" 
d="M377 479h138c75 0 132 -23 171 -70c38 -47 51 -107 38 -182c-27 -149 -129 -227 -281 -227h-272c-31 0 -39 10 -34 41l92 520h-127c-31 0 -38 12 -33 41l11 67c5 31 17 41 48 41h248c31 0 39 -10 34 -41zM318 148h130c57 0 98 35 109 92c9 57 -18 90 -77 90h-129z" />
    <glyph glyph-name="uni042B" unicode="&#x42b;" horiz-adv-x="929" 
d="M606 230c-25 -148 -130 -230 -281 -230h-271c-31 0 -39 10 -34 41l111 628c7 31 17 41 48 41h81c31 0 38 -10 33 -41l-33 -190h141c75 0 132 -23 169 -68s49 -106 36 -181zM663 40l111 630c7 31 18 40 47 40h82c31 0 38 -11 33 -40l-111 -630c-5 -29 -16 -40 -47 -40h-82
c-29 0 -38 9 -33 40zM440 240c9 57 -17 90 -76 90h-130l-33 -182h130c57 0 98 35 109 92z" />
    <glyph glyph-name="uni042C" unicode="&#x42c;" horiz-adv-x="637" 
d="M606 230c-25 -148 -130 -230 -281 -230h-271c-31 0 -39 10 -34 41l111 628c7 31 17 41 48 41h81c31 0 38 -10 33 -41l-33 -190h141c75 0 132 -23 169 -68s49 -106 36 -181zM403 173c19 16 32 38 37 67s1 51 -12 67c-14 15 -36 23 -65 23h-129l-33 -182h130
c29 0 53 8 72 25z" />
    <glyph glyph-name="uni042D" unicode="&#x42d;" horiz-adv-x="645" 
d="M78 557c61 112 165 168 310 168c93 0 160 -26 203 -77s57 -119 42 -204l-35 -202c-31 -167 -146 -257 -334 -257c-147 0 -237 60 -257 168c-5 28 4 43 35 52l79 27c29 11 42 3 47 -26c10 -49 48 -74 115 -74c88 0 139 39 154 117l6 37h-204c-31 0 -40 10 -33 41l11 65
c5 31 17 41 48 41h204l5 29c13 76 -27 116 -112 116c-66 0 -114 -25 -143 -74c-16 -29 -28 -34 -56 -25l-69 26c-27 11 -31 24 -16 52z" />
    <glyph glyph-name="uni042E" unicode="&#x42e;" horiz-adv-x="954" 
d="M365 434l6 35c25 163 148 256 332 256c181 0 267 -109 238 -278l-35 -203c-31 -167 -148 -259 -332 -259c-181 0 -269 105 -241 270l5 30h-112l-43 -244c-5 -31 -17 -41 -48 -41h-81c-31 0 -39 10 -34 41l111 628c7 31 17 41 48 41h81c31 0 38 -10 33 -41l-41 -235h113z
M744 250l38 210c13 77 -22 116 -105 116s-132 -39 -145 -116l-37 -210c-13 -76 23 -116 104 -116c83 0 131 39 145 116z" />
    <glyph glyph-name="uni042F" unicode="&#x42f;" horiz-adv-x="656" 
d="M101 492c25 143 127 218 275 218h277c31 0 39 -10 34 -41l-111 -628c-5 -31 -17 -41 -48 -41h-81c-29 0 -38 10 -33 41l37 211h-45c-59 0 -81 -11 -110 -59l-94 -156c-19 -31 -36 -37 -89 -37h-80c-29 0 -33 14 -14 43l130 197c7 9 25 37 31 45c-65 36 -96 110 -79 207z
M506 562h-140c-54 0 -86 -27 -97 -82c-9 -52 16 -81 69 -81h139z" />
    <glyph glyph-name="uni0430" unicode="&#x430;" horiz-adv-x="542" 
d="M36 207l22 126c25 140 110 202 269 202c81 0 142 -11 185 -33c29 -15 33 -23 26 -56l-69 -394c-5 -28 -15 -37 -44 -44c-62 -15 -130 -23 -205 -23c-144 0 -209 87 -184 222zM372 393c-18 5 -38 7 -59 7c-64 0 -96 -23 -107 -82l-22 -125c-8 -49 16 -73 72 -73
c27 0 52 2 75 7l46 258c1 4 0 7 -5 8z" />
    <glyph glyph-name="uni0431" unicode="&#x431;" horiz-adv-x="556" 
d="M420 729h30c31 0 55 4 72 11c27 13 42 5 47 -24l9 -54c4 -28 -3 -38 -31 -53c-23 -11 -62 -16 -115 -16h-35c-105 0 -145 -31 -161 -123l-2 -11c34 31 78 46 131 46c131 0 198 -80 173 -216l-18 -101c-25 -135 -114 -203 -269 -203c-153 0 -229 85 -205 218l38 222
c19 108 54 186 105 233s128 71 231 71zM370 194l18 102c8 50 -16 75 -72 75c-60 0 -94 -25 -102 -75l-18 -102c-9 -50 15 -75 72 -75c59 0 93 25 102 75z" />
    <glyph glyph-name="uni0432" unicode="&#x432;" horiz-adv-x="544" 
d="M138 508c49 18 109 27 179 27s122 -15 156 -44c34 -30 47 -69 38 -118c-8 -45 -37 -78 -86 -99c52 -19 83 -64 74 -123c-16 -111 -103 -166 -260 -166c-85 0 -149 7 -191 22c-29 9 -41 29 -36 60l65 367c7 37 27 62 61 74zM359 364c4 29 -20 47 -64 47
c-28 0 -51 -2 -69 -7c-4 -1 -6 -4 -6 -7l-14 -78h75c46 0 72 15 78 45zM345 160c5 33 -21 51 -80 51h-77l-17 -94c0 -2 1 -3 2 -4c23 -3 47 -5 70 -5c61 0 95 17 102 52z" />
    <glyph glyph-name="uni0433" unicode="&#x433;" horiz-adv-x="510" 
d="M79 428c50 71 129 107 238 107c136 0 204 -67 188 -163c-12 -64 -40 -106 -86 -128s-84 -30 -147 -35c-75 -7 -115 -25 -120 -56c-5 -32 21 -42 82 -42c49 0 84 14 104 41c17 25 29 30 53 21l52 -19c25 -9 31 -26 16 -52c-44 -78 -126 -117 -246 -117
c-145 0 -219 66 -200 167c20 109 96 155 240 167c69 7 106 18 111 51c4 27 -14 37 -73 37c-43 0 -76 -13 -98 -39c-20 -24 -27 -27 -54 -16l-50 23c-24 11 -27 28 -10 53z" />
    <glyph glyph-name="uni0434" unicode="&#x434;" 
d="M178 648l10 58c4 28 15 38 43 38c102 0 175 -11 220 -32c96 -47 125 -148 93 -325l-35 -198c-23 -132 -117 -204 -272 -204s-228 83 -204 215l19 103c21 127 116 198 244 198c56 0 97 -15 122 -45c9 89 -15 113 -60 134c-29 15 -78 22 -147 22c-29 0 -37 8 -33 36z
M358 194l18 102c8 50 -17 75 -74 75c-59 0 -92 -25 -100 -75l-18 -102c-9 -50 15 -75 73 -75s92 25 101 75z" />
    <glyph glyph-name="uni0435" unicode="&#x435;" horiz-adv-x="536" 
d="M37 219l21 111c24 132 122 205 277 205c70 0 124 -17 162 -51c37 -35 51 -80 42 -137c-17 -95 -97 -142 -242 -142c-28 0 -65 3 -110 9l-4 -26c-10 -53 15 -79 75 -79c46 0 81 13 106 40c23 24 33 28 60 13l45 -27c23 -14 24 -34 5 -59c-47 -61 -127 -91 -238 -91
c-81 0 -138 22 -170 66s-42 100 -29 168zM392 361c5 35 -21 54 -77 54s-95 -31 -106 -80l-3 -13c43 -5 75 -8 97 -8c53 0 83 16 89 47z" />
    <glyph glyph-name="uni0436" unicode="&#x436;" horiz-adv-x="763" 
d="M387 520h74c29 0 36 -9 31 -38l-26 -151h14h6l119 159c19 27 30 30 73 30h72c35 0 40 -15 17 -44l-157 -195c15 -11 27 -31 36 -60l54 -176c11 -32 3 -45 -33 -45h-69c-44 0 -53 5 -60 34l-29 123c-7 26 -25 39 -54 40h-12l-29 -159c-5 -29 -16 -38 -45 -38h-74
c-29 0 -37 9 -32 38l29 159h-10c-31 0 -54 -13 -69 -40l-73 -123c-17 -29 -29 -34 -72 -34h-69c-36 0 -40 13 -17 45l115 177c23 33 42 55 55 64l-86 190c-14 29 -3 44 33 44h65c43 0 56 -5 65 -30l66 -159h8h12l26 151c5 29 15 38 46 38z" />
    <glyph glyph-name="uni0437" unicode="&#x437;" horiz-adv-x="512" 
d="M60 410c43 83 123 125 241 125c135 0 207 -60 192 -161c-7 -44 -34 -89 -78 -106l-1 -3c43 -22 60 -62 51 -120c-17 -107 -99 -160 -246 -160c-125 0 -199 44 -220 132c-7 27 5 45 35 53l61 18c32 9 41 4 48 -23c8 -35 38 -53 90 -53c50 0 78 16 83 49
c5 25 -10 42 -39 42h-83c-27 0 -34 9 -29 36l8 45c4 27 15 36 42 36h75c31 0 49 13 54 39c5 31 -18 50 -59 50c-47 0 -80 -15 -99 -46c-16 -28 -27 -33 -56 -25l-55 19c-25 9 -30 26 -15 53z" />
    <glyph glyph-name="uni0438" unicode="&#x438;" 
d="M449 520h77c28 0 35 -9 30 -37l-71 -404c-7 -33 -15 -45 -50 -58c-62 -24 -132 -36 -210 -36c-144 0 -202 82 -178 217l49 281c5 28 16 37 44 37h77c28 0 35 -9 30 -37l-50 -286c-9 -52 13 -75 72 -75c23 0 45 2 66 7c6 2 9 6 10 11l60 343c5 28 16 37 44 37z" />
    <glyph glyph-name="uni0439" unicode="&#x439;" 
d="M523 670c-37 -68 -103 -107 -186 -107s-142 40 -155 107c-3 20 3 28 24 35l54 20c23 7 30 4 37 -13c5 -27 24 -40 55 -40c27 0 50 14 67 42c9 14 21 18 35 13l58 -22c16 -7 20 -19 11 -35zM449 520h77c28 0 35 -9 30 -37l-71 -404c-7 -33 -15 -45 -50 -58
c-62 -24 -132 -36 -210 -36c-144 0 -202 82 -178 217l49 281c5 28 16 37 44 37h77c28 0 35 -9 30 -37l-50 -286c-9 -52 13 -75 72 -75c23 0 45 2 66 7c6 2 9 6 10 11l60 343c5 28 16 37 44 37z" />
    <glyph glyph-name="uni043A" unicode="&#x43a;" horiz-adv-x="533" 
d="M414 221l56 -176c11 -32 2 -45 -34 -45h-66c-41 0 -50 5 -59 34l-32 123c-8 28 -27 42 -56 42h-36l-28 -161c-5 -29 -16 -38 -45 -38h-75c-29 0 -36 9 -31 38l78 444c5 29 16 38 45 38h75c29 0 36 -9 31 -38l-26 -151h18h8l142 159c23 27 33 30 76 30h67
c36 0 39 -21 12 -49l-166 -184c19 -9 35 -31 46 -66z" />
    <glyph glyph-name="uni043B" unicode="&#x43b;" 
d="M197 520h317c28 0 35 -9 30 -37l-78 -446c-5 -28 -16 -37 -43 -37h-78c-27 0 -35 9 -30 37l61 346h-101l-23 -95c-33 -139 -64 -204 -107 -242c-31 -28 -49 -36 -85 -52c-6 -3 -11 -5 -14 -6c-21 -8 -35 -1 -42 20l-27 71c-5 17 1 31 20 40c1 0 21 9 27 14
c6 4 23 16 34 33c16 26 37 68 54 140l41 177c7 28 16 37 44 37z" />
    <glyph glyph-name="uni043C" unicode="&#x43c;" horiz-adv-x="649" 
d="M536 520h66c32 0 38 -9 33 -40l-78 -443c-5 -28 -16 -37 -44 -37h-65c-29 0 -36 8 -31 37l22 123c8 43 27 99 56 166h-5c-20 -41 -43 -78 -68 -111l-62 -83c-16 -23 -24 -27 -49 -27h-37c-24 0 -32 4 -40 27l-33 83c-11 28 -20 65 -27 111h-5c4 -77 3 -133 -3 -167
l-21 -122c-5 -28 -16 -37 -44 -37h-64c-29 0 -35 8 -30 37l78 443c5 31 16 40 48 40h56c29 0 39 -6 48 -30l82 -224l161 223c16 24 27 31 56 31z" />
    <glyph glyph-name="uni043D" unicode="&#x43d;" horiz-adv-x="557" 
d="M436 520h78c27 0 34 -9 29 -37l-78 -446c-5 -28 -16 -37 -43 -37h-78c-28 0 -35 9 -30 37l28 158h-155l-28 -158c-5 -28 -16 -37 -43 -37h-78c-28 0 -35 9 -30 37l78 446c5 28 16 37 44 37h78c27 0 34 -9 29 -37l-26 -150h155l26 150c5 28 16 37 44 37z" />
    <glyph glyph-name="uni043E" unicode="&#x43e;" horiz-adv-x="547" 
d="M35 200l22 129c24 132 119 206 274 206s226 -83 202 -218l-22 -129c-24 -132 -117 -203 -274 -203c-153 0 -226 82 -202 215zM360 194l24 132c8 50 -17 75 -75 75s-92 -25 -101 -75l-23 -132c-9 -50 15 -75 74 -75c58 0 92 25 101 75z" />
    <glyph glyph-name="uni043F" unicode="&#x43f;" 
d="M127 499c63 24 134 36 211 36c143 0 202 -81 178 -216l-49 -282c-5 -28 -16 -37 -44 -37h-78c-27 0 -35 9 -30 37l50 286c9 50 -14 75 -71 75c-26 0 -50 -3 -72 -9c-1 0 -3 -1 -4 -4l-61 -348c-5 -28 -16 -37 -43 -37h-78c-28 0 -35 9 -30 37l71 404c7 33 15 45 50 58z
" />
    <glyph glyph-name="uni0440" unicode="&#x440;" horiz-adv-x="544" 
d="M128 504c58 21 128 31 209 31c145 0 204 -81 179 -216l-22 -127c-25 -138 -114 -207 -267 -207c-23 0 -49 3 -76 9l-32 -177c-5 -28 -16 -37 -44 -37h-77c-28 0 -35 9 -30 37l111 629c7 33 16 45 49 58zM345 202l22 125c9 47 -18 73 -71 73c-23 0 -46 -2 -71 -7
c-3 -1 -5 -3 -6 -7l-45 -260c24 -4 46 -6 65 -6c60 0 95 27 106 82z" />
    <glyph glyph-name="uni0441" unicode="&#x441;" horiz-adv-x="513" 
d="M35 205l22 127c24 135 113 203 268 203c115 0 179 -53 194 -133c4 -29 -4 -43 -32 -52l-60 -20c-31 -11 -41 -4 -48 25c-9 33 -34 50 -77 50c-54 0 -85 -25 -94 -76l-25 -139c-9 -50 13 -75 67 -75c40 0 71 17 92 51c16 28 29 33 56 24l63 -20c26 -10 31 -28 15 -53
c-51 -88 -134 -132 -248 -132c-153 0 -217 84 -193 220z" />
    <glyph glyph-name="uni0442" unicode="&#x442;" horiz-adv-x="825" 
d="M445 505c57 20 115 30 173 30c139 0 192 -80 169 -215l-50 -283c-5 -28 -16 -37 -44 -37h-77c-28 0 -35 9 -30 37l50 287c9 49 -11 74 -62 74c-23 0 -46 -3 -71 -10c1 -17 -1 -38 -5 -61l-51 -290c-5 -28 -16 -37 -43 -37h-78c-28 0 -35 9 -30 37l50 287
c9 53 -10 74 -62 74c-18 0 -38 -3 -61 -8c-2 0 -4 -2 -5 -6l-61 -347c-5 -28 -16 -37 -43 -37h-78c-28 0 -35 9 -30 37l71 404c7 33 15 45 50 58c63 24 130 36 201 36c51 0 90 -10 117 -30z" />
    <glyph glyph-name="uni0443" unicode="&#x443;" horiz-adv-x="557" 
d="M449 520h78c27 0 34 -9 29 -37l-86 -493c-26 -147 -115 -220 -267 -220c-100 0 -164 32 -193 96c-13 25 -4 44 25 58l57 27c32 15 43 11 56 -13c14 -25 39 -38 75 -38c53 0 84 27 94 81l7 41c-25 -5 -57 -7 -94 -7c-144 0 -201 83 -177 219l43 249c5 28 16 37 44 37h77
c28 0 35 -9 30 -37l-45 -256c-9 -50 16 -75 73 -75c23 0 47 2 73 7l57 324c5 28 16 37 44 37z" />
    <glyph glyph-name="uni0444" unicode="&#x444;" horiz-adv-x="747" 
d="M540 702l-30 -169c17 1 30 2 39 2c151 0 212 -91 184 -240l-16 -92c-27 -148 -111 -218 -264 -218c-9 0 -22 1 -39 2l-30 -170c-5 -28 -16 -37 -43 -37h-78c-27 0 -35 9 -30 37l30 170c-16 -1 -29 -2 -38 -2c-151 0 -212 88 -184 239l16 92c26 146 114 219 264 219
c9 0 22 -1 38 -2l30 169c5 28 16 37 43 37h78c27 0 35 -9 30 -37zM206 306l-16 -92c-11 -63 12 -94 67 -94c9 0 21 1 34 2l49 276c-13 1 -24 2 -33 2c-57 0 -90 -31 -101 -94zM568 214l16 92c11 64 -9 94 -68 94c-8 0 -19 -1 -34 -2l-48 -276c13 -1 24 -2 32 -2
c57 0 91 31 102 94z" />
    <glyph glyph-name="uni0445" unicode="&#x445;" horiz-adv-x="526" 
d="M436 520h78c36 0 42 -15 18 -44l-178 -208l111 -224c16 -29 6 -44 -35 -44h-62c-41 0 -48 3 -61 32l-59 131l-101 -131c-21 -28 -33 -32 -73 -32h-75c-44 0 -47 15 -19 44l188 222l-106 210c-13 29 -1 44 36 44h60c41 0 50 -5 62 -32l54 -115l92 115c23 28 31 32 70 32z
" />
    <glyph glyph-name="uni0446" unicode="&#x446;" horiz-adv-x="603" 
d="M141 520h77c28 0 35 -9 30 -37l-50 -286c-9 -52 13 -75 72 -75c23 0 47 3 74 9l62 352c5 28 16 37 44 37h77c28 0 35 -9 30 -37l-61 -346c71 5 86 -28 71 -108l-22 -131c-5 -28 -15 -37 -43 -37h-72c-28 0 -36 9 -31 37l17 90c3 19 -6 24 -27 19
c-46 -15 -101 -22 -164 -22c-144 0 -202 85 -177 220l49 278c5 28 16 37 44 37z" />
    <glyph glyph-name="uni0447" unicode="&#x447;" horiz-adv-x="520" 
d="M53 375l18 108c5 28 16 37 44 37h78c27 0 34 -9 29 -37l-20 -113c-8 -52 10 -73 66 -73c25 0 52 4 61 7l8 2l31 177c5 28 16 37 44 37h77c28 0 35 -9 30 -37l-78 -446c-5 -28 -16 -37 -44 -37h-77c-28 0 -35 9 -30 37l23 131c-17 -5 -47 -7 -90 -7
c-137 0 -193 82 -170 214z" />
    <glyph glyph-name="uni0448" unicode="&#x448;" horiz-adv-x="825" 
d="M720 520h78c28 0 35 -9 30 -37l-71 -404c-7 -33 -15 -45 -50 -58c-63 -24 -130 -36 -201 -36c-50 0 -89 9 -117 28c-53 -19 -111 -28 -173 -28c-139 0 -193 85 -168 221l49 277c5 28 16 37 44 37h77c28 0 35 -9 30 -37l-50 -287c-9 -49 11 -74 62 -74c23 0 46 3 71 10
c-1 17 1 38 5 61l51 290c5 28 16 37 43 37h78c28 0 35 -9 30 -37l-50 -287c-9 -49 11 -74 62 -74c20 0 39 2 58 7c5 1 7 4 8 10l61 344c5 28 16 37 43 37z" />
    <glyph glyph-name="uni0449" unicode="&#x449;" horiz-adv-x="873" 
d="M48 206l49 277c5 28 16 37 44 37h77c28 0 35 -9 30 -37l-50 -287c-9 -49 11 -74 62 -74c23 0 46 3 71 10c-1 17 1 38 5 61l51 290c5 28 16 37 43 37h78c28 0 35 -9 30 -37l-50 -287c-9 -49 11 -74 62 -74c25 0 46 3 65 10l62 351c5 28 16 37 43 37h78c28 0 35 -9 30 -37
l-61 -346c71 5 86 -28 71 -108l-22 -131c-5 -28 -16 -37 -43 -37h-72c-28 0 -37 9 -32 37l17 90c4 19 -5 25 -26 19c-55 -15 -106 -22 -154 -22c-50 0 -89 9 -117 28c-53 -19 -111 -28 -173 -28c-139 0 -193 85 -168 221z" />
    <glyph glyph-name="uni044A" unicode="&#x44a;" horiz-adv-x="606" 
d="M326 483l-18 -107c30 6 57 9 81 9c132 0 205 -73 181 -206c-21 -125 -107 -194 -242 -194c-79 0 -143 10 -194 31c-29 13 -37 25 -30 58l56 312h-94c-27 0 -35 9 -30 37l10 60c5 28 16 37 44 37h207c27 0 34 -9 29 -37zM267 124c18 -5 40 -7 66 -7c52 0 82 23 90 70
c9 51 -15 72 -72 72c-19 0 -41 -2 -65 -6l-22 -122c-1 -3 0 -6 3 -7z" />
    <glyph glyph-name="uni044B" unicode="&#x44b;" horiz-adv-x="732" 
d="M234 483l-18 -108c33 7 60 10 81 10c132 -1 204 -73 181 -206c-23 -125 -109 -194 -242 -194c-79 0 -143 10 -194 31c-29 13 -37 25 -30 58l74 409c5 28 16 37 44 37h75c27 0 34 -9 29 -37zM611 520h78c27 0 35 -9 30 -37l-78 -446c-5 -28 -16 -37 -44 -37h-78
c-27 0 -34 9 -29 37l78 446c5 28 16 37 43 37zM175 124c18 -5 40 -7 66 -7c48 0 82 26 90 71c9 51 -15 71 -72 71c-18 0 -40 -2 -65 -6l-22 -122c-1 -3 0 -6 3 -7z" />
    <glyph glyph-name="uni044C" unicode="&#x44c;" horiz-adv-x="513" 
d="M234 483l-18 -108c33 7 60 10 81 10c132 -1 204 -73 181 -206c-23 -125 -109 -194 -242 -194c-79 0 -143 10 -194 31c-29 13 -37 25 -30 58l74 409c5 28 16 37 44 37h75c27 0 34 -9 29 -37zM175 124c18 -5 40 -7 66 -7c48 0 82 26 90 71c9 51 -15 71 -72 71
c-18 0 -40 -2 -65 -6l-22 -122c-1 -3 0 -6 3 -7z" />
    <glyph glyph-name="uni044D" unicode="&#x44d;" horiz-adv-x="512" 
d="M50 407c40 79 120 128 235 128c157 0 224 -85 200 -220l-23 -126c-23 -135 -102 -204 -257 -204c-117 0 -186 44 -207 133c-7 29 4 42 35 53l62 18c31 8 40 3 47 -22c11 -37 36 -55 75 -55c55 0 87 25 95 76l3 12l-118 1c-27 0 -34 8 -30 35l10 53c4 25 15 35 42 35h118
l1 10c9 53 -12 75 -69 75c-40 0 -70 -17 -91 -50c-15 -25 -34 -33 -57 -24l-55 19c-27 11 -32 22 -16 53z" />
    <glyph glyph-name="uni044E" unicode="&#x44e;" horiz-adv-x="768" 
d="M277 333l2 10c25 128 113 192 264 192c152 0 221 -86 198 -219l-23 -130c-24 -134 -112 -201 -265 -201c-148 0 -218 75 -201 204l1 6h-66l-28 -158c-5 -28 -16 -37 -43 -37h-78c-28 0 -35 9 -30 37l78 446c5 28 16 37 44 37h78c27 0 34 -9 29 -37l-26 -150h66zM567 194
l24 132c9 50 -14 75 -69 75c-54 0 -86 -25 -95 -75l-24 -132c-9 -50 13 -75 68 -75s87 25 96 75z" />
    <glyph glyph-name="uni044F" unicode="&#x44f;" horiz-adv-x="535" 
d="M261 520h229c28 0 35 -9 30 -37l-76 -446c-5 -28 -16 -37 -44 -37h-78c-28 0 -35 9 -30 37l22 124h-67l-89 -128c-19 -29 -32 -33 -75 -33h-68c-43 0 -45 14 -20 45l107 141c-51 29 -69 84 -55 163c20 111 99 171 214 171zM354 392h-92c-32 0 -57 -24 -62 -53
c-7 -31 11 -51 44 -51h92z" />
    <glyph glyph-name="uni0451" unicode="&#x451;" horiz-adv-x="536" 
d="M259 723h8c48 0 61 -16 53 -64l-2 -11c-9 -48 -28 -63 -76 -63h-7c-48 0 -61 15 -53 63l2 11c9 48 27 64 75 64zM466 723h7c49 0 61 -16 52 -64l-2 -11c-8 -48 -26 -63 -74 -63h-7c-49 0 -63 16 -54 63l2 11c8 48 27 64 76 64zM37 219l21 111c24 132 122 205 277 205
c70 0 124 -17 162 -51c37 -35 51 -80 42 -137c-17 -95 -97 -142 -242 -142c-28 0 -65 3 -110 9l-4 -26c-10 -53 15 -79 75 -79c46 0 81 13 106 40c23 24 33 28 60 13l45 -27c23 -14 24 -34 5 -59c-47 -61 -127 -91 -238 -91c-81 0 -138 22 -170 66s-42 100 -29 168zM392 361
c5 35 -21 54 -77 54s-95 -31 -106 -80l-3 -13c43 -5 75 -8 97 -8c53 0 83 16 89 47z" />
    <glyph glyph-name="Wgrave" unicode="&#x1e80;" horiz-adv-x="915" 
d="M446 863l45 44c17 17 39 18 66 2l126 -83c16 -11 15 -18 -4 -38l-24 -25c-9 -9 -24 -10 -46 -2l-164 62c-21 9 -20 19 1 40zM858 710h86c29 0 32 -12 20 -40l-265 -636c-12 -28 -27 -34 -56 -34h-87c-29 0 -42 7 -43 32l-25 323c-1 51 2 96 9 137h-9
c-8 -43 -22 -89 -41 -137l-139 -321c-12 -28 -25 -34 -56 -34h-82c-29 0 -43 7 -44 32l-44 638c-3 29 5 40 34 40h92c35 0 47 -7 48 -36l6 -308c1 -19 -1 -46 -4 -83s-6 -60 -8 -71h7c3 15 9 39 19 73s19 61 28 81l134 308c12 28 28 36 60 36h73c33 0 47 -8 48 -36l23 -308
c2 -22 2 -50 1 -84c-2 -34 -4 -57 -7 -70h7c11 51 26 102 44 154l111 308c11 29 24 36 60 36z" />
    <glyph glyph-name="wgrave" unicode="&#x1e81;" horiz-adv-x="746" 
d="M329 688l45 43c19 18 41 19 66 2l126 -84c16 -11 14 -19 -5 -38l-24 -24c-9 -10 -24 -11 -45 -3l-165 64c-20 9 -19 19 2 40zM681 520h58c35 0 39 -10 23 -43l-198 -444c-9 -22 -28 -33 -56 -33h-63c-27 0 -42 11 -45 33l-17 199c-3 39 0 77 1 102l2 18h-5
c-11 -43 -25 -83 -40 -120l-88 -199c-10 -22 -29 -33 -56 -33h-54c-29 0 -44 8 -45 33l-46 444c-5 33 3 43 38 43h57c45 0 58 -6 58 -37l6 -172c1 -28 -3 -82 -7 -114l-2 -24h6c14 58 28 104 43 138l77 171c15 32 24 38 68 38h36c44 0 51 -6 54 -37l18 -172
c3 -40 1 -83 -2 -115l-3 -23h6c10 51 23 97 38 138l66 171c13 32 27 38 72 38z" />
    <glyph glyph-name="Wacute" unicode="&#x1e82;" horiz-adv-x="915" 
d="M436 826l156 83c31 16 53 15 66 -3l28 -43c15 -21 12 -31 -12 -40l-186 -62c-24 -8 -39 -7 -45 2l-15 25c-12 19 -11 29 8 38zM858 710h86c29 0 32 -12 20 -40l-265 -636c-12 -28 -27 -34 -56 -34h-87c-29 0 -42 7 -43 32l-25 323c-1 51 2 96 9 137h-9
c-8 -43 -22 -89 -41 -137l-139 -321c-12 -28 -25 -34 -56 -34h-82c-29 0 -43 7 -44 32l-44 638c-3 29 5 40 34 40h92c35 0 47 -7 48 -36l6 -308c1 -19 -1 -46 -4 -83s-6 -60 -8 -71h7c3 15 9 39 19 73s19 61 28 81l134 308c12 28 28 36 60 36h73c33 0 47 -8 48 -36l23 -308
c2 -22 2 -50 1 -84c-2 -34 -4 -57 -7 -70h7c11 51 26 102 44 154l111 308c11 29 24 36 60 36z" />
    <glyph glyph-name="wacute" unicode="&#x1e83;" horiz-adv-x="746" 
d="M319 649l155 84c32 16 54 15 66 -2l29 -43c15 -21 12 -31 -12 -40l-186 -64c-24 -8 -39 -7 -45 3l-16 24c-11 17 -8 29 9 38zM681 520h58c35 0 39 -10 23 -43l-198 -444c-9 -22 -28 -33 -56 -33h-63c-27 0 -42 11 -45 33l-17 199c-3 39 0 77 1 102l2 18h-5
c-11 -43 -25 -83 -40 -120l-88 -199c-10 -22 -29 -33 -56 -33h-54c-29 0 -44 8 -45 33l-46 444c-5 33 3 43 38 43h57c45 0 58 -6 58 -37l6 -172c1 -28 -3 -82 -7 -114l-2 -24h6c14 58 28 104 43 138l77 171c15 32 24 38 68 38h36c44 0 51 -6 54 -37l18 -172
c3 -40 1 -83 -2 -115l-3 -23h6c10 51 23 97 38 138l66 171c13 32 27 38 72 38z" />
    <glyph glyph-name="Wdieresis" unicode="&#x1e84;" horiz-adv-x="915" 
d="M464 902h7c49 0 62 -15 54 -63l-2 -11c-8 -47 -27 -64 -76 -64h-8c-48 0 -60 16 -52 64l3 11c8 48 25 63 74 63zM670 902h7c49 0 62 -15 54 -63l-2 -11c-9 -48 -28 -64 -76 -64h-7c-48 0 -61 16 -53 64l2 11c9 48 27 63 75 63zM858 710h86c29 0 32 -12 20 -40l-265 -636
c-12 -28 -27 -34 -56 -34h-87c-29 0 -42 7 -43 32l-25 323c-1 51 2 96 9 137h-9c-8 -43 -22 -89 -41 -137l-139 -321c-12 -28 -25 -34 -56 -34h-82c-29 0 -43 7 -44 32l-44 638c-3 29 5 40 34 40h92c35 0 47 -7 48 -36l6 -308c1 -19 -1 -46 -4 -83s-6 -60 -8 -71h7
c3 15 9 39 19 73s19 61 28 81l134 308c12 28 28 36 60 36h73c33 0 47 -8 48 -36l23 -308c2 -22 2 -50 1 -84c-2 -34 -4 -57 -7 -70h7c11 51 26 102 44 154l111 308c11 29 24 36 60 36z" />
    <glyph glyph-name="wdieresis" unicode="&#x1e85;" horiz-adv-x="746" 
d="M346 723h8c48 0 61 -16 53 -64l-2 -11c-9 -48 -28 -63 -76 -63h-7c-48 0 -61 15 -53 63l2 11c9 48 27 64 75 64zM553 723h7c49 0 61 -16 52 -64l-2 -11c-8 -48 -26 -63 -74 -63h-7c-49 0 -63 16 -54 63l2 11c8 48 27 64 76 64zM681 520h58c35 0 39 -10 23 -43l-198 -444
c-9 -22 -28 -33 -56 -33h-63c-27 0 -42 11 -45 33l-17 199c-3 39 0 77 1 102l2 18h-5c-11 -43 -25 -83 -40 -120l-88 -199c-10 -22 -29 -33 -56 -33h-54c-29 0 -44 8 -45 33l-46 444c-5 33 3 43 38 43h57c45 0 58 -6 58 -37l6 -172c1 -28 -3 -82 -7 -114l-2 -24h6
c14 58 28 104 43 138l77 171c15 32 24 38 68 38h36c44 0 51 -6 54 -37l18 -172c3 -40 1 -83 -2 -115l-3 -23h6c10 51 23 97 38 138l66 171c13 32 27 38 72 38z" />
    <glyph glyph-name="Ygrave" unicode="&#x1ef2;" horiz-adv-x="655" 
d="M320 863l44 44c17 17 39 18 66 2l126 -83c16 -11 15 -18 -4 -38l-24 -25c-9 -10 -24 -11 -45 -2l-165 62c-21 9 -19 19 2 40zM613 710h89c29 0 33 -18 14 -41l-304 -393l-42 -235c-5 -31 -17 -41 -48 -41h-81c-31 0 -38 10 -33 41l41 237l-166 391c-11 23 -1 41 28 41h90
c51 0 61 -3 73 -36l85 -233l169 233c11 17 22 27 32 31c10 3 28 5 53 5z" />
    <glyph glyph-name="ygrave" unicode="&#x1ef3;" horiz-adv-x="557" 
d="M245 688l45 43c19 18 41 19 66 2l126 -84c16 -11 14 -18 -5 -38l-24 -24c-10 -10 -25 -11 -46 -3l-164 64c-21 11 -19 17 2 40zM449 520h78c27 0 34 -9 29 -37l-86 -493c-26 -147 -115 -220 -267 -220c-100 0 -164 32 -193 96c-13 25 -4 44 25 58l57 27
c32 15 43 11 56 -13c14 -25 39 -38 75 -38c53 0 84 27 94 81l7 41c-25 -5 -57 -7 -94 -7c-144 0 -201 83 -177 219l43 249c5 28 16 37 44 37h77c28 0 35 -9 30 -37l-45 -256c-9 -50 16 -75 73 -75c23 0 47 2 73 7l57 324c5 28 16 37 44 37z" />
    <glyph glyph-name="endash" unicode="&#x2013;" horiz-adv-x="565" 
d="M102 338h379c31 0 39 -10 34 -41l-11 -61c-5 -31 -17 -41 -48 -41h-379c-31 0 -38 10 -33 41l10 61c5 31 17 41 48 41z" />
    <glyph glyph-name="emdash" unicode="&#x2014;" horiz-adv-x="768" 
d="M103 338h583c29 0 38 -10 33 -41l-11 -62c-5 -31 -17 -41 -48 -41h-583c-29 0 -38 10 -33 41l11 62c5 31 17 41 48 41z" />
    <glyph glyph-name="quoteleft" unicode="&#x2018;" horiz-adv-x="237" 
d="M86 479l72 195c11 27 22 37 49 37h35c24 0 28 -5 25 -28l-31 -204c-5 -33 -18 -44 -50 -44h-65c-35 0 -47 15 -35 44z" />
    <glyph glyph-name="quoteright" unicode="&#x2019;" horiz-adv-x="231" 
d="M263 666l-72 -195c-11 -27 -22 -36 -49 -36h-35c-24 0 -28 6 -25 27l31 204c7 35 18 45 51 45h64c36 0 48 -15 35 -45z" />
    <glyph glyph-name="quotesinglbase" unicode="&#x201a;" horiz-adv-x="224" 
d="M148 73l-55 -190c-7 -28 -18 -37 -45 -37h-41c-28 0 -35 9 -30 37l34 190c5 28 16 37 43 37h64c28 0 38 -10 30 -37z" />
    <glyph glyph-name="quotedblleft" unicode="&#x201c;" horiz-adv-x="415" 
d="M85 481l73 194c11 28 21 37 48 37h36c23 0 28 -5 25 -28l-32 -203c-5 -35 -17 -45 -50 -45h-64c-35 0 -47 15 -36 45zM263 481l73 194c11 28 21 37 49 37h35c24 0 28 -5 25 -28l-31 -203c-7 -35 -18 -45 -51 -45h-64c-35 0 -47 15 -36 45z" />
    <glyph glyph-name="quotedblright" unicode="&#x201d;" horiz-adv-x="410" 
d="M263 664l-73 -195c-11 -27 -21 -36 -48 -36h-36c-23 0 -28 6 -25 27l32 204c5 33 17 44 50 44h64c35 0 47 -15 36 -44zM442 664l-73 -195c-11 -27 -22 -36 -49 -36h-35c-24 0 -28 6 -25 27l32 204c5 33 17 44 50 44h64c35 0 47 -15 36 -44z" />
    <glyph glyph-name="quotedblbase" unicode="&#x201e;" horiz-adv-x="419" 
d="M167 107l-73 -194c-11 -28 -21 -37 -49 -37h-35c-24 0 -28 5 -25 28l31 203c7 35 18 45 51 45h64c35 0 47 -15 36 -45zM345 107l-73 -194c-11 -28 -21 -37 -48 -37h-35c-24 0 -28 5 -25 28l31 203c7 35 17 45 50 45h64c37 0 49 -15 36 -45z" />
    <glyph glyph-name="dagger" unicode="&#x2020;" horiz-adv-x="529" 
d="M383 518h122c29 0 38 -9 33 -40l-12 -67c-5 -31 -17 -41 -48 -41h-122l-75 -429c-7 -31 -17 -41 -48 -41h-71c-31 0 -38 10 -33 41l75 429h-122c-31 0 -40 10 -33 41l12 67c5 31 17 40 48 40h122l26 151c7 31 17 41 48 41h70c31 0 39 -10 34 -41z" />
    <glyph glyph-name="daggerdbl" unicode="&#x2021;" horiz-adv-x="553" 
d="M316 710h71c31 0 39 -10 34 -41l-27 -151h122c31 0 39 -9 34 -40l-12 -67c-5 -31 -18 -41 -49 -41h-122l-22 -130h122c31 0 39 -10 34 -41l-12 -67c-5 -29 -17 -40 -48 -40h-122l-26 -151c-5 -31 -17 -41 -48 -41h-71c-31 0 -39 10 -34 41l27 151h-122
c-29 0 -38 9 -33 40l12 67c7 31 18 41 47 41h122l22 130h-122c-31 0 -37 10 -32 41l12 67c5 29 16 40 47 40h122l26 151c5 31 17 41 48 41z" />
    <glyph glyph-name="bullet" unicode="&#x2022;" horiz-adv-x="391" 
d="M176 126c-79 0 -127 59 -112 138c7 39 26 72 57 98c30 26 65 39 104 39c77 0 125 -58 112 -137c-7 -39 -26 -72 -57 -98c-31 -27 -65 -40 -104 -40z" />
    <glyph glyph-name="ellipsis" unicode="&#x2026;" horiz-adv-x="759" 
d="M99 162h17c57 0 72 -19 63 -76l-4 -19c-9 -57 -32 -75 -89 -75h-17c-57 0 -71 18 -62 75l4 19c9 57 31 76 88 76zM355 162h17c57 0 71 -17 62 -76l-4 -19c-11 -57 -31 -75 -88 -75h-17c-57 0 -73 18 -62 75l3 19c9 57 32 76 89 76zM610 162h17c57 0 71 -19 62 -76l-3 -19
c-9 -57 -32 -75 -89 -75h-17c-57 0 -71 18 -62 75l4 19c9 57 31 76 88 76z" />
    <glyph glyph-name="perthousand" unicode="&#x2030;" horiz-adv-x="1220" 
d="M67 502l13 72c16 95 87 152 198 152s162 -57 145 -152l-13 -72c-16 -93 -87 -149 -198 -149s-162 56 -145 149zM729 710h64c27 0 32 -18 13 -39l-579 -635c-15 -16 -27 -26 -36 -30s-26 -6 -50 -6h-59c-29 0 -33 18 -13 41l580 635c13 15 25 25 34 29c9 3 24 5 46 5z
M293 511l9 57c5 28 -11 43 -44 43c-35 0 -55 -14 -59 -43l-10 -57c-6 -30 8 -45 43 -45s55 15 61 45zM448 134l13 72c16 95 89 151 198 151c111 0 162 -56 146 -151l-14 -72c-16 -95 -87 -150 -198 -150c-109 0 -161 55 -145 150zM823 134l13 72c16 95 88 151 199 151
c109 0 161 -56 145 -151l-13 -72c-17 -95 -89 -150 -198 -150c-111 0 -162 55 -146 150zM674 142l10 57c4 29 -10 44 -45 44c-34 0 -54 -15 -59 -44l-10 -57c-6 -29 9 -44 44 -44c34 0 54 15 60 44zM1049 142l10 57c5 29 -9 44 -44 44s-55 -15 -60 -44l-10 -57
c-5 -29 9 -44 44 -44s55 15 60 44z" />
    <glyph glyph-name="guilsinglleft" unicode="&#x2039;" horiz-adv-x="362" 
d="M204 265l96 -117c12 -13 9 -28 -8 -45l-51 -48c-16 -16 -31 -16 -45 0l-153 184c-12 16 -9 31 8 46l217 186c16 15 31 15 46 0l38 -41c15 -17 13 -27 -8 -44z" />
    <glyph glyph-name="guilsinglright" unicode="&#x203a;" horiz-adv-x="368" 
d="M187 272l-98 120c-13 15 -10 30 8 45l51 41c19 15 34 15 46 0l156 -193c12 -15 9 -30 -8 -46l-216 -184c-18 -15 -33 -15 -46 0l-43 54c-13 17 -11 32 8 46z" />
    <glyph glyph-name="fraction" unicode="&#x2044;" horiz-adv-x="226" 
d="M-184 41l468 635c21 29 30 34 74 34h65c28 0 35 -18 19 -39l-467 -635c-11 -16 -21 -26 -30 -30s-25 -6 -49 -6h-60c-28 0 -36 18 -20 41z" />
    <glyph glyph-name="zerosuperior" unicode="&#x2070;" horiz-adv-x="380" 
d="M90 559l21 121c15 88 80 138 181 138c99 0 148 -62 133 -151l-21 -121c-16 -89 -80 -139 -180 -139s-150 60 -134 152zM283 551l22 122c4 21 -6 32 -31 32s-39 -11 -43 -32l-21 -122c-4 -22 6 -33 31 -33s39 11 42 33z" />
    <glyph glyph-name="foursuperior" unicode="&#x2074;" horiz-adv-x="392" 
d="M377 586h10c28 0 32 -5 29 -30l-7 -37c-5 -27 -11 -31 -40 -31h-10l-7 -40c-5 -27 -13 -33 -38 -33h-50c-25 0 -30 6 -25 33l7 40h-161c-27 0 -32 7 -28 35l5 28c3 16 10 29 19 39l196 198c19 19 27 22 54 22h49c31 0 35 -6 30 -37zM263 586l14 79l-78 -79h64z" />
    <glyph glyph-name="fivesuperior" unicode="&#x2075;" horiz-adv-x="367" 
d="M190 810h205c21 0 27 -7 23 -28l-7 -43c-4 -23 -10 -28 -33 -28h-141l-9 -32h40c96 0 137 -54 124 -134c-16 -81 -76 -138 -173 -138c-85 0 -134 31 -146 94c-5 25 3 41 25 49l39 13c29 11 38 7 46 -18c7 -24 23 -36 46 -36c29 0 45 13 49 39c3 26 -8 39 -33 39h-118
c-25 0 -32 9 -25 33l45 159c5 24 15 31 43 31z" />
    <glyph glyph-name="sixsuperior" unicode="&#x2076;" horiz-adv-x="379" 
d="M232 674l-2 -13c19 5 39 8 59 8c95 0 134 -49 119 -132c-15 -87 -76 -130 -183 -130c-104 0 -152 58 -133 154l20 117c17 93 81 140 190 140c71 0 115 -32 131 -73c7 -15 0 -26 -21 -35l-52 -24c-28 -9 -29 -6 -38 7c-10 13 -23 19 -38 19c-32 0 -47 -10 -52 -38z
M212 558l-2 -10c-5 -24 6 -36 33 -36s42 9 44 27c4 19 -6 26 -34 26c-13 0 -27 -2 -41 -7z" />
    <glyph glyph-name="sevensuperior" unicode="&#x2077;" horiz-adv-x="333" 
d="M140 810h239c24 0 30 -7 26 -31l-5 -29c-3 -15 -8 -28 -16 -39l-172 -272c-13 -23 -17 -24 -54 -24h-47c-32 0 -36 10 -15 42l155 244h-131c-24 0 -29 7 -25 31l9 46c4 27 12 32 36 32z" />
    <glyph glyph-name="eightsuperior" unicode="&#x2078;" horiz-adv-x="389" 
d="M117 703c13 73 79 115 176 115s150 -45 139 -112c-7 -35 -27 -62 -60 -81c35 -23 48 -55 40 -97c-14 -81 -77 -122 -190 -122s-161 46 -149 113c7 37 33 67 78 90c-29 24 -40 55 -34 94zM311 698c3 17 -5 28 -34 28c-25 0 -39 -9 -41 -26c-3 -17 10 -24 43 -36
c19 10 29 21 32 34zM286 528c3 19 -11 26 -44 38c-25 -12 -39 -25 -42 -38c-3 -17 7 -29 40 -29c27 0 42 10 46 29z" />
    <glyph glyph-name="ninesuperior" unicode="&#x2079;" horiz-adv-x="380" 
d="M280 551l3 12c-19 -5 -39 -8 -60 -8c-95 0 -133 53 -118 136c16 85 77 127 182 127c104 0 152 -56 135 -152l-21 -116c-17 -95 -80 -143 -189 -143c-72 0 -120 29 -135 69c-7 16 1 29 22 38l50 24c29 9 30 6 38 -7c10 -13 24 -19 41 -19c31 0 49 13 52 39zM301 666l2 10
c4 24 -7 36 -34 36c-26 0 -41 -9 -44 -26c-4 -20 6 -27 34 -27c13 0 27 2 42 7z" />
    <glyph glyph-name="zeroinferior" unicode="&#x2080;" horiz-adv-x="380" 
d="M-5 25l21 121c16 88 81 138 181 138c99 0 149 -61 134 -150l-22 -122c-16 -89 -80 -139 -180 -139s-150 61 -134 152zM189 17l21 123c4 21 -6 31 -30 31c-25 0 -39 -10 -43 -31l-22 -123c-4 -22 7 -33 32 -33c24 0 38 11 42 33z" />
    <glyph glyph-name="oneinferior" unicode="&#x2081;" horiz-adv-x="287" 
d="M184 276h21c33 0 43 -11 38 -43l-55 -312c-5 -31 -17 -40 -48 -40h-40c-31 0 -38 9 -33 40l36 206l-35 -18c-26 -13 -44 -9 -54 14l-14 31c-9 22 0 40 27 54l109 57c14 7 30 11 48 11z" />
    <glyph glyph-name="twoinferior" unicode="&#x2082;" horiz-adv-x="367" 
d="M18 190c36 63 93 94 170 94c92 0 138 -58 126 -131c-12 -72 -46 -113 -127 -137l-53 -14c-19 -3 -28 -7 -29 -12l-1 -2h139c27 0 34 -10 29 -35l-7 -38c-4 -24 -15 -34 -40 -34h-230c-27 0 -34 9 -30 34l5 29c13 75 38 108 113 135l56 20c35 12 45 21 49 46
c3 16 -6 27 -23 27c-18 0 -32 -8 -43 -24c-19 -29 -26 -33 -54 -24l-35 14c-27 11 -31 23 -15 52z" />
    <glyph glyph-name="threeinferior" unicode="&#x2083;" horiz-adv-x="373" 
d="M13 190c35 63 93 94 174 94c91 0 138 -46 127 -118c-7 -39 -19 -58 -54 -78c31 -22 43 -56 34 -103c-13 -75 -72 -112 -175 -112c-86 0 -134 31 -145 93c-5 28 2 41 27 49l38 13c29 9 40 4 47 -24c5 -18 22 -27 49 -27c25 0 39 8 42 24c4 18 -5 27 -26 27h-29
c-28 0 -32 5 -27 33l7 35c7 32 10 36 42 36h19c21 0 33 8 36 25c3 16 -7 24 -28 24c-29 0 -49 -9 -60 -26c-19 -31 -28 -34 -60 -22l-24 10c-23 11 -26 19 -14 47z" />
    <glyph glyph-name="fourinferior" unicode="&#x2084;" horiz-adv-x="392" 
d="M283 53h10c29 0 33 -6 29 -31l-7 -37c-5 -25 -11 -31 -39 -31h-11l-6 -40c-5 -25 -13 -33 -38 -33h-51c-25 0 -30 8 -25 33l7 40h-160c-28 0 -33 7 -28 35l4 29c3 16 10 29 19 38l196 198c15 15 33 22 54 22h50c29 0 34 -6 29 -37zM170 53l13 78l-77 -78h64z" />
    <glyph glyph-name="fiveinferior" unicode="&#x2085;" horiz-adv-x="367" 
d="M96 276h205c21 0 27 -7 23 -28l-7 -43c-4 -23 -10 -27 -33 -27h-141l-9 -32h40c96 0 137 -55 124 -134c-16 -83 -76 -139 -173 -139c-85 0 -133 32 -146 95c-5 24 3 40 25 48l39 14c29 9 38 6 46 -18c7 -25 22 -37 46 -37c25 0 45 15 49 39c3 26 -8 39 -33 39h-118
c-25 0 -32 9 -25 33l45 160c5 24 15 30 43 30z" />
    <glyph glyph-name="sixinferior" unicode="&#x2086;" horiz-adv-x="380" 
d="M137 140l-2 -13c21 6 41 9 59 9c96 0 134 -50 119 -133c-15 -87 -76 -130 -183 -130c-104 0 -150 58 -133 155l21 116c17 93 80 140 189 140c71 0 115 -31 131 -72c6 -15 -1 -27 -20 -36l-53 -24c-28 -9 -29 -6 -38 7c-10 13 -23 19 -38 19c-31 0 -48 -13 -52 -38z
M117 24l-2 -10c-5 -24 6 -36 33 -36s42 9 45 27c3 19 -7 26 -35 26c-13 0 -27 -2 -41 -7z" />
    <glyph glyph-name="seveninferior" unicode="&#x2087;" horiz-adv-x="333" 
d="M46 276h239c25 0 30 -7 26 -31l-5 -29c-3 -14 -8 -27 -15 -39l-173 -272c-13 -21 -18 -24 -54 -24h-47c-32 0 -35 10 -15 42l156 244h-132c-24 0 -28 8 -24 32l8 45c4 27 12 32 36 32z" />
    <glyph glyph-name="eightinferior" unicode="&#x2088;" horiz-adv-x="390" 
d="M25 170c12 72 78 114 175 114s150 -45 139 -112c-7 -35 -27 -61 -60 -80c35 -22 48 -55 40 -98c-14 -81 -77 -121 -190 -121s-161 46 -148 113c6 37 32 67 77 90c-29 24 -40 55 -33 94zM218 165c3 17 -5 27 -34 27c-25 0 -39 -9 -41 -26c-1 -16 12 -24 43 -35
c19 9 29 20 32 34zM193 -6c3 19 -11 27 -43 38c-27 -12 -41 -24 -42 -37c-4 -17 6 -30 39 -30c27 0 42 10 46 29z" />
    <glyph glyph-name="nineinferior" unicode="&#x2089;" horiz-adv-x="380" 
d="M187 18l2 12c-19 -5 -39 -8 -60 -8c-95 0 -132 53 -117 136c15 84 80 127 181 127c105 0 152 -55 135 -152l-21 -116c-17 -95 -80 -143 -189 -143c-72 0 -120 29 -135 69c-7 15 1 28 22 38l50 24c29 9 30 8 39 -7c9 -13 22 -19 40 -19c32 0 48 10 53 39zM207 134l2 9
c4 25 -6 36 -34 36c-26 0 -41 -9 -44 -26c-12 -29 34 -34 76 -19z" />
    <glyph glyph-name="Euro" unicode="&#x20ac;" horiz-adv-x="741" 
d="M179 479l3 17c31 151 152 229 333 229c125 0 191 -44 226 -121c13 -31 8 -50 -27 -65l-55 -23c-35 -16 -48 -12 -63 15l-2 2c-5 9 -29 43 -104 43c-77 0 -136 -32 -145 -88l-2 -9h209c28 0 33 -9 21 -34l-19 -41c-11 -21 -28 -32 -52 -32h-183l-8 -43h171
c27 0 32 -9 20 -34l-19 -41c-11 -21 -28 -32 -53 -32h-132l-1 -6c-11 -59 35 -84 111 -84c51 0 92 16 124 48c25 27 38 31 69 15l56 -28c29 -15 31 -37 7 -67c-59 -77 -151 -115 -277 -115c-180 0 -281 77 -254 228l1 9h-90c-27 0 -32 9 -20 34l19 41c10 21 27 32 52 32h59
l7 43h-46c-25 0 -31 9 -20 34l19 41c10 21 27 32 52 32h13z" />
    <glyph glyph-name="uni20BD" unicode="&#x20bd;" horiz-adv-x="685" 
d="M263 254l-9 -52h271c27 0 35 -9 30 -37l-7 -37c-5 -27 -16 -36 -43 -36h-272l-8 -51c-5 -31 -17 -41 -48 -41h-81c-31 0 -39 10 -34 41l9 51h-34c-28 0 -35 9 -30 36l7 37c4 28 15 37 43 37h34l82 467c7 31 17 41 48 41h279c71 0 124 -22 158 -67s44 -105 31 -178
c-24 -141 -121 -211 -269 -211h-157zM317 563l-29 -163h138c55 0 90 31 98 82c11 49 -15 81 -70 81h-137z" />
    <glyph glyph-name="uni2113" unicode="&#x2113;" horiz-adv-x="455" 
d="M126 301l39 218c27 152 109 213 204 213c97 0 138 -63 121 -160c-11 -59 -34 -116 -70 -169c-36 -54 -94 -110 -175 -169l-8 -47c-8 -41 6 -62 42 -62c13 0 26 4 40 12c16 10 28 9 36 -2l36 -55c10 -15 7 -28 -9 -39c-41 -31 -86 -47 -135 -47c-101 0 -158 48 -147 141
l1 6l-10 -6c-21 -12 -35 -9 -42 9l-26 57c-9 19 -4 35 15 46c17 10 47 28 88 54zM360 575c4 24 -1 36 -14 36c-23 0 -40 -31 -51 -93l-18 -102c45 47 73 100 83 159z" />
    <glyph glyph-name="uni2116" unicode="&#x2116;" horiz-adv-x="1066" 
d="M1075 568l-13 -72c-16 -92 -85 -144 -197 -144c-109 0 -160 62 -143 158l13 72c17 95 82 143 196 143c109 0 161 -61 144 -157zM592 710h77c31 0 39 -10 34 -41l-111 -628c-5 -31 -17 -41 -48 -41h-80c-17 0 -29 6 -36 19l-142 298c-23 47 -40 109 -51 187h-7
c3 -88 0 -163 -11 -224l-43 -239c-5 -31 -17 -41 -48 -41h-77c-29 0 -38 10 -33 41l111 628c5 31 16 41 47 41h78c19 0 31 -6 38 -19l146 -303c17 -35 33 -82 39 -110s12 -65 13 -69h7c-9 70 -7 144 7 221l42 239c7 31 17 41 48 41zM851 567l-10 -57c-5 -29 9 -44 44 -44
s55 15 60 44l10 57c5 29 -9 44 -44 44s-55 -15 -60 -44zM727 324h266c31 0 38 -12 33 -41l-8 -49c-7 -31 -17 -40 -48 -40h-265c-31 0 -39 11 -34 40l8 49c7 31 19 41 48 41z" />
    <glyph glyph-name="uni2117" unicode="&#x2117;" horiz-adv-x="789" 
d="M70 351c17 100 67 185 149 255c82 69 173 104 274 104s180 -35 237 -104c57 -70 76 -155 59 -255c-18 -101 -68 -186 -149 -255c-82 -69 -173 -104 -273 -104s-179 35 -236 105c-58 70 -78 155 -61 254zM154 351c-13 -77 2 -143 46 -196c43 -53 104 -80 182 -80
c77 0 146 27 209 80c62 53 100 119 114 196c13 78 -2 143 -45 196s-104 79 -181 79c-78 0 -148 -26 -210 -79c-63 -53 -101 -118 -115 -196zM364 533h129c81 0 125 -56 110 -139c-13 -79 -73 -122 -157 -122h-63l-14 -81c-4 -23 -10 -27 -31 -27h-38c-24 0 -27 4 -23 27
l56 316c3 21 8 26 31 26zM399 359h56c58 0 74 86 15 86h-56z" />
    <glyph glyph-name="trademark" unicode="&#x2122;" horiz-adv-x="622" 
d="M128 695h192c24 0 27 -4 22 -28l-4 -22c-4 -24 -8 -27 -32 -27h-52l-27 -149c-3 -20 -10 -26 -34 -26h-25c-23 0 -27 5 -24 26l27 149h-57c-21 0 -24 4 -20 25l4 26c4 23 7 26 30 26zM589 695h17c25 0 29 -4 25 -28l-36 -198c-3 -21 -7 -26 -31 -26h-24
c-23 0 -25 5 -22 26l7 40c1 7 5 23 12 48c-4 -7 -13 -17 -14 -20l-17 -20c-11 -11 -23 -17 -36 -17h-11c-12 0 -21 5 -26 14l-12 19c-4 7 -7 12 -8 16c-1 -16 -3 -29 -5 -40l-7 -40c-3 -21 -7 -26 -30 -26h-24c-23 0 -26 5 -23 26l35 198c5 24 11 28 36 28h15
c17 0 21 -3 29 -18l42 -90l73 89c11 13 22 19 35 19z" />
    <glyph glyph-name="Omega" unicode="&#x2126;" horiz-adv-x="796" 
d="M68 381c18 101 65 183 142 248c76 64 164 96 265 96c103 0 182 -32 235 -97s71 -151 54 -256c-15 -89 -63 -162 -142 -219h67c31 0 39 -11 34 -40l-13 -72c-5 -31 -17 -41 -48 -41h-252c-21 0 -30 11 -27 33l11 61c3 15 13 27 30 34c46 21 86 52 119 95s54 87 62 132
c24 131 -25 222 -156 222c-61 0 -112 -21 -152 -62s-66 -94 -77 -159c-17 -97 18 -189 99 -229c14 -7 19 -19 16 -35l-10 -59c-4 -22 -17 -33 -38 -33h-252c-29 0 -38 10 -33 41l12 72c5 31 19 40 48 40h65c-55 64 -74 140 -59 228z" />
    <glyph glyph-name="estimated" unicode="&#x212e;" horiz-adv-x="806" 
d="M813 355l-4 -24c-3 -17 -13 -25 -31 -25h-521l-30 -169c43 -41 99 -62 166 -62c102 0 190 44 264 133c13 17 19 19 43 19h43c19 0 21 -5 10 -24c-41 -65 -96 -118 -163 -158s-138 -60 -212 -60c-102 0 -183 36 -242 109c-60 72 -81 159 -63 261s70 189 155 262
c85 72 178 108 280 108s183 -36 243 -108c59 -73 80 -160 62 -262zM627 396l31 175c-44 43 -99 64 -166 64s-129 -21 -188 -64l-31 -175h354z" />
    <glyph glyph-name="uni2153" unicode="&#x2153;" horiz-adv-x="917" 
d="M278 715h21c33 0 44 -11 39 -43l-56 -312c-5 -29 -16 -40 -47 -40h-40c-31 0 -39 9 -34 40l37 206l-35 -18c-27 -14 -45 -9 -55 14l-13 31c-9 22 0 40 27 54l108 57c13 7 29 11 48 11zM700 710h57c28 0 35 -18 19 -39l-467 -635c-11 -16 -21 -26 -30 -30s-25 -6 -49 -6
h-53c-28 0 -36 18 -20 41l468 635c21 29 31 34 75 34zM581 309c33 63 91 94 173 94c91 0 139 -46 127 -118c-5 -35 -23 -61 -53 -78c31 -23 42 -57 34 -103c-13 -75 -72 -112 -176 -112c-86 0 -134 31 -145 94c-5 25 4 41 27 48l38 13c29 9 40 5 47 -23c5 -19 21 -28 49 -28
c26 0 40 8 42 24c4 18 -5 27 -26 27h-29c-27 0 -31 5 -27 33l7 35c7 32 10 36 42 36h19c21 0 33 8 36 25c3 16 -7 24 -27 24c-29 0 -50 -8 -61 -25c-17 -31 -27 -35 -59 -23l-25 11c-23 9 -26 18 -13 46z" />
    <glyph glyph-name="uni2154" unicode="&#x2154;" horiz-adv-x="975" 
d="M99 629c35 63 92 94 171 94c91 0 137 -57 126 -130c-12 -72 -46 -113 -127 -138l-53 -13c-19 -5 -29 -9 -30 -12l-1 -2h140c25 0 33 -10 28 -35l-6 -39c-4 -24 -15 -34 -40 -34h-231c-25 0 -34 9 -30 34l6 29c13 76 39 110 112 135l57 21c33 12 44 19 49 46
c3 15 -6 27 -23 27c-18 0 -32 -8 -43 -24c-20 -29 -26 -34 -55 -25l-35 14c-25 11 -30 23 -15 52zM758 710h57c28 0 35 -18 19 -39l-467 -635c-11 -16 -21 -26 -30 -30s-25 -6 -49 -6h-52c-29 0 -37 18 -21 41l468 635c21 29 31 34 75 34zM635 309c35 63 93 94 174 94
c91 0 138 -46 127 -118c-5 -37 -19 -58 -54 -78c31 -22 43 -56 34 -103c-13 -75 -72 -112 -175 -112c-87 0 -135 31 -145 94c-5 25 4 41 27 48l38 13c29 9 40 5 47 -23c5 -19 21 -28 49 -28c25 0 39 8 42 24c4 18 -5 27 -26 27h-29c-28 0 -32 5 -27 33l7 35c5 32 9 36 41 36
h19c21 0 34 8 37 25c3 16 -7 24 -28 24c-29 0 -49 -8 -60 -25c-19 -31 -28 -35 -60 -23l-24 11c-23 9 -27 18 -14 46z" />
    <glyph glyph-name="oneeighth" unicode="&#x215b;" horiz-adv-x="939" 
d="M278 715h21c33 0 44 -11 39 -43l-56 -312c-5 -29 -16 -40 -47 -40h-40c-31 0 -39 9 -34 40l37 206l-35 -18c-27 -14 -45 -9 -55 14l-13 31c-9 22 0 40 27 54l108 57c13 7 29 11 48 11zM709 710h57c27 0 35 -18 20 -39l-467 -635c-12 -16 -22 -26 -31 -30s-25 -6 -49 -6
h-52c-28 0 -36 18 -20 41l468 635c21 29 30 34 74 34zM591 289c12 72 78 114 175 114s150 -45 139 -112c-7 -35 -27 -61 -60 -80c35 -22 48 -55 40 -98c-14 -81 -77 -121 -190 -121s-160 46 -148 113c6 37 32 67 77 90c-29 24 -40 55 -33 94zM784 284c4 16 -3 27 -34 27
c-25 0 -39 -9 -41 -26c-1 -16 12 -24 43 -35c19 9 29 20 32 34zM759 113c4 19 -11 27 -43 38c-27 -12 -41 -24 -42 -37c-4 -17 6 -30 39 -30c27 0 42 10 46 29z" />
    <glyph glyph-name="threeeighths" unicode="&#x215c;" horiz-adv-x="960" 
d="M98 631c33 62 91 93 173 93c91 0 138 -46 127 -118c-7 -39 -19 -58 -54 -78c31 -21 43 -56 34 -103c-13 -75 -72 -112 -175 -112c-86 0 -134 31 -145 94c-5 25 4 41 27 48l38 13c29 9 40 5 47 -23c5 -19 21 -28 49 -28c25 0 39 8 42 24c4 18 -5 27 -26 27h-29
c-28 0 -32 5 -27 33l7 35c7 32 10 36 42 36h19c21 0 33 8 36 25s-7 25 -28 25c-29 0 -49 -9 -60 -26c-17 -31 -28 -35 -60 -23l-24 11c-23 9 -26 19 -13 47zM742 709h58c27 0 35 -18 19 -38l-467 -636c-11 -16 -21 -26 -30 -30s-26 -6 -50 -6h-52c-28 0 -36 20 -20 41
l468 636c21 29 30 33 74 33zM611 289c13 72 79 114 176 114s150 -45 139 -112c-7 -35 -27 -61 -60 -80c35 -23 48 -55 40 -98c-14 -81 -78 -121 -191 -121s-160 46 -148 113c7 37 33 67 78 90c-29 24 -40 55 -34 94zM805 284c3 16 -5 27 -34 27c-25 0 -39 -9 -41 -26
c-3 -16 11 -24 43 -35c19 9 29 20 32 34zM780 113c3 19 -11 27 -44 38c-25 -12 -39 -24 -42 -37c-3 -17 7 -30 40 -30c27 0 42 10 46 29z" />
    <glyph glyph-name="fiveeighths" unicode="&#x215d;" horiz-adv-x="971" 
d="M172 714h205c21 0 27 -6 23 -27l-7 -43c-4 -23 -10 -28 -33 -28h-141l-9 -32h40c96 0 138 -55 123 -134c-15 -83 -75 -139 -172 -139c-85 0 -133 32 -146 95c-5 28 2 40 25 48l39 14c29 11 38 7 46 -18c7 -24 22 -36 45 -36c29 0 46 13 50 39c3 25 -8 38 -33 38h-118
c-25 0 -32 9 -25 33l45 160c5 24 15 30 43 30zM736 710h57c28 0 35 -18 19 -39l-467 -635c-11 -16 -21 -26 -30 -30s-25 -6 -49 -6h-53c-28 0 -36 18 -20 41l468 635c21 29 31 34 75 34zM619 289c12 72 78 114 175 114c99 0 151 -45 140 -112c-6 -34 -26 -61 -60 -80
c34 -22 47 -55 40 -98c-14 -81 -78 -121 -191 -121s-160 46 -148 113c7 37 33 67 78 90c-30 24 -41 55 -34 94zM812 284c4 16 -4 27 -33 27c-25 0 -39 -9 -41 -26c-3 -16 11 -24 42 -35c19 9 29 20 32 34zM787 113c4 19 -10 27 -43 38c-25 -11 -39 -24 -42 -37
c-4 -17 6 -30 39 -30c27 0 42 10 46 29z" />
    </font>
</defs>
</svg>
